<?xml version="1.0" encoding="utf-8"?>
<!-- Generator: Adobe Illustrator 21.1.0, SVG Export Plug-In . SVG Version: 6.00 Build 0)  -->
<svg version="1.1" xmlns="http://www.w3.org/2000/svg" xmlns:xlink="http://www.w3.org/1999/xlink" x="0px" y="0px"
	 viewBox="0 0 400 400" style="enable-background:new 0 0 400 400;" xml:space="preserve">
<g id="Cirlce">
	<g>
		<path d="M200,20.1c48.1,0,93.2,18.7,127.2,52.7c34,34,52.7,79.2,52.7,127.2s-18.7,93.2-52.7,127.2c-34,34-79.2,52.7-127.2,52.7
			s-93.2-18.7-127.2-52.7c-34-34-52.7-79.2-52.7-127.2s18.7-93.2,52.7-127.2C106.8,38.8,151.9,20.1,200,20.1 M200,0.1
			C89.6,0.1,0.1,89.6,0.1,200S89.6,399.9,200,399.9S399.9,310.4,399.9,200S310.4,0.1,200,0.1L200,0.1z"/>
	</g>
</g>
<g id="Biomedical_Engineering">
	<path d="M200.2,187.5c-17-0.1-30.2,12.9-30.3,29.8c-0.1,17,12.9,30.2,29.8,30.3c17,0.1,30.2-12.9,30.3-29.8
		C230.1,200.8,217.2,187.6,200.2,187.5z"/>
	<path d="M261.5,110.9c-41.7,0-61.5,21.9-61.5,21.9l-0.1,25.6l0.1-25.6c0,0-19.8-21.9-61.5-21.9s-64.6,27.9-64.6,69.9
		c0,42,59.5,112.3,125.6,145.4l0,0.1c0,0,0,0,0.1,0c0,0,0,0,0.1,0l0-0.1c66.1-33.1,126.6-103.4,126.6-145.4
		C326.1,138.8,303.3,110.9,261.5,110.9z M256.2,242.6c-1.1,1.6-3.5,3.1-5.4,3.2c-12.1,0.2-22.2,10.4-20.9,22.4
		c0.5,4.6-2,5.2-4.8,6.2c-2.8,1-5.2,3.6-8.6-0.2c-10.6-11.9-22.5-11.9-33.1,0c-3.7,4.2-6.2,0.8-9.1-0.1c-2.8-0.8-4.7-1.8-4.2-6
		c1.5-12.2-8.4-22.1-20.7-20.8c-4.1,0.4-5.3-1.4-6-4.2c-0.7-2.8-4.2-5.1-0.5-8.7c13.2-12.8,12.6-22.2-2.1-34.6
		c0.8-2.2,1.6-4.1,2.3-6c1.1-3.3,2.5-5.1,6.9-4.9c11.4,0.5,21.5-10.8,20.1-22.3c-0.5-4.2,1.8-5,4.4-5.9c3-1,5.5-3.9,9.1,0.2
		c10.2,11.7,22.6,11.7,32.7,0.1c3.5-4.1,6-1.4,9.1-0.4c3.1,1,5.1,2.1,4.5,6.4c-1.2,10.1,7.2,21.5,17.6,21.5c8.9,0,9.7,5.2,11.6,10.9
		c-14.7,16.6-14.7,23.3,0.2,35.7C258.3,237.5,257.8,240.4,256.2,242.6z"/>
</g>
</svg>
