<?xml version="1.0" encoding="utf-8"?>
<!-- Generator: Adobe Illustrator 21.1.0, SVG Export Plug-In . SVG Version: 6.00 Build 0)  -->
<svg version="1.1" xmlns="http://www.w3.org/2000/svg" xmlns:xlink="http://www.w3.org/1999/xlink" x="0px" y="0px"
	 viewBox="0 0 400 400" style="enable-background:new 0 0 400 400;" xml:space="preserve">
<g id="Cirlce">
	<g>
		<path d="M200,20.1c48.1,0,93.2,18.7,127.2,52.7c34,34,52.7,79.2,52.7,127.2s-18.7,93.2-52.7,127.2c-34,34-79.2,52.7-127.2,52.7
			s-93.2-18.7-127.2-52.7c-34-34-52.7-79.2-52.7-127.2s18.7-93.2,52.7-127.2C106.8,38.8,151.9,20.1,200,20.1 M200,0.1
			C89.6,0.1,0.1,89.6,0.1,200S89.6,399.9,200,399.9S399.9,310.4,399.9,200S310.4,0.1,200,0.1L200,0.1z"/>
	</g>
</g>
<g id="Brain">
	<path d="M328.2,164.9c-0.9-25.7-8.5-41.2-29.1-59.4c-19.7-17.5-47.9-16-52-15.7c-8.5-4.1-21.5-8.5-38.4-8.8
		c-26.6-0.5-37.9,11-41.1,15.1c-8.2-0.4-18.8,1.1-32.4,6.6c-20,8.1-27.3,21.9-29.6,33.7c-15.2,6-25,18.8-28.2,37.1
		c-2.3,13.1-0.5,24.6-0.2,26.4c-5.4,8.7-8.6,21.1-1.9,36.9c10.5,24.6,33.9,30.2,40.5,31.4c3.5,7.2,10.5,14.5,24.3,18.9
		c6.6,2.1,13.4,3.4,17.5,4.1c-3.1,10-5,19.3-3.2,22.7c1.8,3.4,5.4,5.3,10,5.3c0.1,0,0.1,0,0.2,0c2.5,0,7.5-0.9,9-3.8
		c6.2-12.5,22.7-43,35.2-59.4c0.6,0,1.2,0,1.8,0c45.2,0,63.1-25.9,67.7-34.2c1.4,0.1,2.8,0.2,4.2,0.2c7.8,0,15.9-2.2,22-8.8
		c5.1-5.6,8.4-11,10.3-16.3C318.8,194.7,329,186.9,328.2,164.9z M312.3,165.7c-0.8-1.6-2.7-2.2-4.3-1.4c-1.6,0.8-2.2,2.7-1.4,4.3
		c7.1,14.2,4.8,27.7-6.8,40.2c-5.8,6.2-14,7.3-21.7,6.5c-0.1-0.1-0.2-0.1-0.3-0.2c-0.7-0.3-1.4-0.3-2-0.2c-9.7-1.5-17.8-5.7-18-5.8
		c-1.6-0.8-3.5-0.2-4.3,1.3c-0.8,1.6-0.2,3.5,1.3,4.3c0.6,0.3,7.6,3.9,16.6,5.9c-5.3,8.4-21.2,27.5-57.2,28.8c1.9-1.9,3.5-3.2,5-3.8
		c1.6-0.7,2.4-2.6,1.7-4.2c-0.7-1.6-2.6-2.4-4.2-1.7c-3.3,1.4-7.2,5.3-11.5,10.5c-0.3,0.2-0.5,0.5-0.7,0.9
		c-15.3,19.3-33.9,55.8-36.4,60.8c-0.9,0.4-3.4,1-5.6,0.5c-1.7-0.4-2.3-1.3-2.5-1.6c-0.7-2.3,1.5-11,4.8-21.3c0-0.1,0.1-0.2,0.1-0.3
		c1.9-6,4.3-12.6,6.6-18.6c0.6-1.6-0.2-3.5-1.8-4.1c-1.6-0.6-3.5,0.2-4.1,1.8c-1.8,4.7-4,10.6-6,16.5c-3.7-0.6-10.8-1.9-17.6-4
		c-27.6-8.8-22.9-30.4-22.7-31.3c0.4-1.7-0.6-3.4-2.4-3.8c-1.7-0.4-3.4,0.6-3.9,2.4c0,0.1-1.3,5.8,0.2,12.9
		c-8.1-2.1-24.4-8.5-32.2-26.8c-11.5-27.1,11.7-42.4,14.3-44.1c1.5-0.9,2-2.9,1-4.4c-0.9-1.5-2.9-2-4.4-1c-1.1,0.7-5.2,3.3-9.4,7.9
		c-0.9-12.1,0-38,21.9-48.9c-0.4,8.3,1.3,14.5,1.4,14.6c0.4,1.4,1.7,2.3,3.1,2.3c0.3,0,0.6,0,0.9-0.1c1.7-0.5,2.7-2.3,2.2-4
		c0-0.1-2.4-8.5-0.5-18.7c2.5-13.5,11.2-23.4,25.8-29.3c34.8-14,47.1-0.1,47.6,0.5c1.1,1.4,3.1,1.6,4.5,0.5s1.6-3.1,0.5-4.5
		c-0.3-0.4-4.7-5.6-14.8-7.9c4.4-4,13.9-9.8,31.7-9.8c0.5,0,1,0,1.5,0c28.6,0.5,45.6,14.1,45.8,14.2c1.4,1.1,3.4,0.9,4.5-0.4
		c1.1-1.4,0.9-3.4-0.5-4.5c0,0-0.2-0.1-0.3-0.3c10.1,0.8,25.3,3.8,36.8,14c19.3,17.1,26.1,30.9,27,54.9c0.4,10.9-2.2,17.5-4.9,21.3
		C317.4,178.5,315.1,171.4,312.3,165.7z"/>
	<path d="M166.1,238.5C166.1,238.5,166.1,238.5,166.1,238.5c-0.2,0-12.7-0.1-19.3-9.3c-2.8-3.9-4.2-8.9-4.3-14.9c0-0.2,0-0.4,0-0.7
		c0-6.1,1.4-13.2,4.1-21.3c10.1-0.6,19.2-8.6,27.1-23.7c0.8-1.6,0.2-3.5-1.3-4.3c-1.6-0.8-3.5-0.2-4.3,1.3
		c-6.9,13-14.2,19.9-21.9,20.3c-11,0.6-19.9-12.3-20-12.4c-1-1.5-3-1.9-4.4-0.9c-1.5,1-1.9,3-0.9,4.4c0.4,0.6,8,11.7,19.2,14.6
		c-2,6.3-3.3,12.1-3.8,17.3c-11.9-5.5-20.9-5.9-26.7-1.4c-10.5,8.2-5.9,28.5-5.3,30.8c0.4,1.5,1.7,2.4,3.1,2.4c0.3,0,0.5,0,0.8-0.1
		c1.7-0.4,2.8-2.1,2.3-3.9c-1.3-5.1-3.1-19.4,3-24.2c4.1-3.2,11.9-2,22.7,3.4c0.3,6.7,2.1,12.3,5.5,17c1.7,2.3,3.6,4.1,5.6,5.6
		c-5.1,10.6-1,26.6-0.8,27.3c0.4,1.4,1.7,2.4,3.1,2.4c0.3,0,0.5,0,0.8-0.1c1.7-0.4,2.7-2.2,2.3-3.9c-1.1-4.2-2.9-15.4,0.2-22.4
		c6.5,2.9,12.6,3,13.4,3c0,0,0,0,0.1,0c1.8,0,3.2-1.5,3.2-3.2C169.3,239.9,167.8,238.5,166.1,238.5z"/>
	<path d="M193,220.1c1.1-1.3,1-3.3-0.4-4.5c-1.3-1.1-3.4-1-4.5,0.4c-0.2,0.2-15,18.1,4,41.4c0.6,0.8,1.5,1.2,2.5,1.2
		c0.7,0,1.4-0.2,2-0.7c1.4-1.1,1.6-3.1,0.4-4.5C181.6,234.3,192.5,220.7,193,220.1z"/>
	<path d="M290.3,179.9c-0.3,0.1-27.9,7.6-35.8-8.3c0.2-0.4,0.4-0.7,0.6-1.1c6.7-14.2,1.2-28.2,1-28.8c-0.7-1.6-2.5-2.4-4.2-1.8
		c-1.6,0.7-2.4,2.5-1.8,4.2c0,0.1,4.7,12-0.8,23.7c-5,10.6-12.3,11.7-26.9,13.7c-1.1,0.2-2.3,0.3-3.5,0.5c-8.2,1.2-14.4,5-17.5,10.5
		c-9.7-1.8-17.8-0.4-24.1,4.1c-10.3,7.5-11.6,20.6-11.7,21.2c-0.2,1.8,1.1,3.3,2.9,3.5c0.1,0,0.2,0,0.3,0c1.6,0,3-1.2,3.2-2.9
		c0-0.1,1.1-10.8,9.1-16.6c4.6-3.3,10.8-4.4,18.3-3.2c-0.8,6.3,1.8,13.3,7.5,19.7c3.9,4.4,7.9,5.5,11,5.5c0.4,0,0.8,0,1.1-0.1
		c11-1,19.9-15.4,20.9-17c0.9-1.5,0.4-3.5-1.1-4.4c-1.5-0.9-3.5-0.4-4.4,1.1c-2.2,3.7-9.4,13.4-16,13.9c-2.4,0.2-4.6-0.9-6.7-3.3
		c-5.2-6-7.2-12.2-5.4-17.1c1.7-4.6,6.6-7.8,13.5-8.8c1.2-0.2,2.4-0.3,3.5-0.5c12.1-1.7,20.9-3,27.3-10.3
		c5.9,8.6,16.3,10.7,25.2,10.7c8.5,0,15.7-2,16.3-2.1c1.7-0.5,2.7-2.2,2.2-3.9C293.8,180.4,292,179.4,290.3,179.9z"/>
	<path d="M306.1,130.2c-3.6-0.8-19.5-4-26.3,2.4c-10.7-8.5-23.3-8.5-23.5-8.5c-1.8,0-3.2,1.5-3.1,3.2c0,1.7,1.5,3.1,3.2,3.1
		c0,0,0,0,0,0c1.1,0,28,0,31.6,31.8c0.2,1.6,1.6,2.8,3.2,2.8c0.1,0,0.2,0,0.4,0c1.8-0.2,3-1.8,2.8-3.5c-1.2-11.2-5.1-19-9.9-24.5
		c3.3-2.6,13.2-2.2,20.2-0.6c1.7,0.4,3.4-0.7,3.8-2.4C308.9,132.3,307.8,130.5,306.1,130.2z"/>
	<path d="M249.2,119.7c0.3,0.1,0.6,0.1,0.8,0.1c1.4,0,2.7-0.9,3.1-2.4c0.5-1.7-0.5-3.5-2.2-3.9c-4.3-1.2-16.1-5.8-19.2-12.7
		c-0.7-1.6-2.6-2.4-4.2-1.7c-1.6,0.7-2.4,2.6-1.7,4.2C230.7,114.5,248.4,119.5,249.2,119.7z"/>
	<path d="M142,164.9c0.3,0.1,0.6,0.2,1,0.2c1.4,0,2.6-0.9,3-2.2c0.1-0.2,7.2-21.9,29.8-23.5c16.1-1.2,24.9,4.8,27.4,6.8
		c-1.6,5.9-2.1,12.7-1.2,20.6c0.2,1.6,1.6,2.9,3.2,2.9c0.1,0,0.2,0,0.3,0c1.8-0.2,3-1.8,2.8-3.5c-1.4-12.9,0.9-22.5,6.7-28.5
		c7.4-7.8,18.5-7.2,18.7-7.2c1.8,0.1,3.3-1.2,3.4-3c0.1-1.8-1.2-3.3-3-3.4c-0.6,0-14.1-0.9-23.7,9.1c-1.9,2-3.5,4.3-4.9,6.9
		c-4.5-3.1-14.1-8-29.3-7.1c-2.7-14.1-13.1-20-18.6-21.2c-1.7-0.4-3.4,0.7-3.8,2.5c-0.4,1.7,0.7,3.4,2.4,3.8
		c0.5,0.1,11,2.6,13.6,15.7c-22.7,4.6-29.8,26.2-30.2,27.2C139.4,162.5,140.4,164.3,142,164.9z"/>
</g>
</svg>
