<?xml version="1.0" encoding="utf-8"?>
<!-- Generator: Adobe Illustrator 21.1.0, SVG Export Plug-In . SVG Version: 6.00 Build 0)  -->
<svg version="1.1" xmlns="http://www.w3.org/2000/svg" xmlns:xlink="http://www.w3.org/1999/xlink" x="0px" y="0px"
	 viewBox="0 0 400 400" style="enable-background:new 0 0 400 400;" xml:space="preserve">
<g id="Cirlce">
	<g>
		<path d="M200,20.1c48.1,0,93.2,18.7,127.2,52.7c34,34,52.7,79.2,52.7,127.2s-18.7,93.2-52.7,127.2c-34,34-79.2,52.7-127.2,52.7
			s-93.2-18.7-127.2-52.7c-34-34-52.7-79.2-52.7-127.2s18.7-93.2,52.7-127.2C106.8,38.8,151.9,20.1,200,20.1 M200,0.1
			C89.6,0.1,0.1,89.6,0.1,200S89.6,399.9,200,399.9S399.9,310.4,399.9,200S310.4,0.1,200,0.1L200,0.1z"/>
	</g>
</g>
<g id="Engineering_World_Health">
	<path d="M273.4,240.2c3,3.1,3.3,7.2,0.1,11.3c-3,4-6.4,7.8-10.1,11.2c-17.1,15.6-37.6,23.1-60.4,24.6c-21,1.4-39.8-4-55.8-17.8
		c-3.9-3.3-7.1-7.4-10.3-11.4c-2.2-2.8-3.6-6.1-9.2-4.4c1-2.7,1.6-4.3,2.2-6.2c-1.3-5-2.8-10.8-4.4-16.8c-1.3-0.1-2.7-0.2-4.6-0.4
		c-0.1-1.4-0.1-2.7-0.2-3.6c1.7-1,3-1.7,4.4-2.5c-1.2-0.6-2.4-1.2-4.1-2.1c0-0.9,0-2.3,0-3.9c1.3-0.2,2.6-0.5,3.9-0.7
		c0.1-0.4,0.3-0.7,0.4-1.1c-1.4-0.6-2.8-1.2-4.5-1.9c0-1,0-2.4,0-3.9c1.4-0.2,2.7-0.4,4-0.6c1.2-6.6,2.1-13.1,3.6-19.6
		c2.9-11.9,7.7-23.1,14.5-33.3c0.7-1,0.9-2.3,1-3.5c0.1-1.3-0.2-2.6-0.3-3.9c7-1.5,7-1.5,7.9-7.6c6.9-1.7,7-1.8,7.8-8.3
		c5.7,1.4,9-3,13.1-5.5c19.2-11.8,40-16.8,62.5-15.3c10.4,0.7,20.4,2.7,29.6,7.8c7.6,4.2,13.4,10.1,17.4,17.8c0.8,1.5,2.4,2.7,3.7,4
		c0.4-0.1,0.7-0.2,1.1-0.3c-0.4,1.4-1.1,2.8-1.2,4.3c-0.1,1.1,0.7,2.2,0.7,3.4c0,6.4-0.1,12.7-0.3,19.1c0,0.5-0.5,1-0.4,1.4
		c0.2,1.8,1.1,3.7,0.6,5.3c-0.3,1.2-2.3,1.9-4.1,3.2c1.9,0.6,3,1,4.7,1.6c-0.5,1.5-0.7,3.6-1.6,4c-1.2,0.5-3-0.4-5.5-0.9
		c-0.5,2.3-1.1,5.3-1.7,8.4c-6.4,1.1-6.4,1.1-7.2,7.4c-7.1,1.9-7.1,1.9-7.9,8.4c-1.6-0.5-3-1.1-4.5-1.4c-0.6-0.1-1.4-0.1-2,0.2
		c-8.2,3.8-16.3,7.6-24.1,11.3c0.1,1.2,0.5,2.8,0.2,4.3c-0.1,0.5-2.3,1.2-2.8,0.8c-1.2-0.9-1.8-2.4-3.2-4.4
		c-0.7,1.3-1.4,2.7-2.5,4.9c-1.5-0.7-3.1-1.4-4.8-2.2c0-0.4,0.1-0.8,0.1-1.2c-0.7,0.6-1.3,1.2-2,1.8c-0.5,0.4-1.1,1.2-1.6,1.1
		c-11-1.5-21.9,1.6-33.4,0.7c0.8-2.8,1.5-5.3,2-6.8c-1-2-1.9-3.3-2.3-4.7c-0.1-0.5,0.8-1.9,1.2-1.9c1.6,0.1,3.1,0.7,5.7,1.3
		c1.3-0.7,3.5-3.3,6.3-0.1c0.1,0.1,0.2,0.1,0.4,0c6.6-1,13.1-2.1,18.9-3c-0.9-2-1.6-3.6-2.6-5.8c2.3-0.1,3.6-0.2,5.2-0.2
		c0.2,1.5,0.4,2.8,0.6,4.1c0.3,0.2,0.6,0.4,0.9,0.5c0.8-1.3,1.6-2.7,2.7-4.6c6.1,1.2,12.4,1.2,14.9-7.6c1.2,0.1,2.9,0.5,4.3,0.1
		c1.5-0.3,2.7-1.4,3.5-1.8c-0.3-2.3-0.6-3.9-1-6.4c2.4,0.4,4,0.6,6.3,0.9c1.3-1.1,1.3-1.1,2-8c5.9,0.3,5.8-4.5,6.7-8.3
		c1-4.5,0.4-8.9-1.8-13.4c-0.2,3.9-2.4,3.6-5,2.8c0-1.4,0-2.7,0-4.3c1.2-0.1,2.4-0.3,4.3-0.5c-2.4-2.3-4.5-4.2-7-6.5
		c-0.2,1.4-0.4,2.4-0.6,3.7c-1.4,0-2.8,0-4.9,0c0.3-1.8,0.5-3.4,0.9-5.5c-6.3-2.4-13.7-2.2-21-1.6c-2.7,0.2-5.4,0.9-8.1,1.4
		c-3.1,0.6-6,1.3-4.8,6.8c-2.6-1-4.4-1.7-7-2.8c-5.6,3.3-12.3,7.1-18.1,10.5c1.1,2.6,1.9,4.3,2.6,6c-4.8,1.4-4.9,1.3-6.3-2
		c-13,12.6-21.2,27.4-22.7,45.5c-1.2,14.2,1.3,27.6,10.4,39c8.5,10.7,19.9,16.5,33.4,17.4c25.6,1.6,47.8-7,66.8-24.1
		C270.6,242.6,272,241.4,273.4,240.2z"/>
	<path d="M197.7,177.1c0-2,0-3.4,0-5.6c1.7,0.4,3.3,0.3,4.4,1.1c0.6,0.5,0.6,2.9,0,3.4C201.1,176.8,199.5,176.7,197.7,177.1z"/>
	<path d="M141.7,136.9c-1,0.5-2.2,1.7-3.1,1.5c-1-0.2-1.7-1.6-2.5-2.5c0.8-0.8,1.6-2.1,2.5-2.1c1-0.1,2.1,0.9,3.1,1.5
		C141.7,135.8,141.7,136.3,141.7,136.9z"/>
	<path d="M228.2,192.6c0-2.3,0-3.6,0-5.6c1.7,0.3,3.3,0.2,4.6,0.9c0.5,0.2,0.6,2.6,0.1,3C231.8,191.7,230.2,191.9,228.2,192.6z"/>
	<path d="M82.5,161.6c0.1-2.3,0.2-3.5,0.3-5.3c1.7,0.4,3.4,0.3,4.6,1.1c0.5,0.4,0.5,3-0.1,3.3C86.1,161.4,84.4,161.3,82.5,161.6z"/>
	<path d="M95.1,156.6c0,2.5,1.2,4.9-2.4,4.9c-1.9,0-2.7-0.8-2.6-2.7C90.4,155.1,92.9,156.9,95.1,156.6z"/>
	<path d="M240,191.9c-1.7-0.2-4.4,1.4-4.5-2.3c-0.1-2.3,1.5-3.1,3-2.4c1.2,0.6,1.9,2.5,2.8,3.8C240.9,191.3,240.5,191.6,240,191.9z"
		/>
	<path d="M82.7,192c-0.1-2.5-1.2-5.2,2.4-4.8c0.9,0.1,2.4,1.7,2.4,2.6C87.6,193.5,84.9,191.6,82.7,192z"/>
	<path d="M225.8,175c-1,0.6-1.9,1.6-3,1.8c-2,0.4-2.9-0.9-2.4-2.6c0.3-1,1.4-2.2,2.2-2.3c0.9-0.1,2,0.9,3.1,1.5
		C225.8,173.9,225.8,174.4,225.8,175z"/>
	<path d="M286.5,187c0,2,0,3.3,0,5.2c-1.8-0.3-3.4-0.3-4.6-1.1c-0.5-0.4-0.5-3,0-3.3C283.2,187.2,284.8,187.3,286.5,187z"/>
	<path d="M289.7,177.2c0-2.3,0-3.7,0-5.7c1.7,0.4,3.4,0.3,4.3,1.1c0.6,0.5,0.6,2.9,0,3.4C293.1,176.8,291.4,176.7,289.7,177.2z"/>
	<path d="M347.8,276.2c-2.4-0.1-5.2,1.2-4.8-2.4c0.1-0.9,1.6-2.5,2.5-2.5C349.3,271.2,347.5,274,347.8,276.2z"/>
	<path d="M324.6,171.3c0,2.2,0,3.6,0,5.7c-1.7-0.4-3.3-0.4-4.4-1.2c-0.5-0.3-0.6-2.6-0.1-3C321.2,172,322.8,171.9,324.6,171.3z"/>
	<path d="M120.9,263.7c2.4,0.1,5.2-1.2,4.8,2.4c-0.1,0.9-1.6,2.5-2.5,2.5C119.5,268.8,121.3,266,120.9,263.7z"/>
	<path d="M187.7,187.4c-0.6,2-0.6,3.6-1.4,4.3c-0.7,0.6-2.9,0.6-3.4,0c-0.8-0.9-0.7-2.6-1.1-4.3
		C183.9,187.4,185.4,187.4,187.7,187.4z"/>
	<path d="M315.6,217.2c0.6,1,1.7,2.1,1.6,3c-0.1,0.9-1.2,2.2-2.1,2.5c-1.6,0.5-3-0.3-2.6-2.3c0.2-1.1,1-2.1,1.5-3.2
		C314.4,217.2,315,217.2,315.6,217.2z"/>
	<path d="M329.4,261.4c-0.6-1-1.6-1.9-1.8-3c-0.4-2,0.9-2.9,2.6-2.4c1,0.3,2.2,1.4,2.3,2.2c0.1,0.9-0.9,2-1.5,3.1
		C330.5,261.4,329.9,261.4,329.4,261.4z"/>
	<path d="M121,276.2c0.3-2.1-1.6-4.7,2.2-5c1.8-0.2,2.7,0.5,2.7,2.5C125.9,277.3,123.5,276.2,121,276.2z"/>
	<path d="M228.3,156.3c1.7,0.4,3.3,0.4,4.5,1.1c0.5,0.3,0.6,2.7,0.1,3c-1.1,0.8-2.7,0.9-4.6,1.4
		C228.3,159.7,228.3,158.3,228.3,156.3z"/>
	<path d="M240.5,156c0,2.3,0,3.6,0,5.6c-1.7-0.3-3.3-0.3-4.5-0.9c-0.5-0.3-0.6-2.6-0.2-3C236.9,156.8,238.5,156.6,240.5,156z"/>
	<path d="M330.7,156c0.7,1,1.7,1.8,2,2.9c0.5,1.9-0.7,2.9-2.5,2.5c-1-0.2-2.3-1.3-2.4-2.2c-0.2-0.9,0.9-2.1,1.4-3.1
		C329.6,156.1,330.1,156,330.7,156z"/>
	<path d="M248.8,175.3c-1,0.5-2.2,1.5-3.1,1.4c-0.9-0.1-1.9-1.4-2.2-2.4c-0.5-1.8,0.5-3,2.4-2.5c1.1,0.3,1.9,1.2,2.9,1.9
		C248.8,174.2,248.8,174.8,248.8,175.3z"/>
	<path d="M79.6,177.1c-1.7-0.4-3.4-0.3-4.3-1.1c-0.6-0.5-0.6-2.8,0-3.4c0.9-0.8,2.6-0.8,4.3-1.3C79.6,173.5,79.6,175,79.6,177.1z"/>
	<path d="M98.2,177.1c0-2,0-3.4,0-5.6c1.7,0.4,3.3,0.3,4.4,1.1c0.6,0.5,0.6,2.9,0,3.4C101.6,176.8,100,176.7,98.2,177.1z"/>
	<path d="M128.8,133.8c1.5,0,2.8,0,4.3,0c0,1.6,0,3,0,4.4C128.4,138.8,128.3,138.8,128.8,133.8z"/>
	<path d="M144.2,133.8c1.6,0,2.9,0,4.5,0c0,1.5,0,2.8,0,4.4c-1.4,0-2.8,0-4.5,0C144.2,136.9,144.2,135.5,144.2,133.8z"/>
	<path d="M241.3,169.4c-2.5-0.5-4.2-0.5-5.4-1.3c-0.5-0.3-0.3-2.6,0.3-3.3c0.6-0.7,2.9-1,3.3-0.5
		C240.4,165.3,240.5,166.9,241.3,169.4z"/>
	<path d="M289.6,133.8c1.6,0,2.9,0,4.5,0c0,1.5,0,2.8,0,4.6c-1.4,0.1-2.8,0.1-4.5,0.2C289.6,136.9,289.6,135.5,289.6,133.8z"/>
	<path d="M79.6,179.5c0,2,0,3.3,0,4.9c-1.6,0-2.9,0-4.5,0c-0.1-1.3-0.2-2.5-0.4-4.3C76.4,179.8,77.8,179.7,79.6,179.5z"/>
	<path d="M83.2,179.3c1.4,0.4,3.1,0.5,4.2,1.3c0.5,0.4,0.2,2.5-0.4,3.3c-0.5,0.6-2.6,0.9-3,0.4c-0.9-1-1.2-2.6-1.7-3.9
		C82.5,180.1,82.9,179.7,83.2,179.3z"/>
	<path d="M271.1,210.3c0,1.4,0,2.7,0,4.3c-1.4,0-2.8,0-4.5,0c0-1.4,0-2.7,0-4.3C268,210.3,269.4,210.3,271.1,210.3z"/>
	<path d="M95.6,180.5c-0.6,1.3-0.9,2.9-1.8,3.9c-0.4,0.5-2.6,0.2-3-0.4c-0.6-0.8-0.9-3-0.4-3.3c1.1-0.8,2.8-0.9,4.2-1.2
		C95,179.7,95.3,180.1,95.6,180.5z"/>
	<path d="M102.6,184.3c-1.5,0-2.8,0-4.4,0c0-1.5,0-2.9,0-4.5c1.5,0,2.8,0,4.4,0C102.6,181.3,102.6,182.7,102.6,184.3z"/>
	<path d="M335.2,256.1c2.1,0,3.3,0,4.9,0c0.1,1.4,0.1,2.7,0.2,4.5c-1.6,0-3.5,0.5-4.3-0.2C335.3,259.8,335.5,257.9,335.2,256.1z"/>
	<path d="M289.7,223.2c0-2.2,0-3.6,0-5.7c1.7,0.4,3.2,0.4,4.4,1.1c0.5,0.3,0.6,2.6,0.1,3C293.1,222.5,291.5,222.6,289.7,223.2z"/>
	<path d="M320.3,260.7c-0.7-4.8-0.7-4.9,4.3-4.4c0,1.4,0,2.8,0,4.4C323,260.7,321.6,260.7,320.3,260.7z"/>
	<path d="M181.7,179.8c2.1,0,3.6,0,5.7,0c-0.4,1.7-0.4,3.2-1.1,4.4c-0.3,0.5-2.6,0.6-3,0.1C182.4,183.2,182.2,181.6,181.7,179.8z"/>
	<path d="M128.7,260.5c0-1.5,0-2.8,0-4.3c1.5,0,2.8,0,4.1,0C134,260.8,133.6,261.3,128.7,260.5z"/>
	<path d="M190.1,184.1c-0.1-1.3-0.1-2.6-0.2-4.3c1.6,0,3,0,4.4,0C195.1,184.6,194.9,184.8,190.1,184.1z"/>
	<path d="M225,184.4c-1.5,0-2.7,0-4.4,0c-0.1-1.5-0.1-2.9-0.2-4.6c1.6-0.1,2.9-0.1,4.6-0.2C225,181.2,225,182.6,225,184.4z"/>
	<path d="M49.1,161c-4.8,0.8-5.2,0.4-4.1-4.3c1.3,0,2.6,0,4.1,0C49.1,158.2,49.1,159.5,49.1,161z"/>
	<path d="M98.2,169c0-1.9,0-3.2,0-4.5c4.7-0.9,4.9-0.8,4.5,4.2C101.4,168.8,100,168.9,98.2,169z"/>
	<path d="M241,180.2c-0.4,1.4-0.6,3-1.5,4c-0.5,0.5-2.5,0.2-3.3-0.5c-0.6-0.5-0.8-2.7-0.4-3c1.1-0.8,2.7-1.1,4.1-1.6
		C240.2,179.6,240.6,179.9,241,180.2z"/>
	<path d="M243.6,184.3c0-1.7,0-3,0-4.5c1.6,0,3.1,0,4.5,0c0,1.6,0,2.9,0,4.5C246.6,184.3,245.3,184.3,243.6,184.3z"/>
	<path d="M128.2,156.7c2.1,0,3.4,0,5.4,0c-0.4,1.7-0.5,3.3-1.2,4.5c-0.3,0.5-2.6,0.5-3-0.1C128.7,160.1,128.7,158.5,128.2,156.7z"/>
	<path d="M289.4,179.8c1.9,0,3.2,0,4.8,0c0,1.5,0,2.8,0,4.5c-1.4,0.1-2.7,0.1-4.4,0.2C289.6,182.9,289.5,181.5,289.4,179.8z"/>
	<path d="M335.7,233.3c1.6,0,2.9,0,4.4,0c0,1.6,0,2.9,0,4.5c-1.5,0.1-2.8,0.1-4.4,0.2C335.7,236.4,335.7,235,335.7,233.3z"/>
	<path d="M320.2,233.3c1.4-0.1,2.7-0.1,4.3-0.2c0,1.7,0,3.1,0,4.7c-1.4,0-2.7,0-4.3,0C320.2,236.4,320.2,235,320.2,233.3z"/>
	<path d="M243.3,164.3c1.9,0,3.2,0,4.8,0c0.1,1.3,0.2,2.5,0.4,4.4c-1.6,0-3.5,0.5-4.4-0.2C243.3,167.9,243.6,165.9,243.3,164.3z"/>
	<path d="M202.3,225.2c0,2.2,0,3.4,0,5.3c-1.6-0.3-3.2-0.2-4.4-0.9c-0.5-0.3-0.6-2.7-0.2-3C198.8,225.8,200.4,225.7,202.3,225.2z"/>
	<path d="M289.6,169c0-1.9,0-3.2,0-4.5c4.8-0.8,4.9-0.7,4.5,4.3C292.8,168.8,291.4,168.9,289.6,169z"/>
	<path d="M98,225.7c1.9,0,3.2,0,4.5,0c0.8,4.7,0.6,4.9-4.3,4.3C98.1,228.7,98,227.4,98,225.7z"/>
	<path d="M325.3,221c-1,0.6-2.1,1.9-3,1.7c-1-0.2-2.1-1.6-2.3-2.6c-0.1-0.6,1.4-2.1,2.2-2.2c0.9-0.1,2,1,3,1.6
		C325.3,219.9,325.3,220.4,325.3,221z"/>
	<path d="M324.6,179.3c0,2.2,0,3.5,0,5.4c-1.7-0.3-3.3-0.2-4.3-1c-0.6-0.5-0.7-2.9-0.1-3.4C321.2,179.6,322.8,179.7,324.6,179.3z"/>
	<path d="M179.1,214.8c-1.6,0-2.9,0-4.5,0c0-1.5,0-2.8,0-4.4c1.4,0,2.8,0,4.5,0C179.1,211.7,179.1,213,179.1,214.8z"/>
	<path d="M85.3,170.6c-1.4-1.9-2.4-2.8-2.7-3.7c-0.4-1.7,0.3-3.3,2.3-2.7c1.1,0.3,2.3,1.5,2.6,2.5C87.8,167.4,86.6,168.5,85.3,170.6
		z"/>
	<path d="M79.7,164.3c0,1.7,0,3,0,4.5c-1.6,0-3.1,0-4.5,0c0-1.6,0-2.9,0-4.5C76.7,164.3,78,164.3,79.7,164.3z"/>
	<path d="M225.1,233.1c0,1.9,0,3.3,0,4.8c-1.6,0-2.9,0-4.5,0c0-1.4,0-2.8,0-4.5C222,233.2,223.4,233.1,225.1,233.1z"/>
	<path d="M335.6,225.8c1.7,0,3,0,4.3,0c0.7,4.7,0.5,4.9-4.3,4.2C335.6,228.7,335.6,227.4,335.6,225.8z"/>
	<path d="M102.6,214.7c-1.4,0-2.7,0-4.3,0c0-1.4,0-2.8,0-4.5c1.4,0,2.7,0,4.3,0C102.6,211.7,102.6,213.1,102.6,214.7z"/>
	<path d="M227.5,179.1c2.6,0.6,4.2,0.6,5.4,1.4c0.5,0.3,0.3,2.7-0.3,3.3c-0.7,0.7-2.9,0.9-3.3,0.4
		C228.3,183.2,228.2,181.6,227.5,179.1z"/>
	<path d="M225.1,164.3c0,1.5,0,2.8,0,4.4c-1.5,0-2.8,0-4.1,0C219.7,164.4,220.1,163.9,225.1,164.3z"/>
	<path d="M194.3,168.8c-1.3,0-2.6,0-4.1,0c0-1.6,0-3,0-4.4C194.9,163.8,195.1,164,194.3,168.8z"/>
	<path d="M197.8,164.2c1.5,0,2.7,0,4.3,0c0,1.5,0,2.9,0,4.6c-1.3,0-2.6,0-4.3,0C197.8,167.4,197.8,166,197.8,164.2z"/>
	<path d="M94,169.6c-1.3-0.9-3.3-1.6-3.8-2.8c-0.8-1.9,0.6-2.9,2.7-2.8c3.6,0.2,1.8,2.7,2.3,4.3C94.9,168.7,94.5,169.2,94,169.6z"/>
	<path d="M221.3,225c1.3,0.8,3.3,1.4,3.9,2.5c0.8,1.6-0.1,2.9-2.4,2.9c-3.5-0.1-2-2.5-2.4-4.1C220.7,225.9,221,225.4,221.3,225z"/>
	<path d="M294.2,210.2c0,1.7,0,2.9,0,4.5c-1.5,0.1-2.9,0.1-4.6,0.2c0-1.8,0-3.2,0-4.7C291.2,210.2,292.5,210.2,294.2,210.2z"/>
	<path d="M227.5,169.4c0.8-2.4,0.9-4.1,1.8-5.1c0.5-0.5,2.7-0.3,3.3,0.4c0.6,0.7,0.8,3,0.3,3.3C231.7,168.8,230,168.8,227.5,169.4z"
		/>
	<path d="M156.2,133.8c0.1,0.8,0.2,1.4,0.2,2c0,0.7-0.1,1.5-0.2,2.4c-1.4,0-2.8,0-4.5,0c-0.1-1.4-0.1-2.8-0.2-4.4
		C153.3,133.8,154.7,133.8,156.2,133.8z"/>
	<path d="M75.1,187.5c5-0.8,5.4-0.3,4.2,4.4c-0.8,0-1.7,0.1-2.6,0.1c-0.5,0-0.9-0.1-1.5-0.3c-0.1-0.6-0.3-1-0.3-1.5
		C74.9,189.4,75,188.5,75.1,187.5z"/>
	<path d="M121.2,279.3c1.4,0,2.7,0,4.3,0c0,1.4,0,2.8,0,4.5c-1.4,0-2.7,0-4.3,0C121.2,282.4,121.2,280.9,121.2,279.3z"/>
	<path d="M174.7,187.6c4.6-1.1,5-0.7,4.2,4.2c-1.3,0-2.6,0-4.2,0C174.7,190.4,174.7,189,174.7,187.6z"/>
	<path d="M331.2,263.3c0.5,1.1,1.5,2.3,1.3,3.2c-0.2,0.9-1.8,2.3-2.4,2.1c-1-0.3-2.3-1.6-2.4-2.6c-0.1-0.9,1.2-1.9,1.9-2.9
		C330.1,263.2,330.7,263.2,331.2,263.3z"/>
	<path d="M195.1,191.9c-2.2,0-3.5,0-5.4,0c0.4-1.7,0.5-3.3,1.2-4.5c0.3-0.5,2.6-0.5,3,0.1C194.6,188.5,194.6,190,195.1,191.9z"/>
	<path d="M312.3,256.2c1.8,0,3.1,0,4.4,0c1.2,4.7,0.8,5.1-4.2,4.3C312.4,259.3,312.4,258,312.3,256.2z"/>
	<path d="M121.1,260.5c0-1.5,0-2.8,0-4.3c1.5,0,2.9,0,4.2,0C126.5,260.8,126.1,261.3,121.1,260.5z"/>
	<path d="M74.9,160.8c0.1-1.5,0.2-2.7,0.3-4.1c1.5,0,2.9,0,4.2,0C80.5,161.4,79.8,162.1,74.9,160.8z"/>
	<path d="M102.9,161.1c-1,0.2-1.6,0.3-2.2,0.4c-0.7,0-1.5-0.1-2.5-0.2c0-1.5,0-2.9,0-4.5c1.5,0,2.8,0,4.5,0
		C102.8,158.1,102.9,159.4,102.9,161.1z"/>
	<path d="M312.5,168.6c0-1.4,0-2.7,0-4.2c1.5,0,2.9,0,4.3,0C317.8,169,317.4,169.4,312.5,168.6z"/>
	<path d="M125.6,233c0,1.9,0,3.2,0,4.8c-1.6,0-2.9,0-4.5,0c-0.1-1.4-0.1-2.7-0.2-4.5C122.4,233.2,123.8,233.2,125.6,233z"/>
	<path d="M82.1,173.5c1-0.6,2.2-1.8,3.1-1.6c1,0.2,2.1,1.6,2.4,2.7c0.1,0.6-1.5,2.1-2.4,2.2c-1,0.1-2.1-1-3.1-1.6
		C82.1,174.6,82.1,174,82.1,173.5z"/>
	<path d="M95.7,175.3c-1.1,0.5-2.3,1.5-3.2,1.4c-0.9-0.1-2.3-1.8-2.2-2.4c0.3-1,1.5-2.3,2.5-2.5c0.9-0.1,2,1.2,2.9,1.8
		C95.7,174.2,95.7,174.8,95.7,175.3z"/>
	<path d="M224.9,191.9c-1.4,0-2.6,0-4.2,0c0-1.5,0-2.9,0-4.3C225.3,186.5,225.7,186.9,224.9,191.9z"/>
	<path d="M121,168.6c0-1.4,0-2.7,0-4.2c1.5,0,2.9,0,4.3,0C126.4,169,126,169.4,121,168.6z"/>
	<path d="M316.8,210.2c0.8,4.9,0.6,5-4.2,4.4c0-1.4,0-2.8,0-4.4C314,210.2,315.4,210.2,316.8,210.2z"/>
	<path d="M316.7,184.3c-1.3,0-2.6,0-4.1,0c0-1.5,0-2.9,0-4.2C317.2,178.9,317.9,179.6,316.7,184.3z"/>
	<path d="M327,225.8c2.4,0,3.9,0,6,0c-0.5,1.7-0.5,3.3-1.3,4.3c-0.4,0.5-2.6,0.6-3.1,0C327.8,229.2,327.7,227.6,327,225.8z"/>
	<path d="M181.6,173.4c1.1-0.6,2.2-1.6,3.1-1.6c0.9,0.1,2.4,1.6,2.3,2.2c-0.2,1-1.4,2.4-2.4,2.6c-0.9,0.2-2-1-3.1-1.6
		C181.6,174.5,181.6,174,181.6,173.4z"/>
	<path d="M289.6,191.8c0-1.5,0-2.8,0-4.4c1.6,0,3,0,4.6,0c0,1.6,0,2.9,0,4.4C292.7,191.8,291.4,191.8,289.6,191.8z"/>
	<path d="M198,237.7c-1.1-4.6-0.7-5.1,4.2-4.2c0,1.3,0,2.6,0,4.2C200.8,237.7,199.4,237.7,198,237.7z"/>
	<path d="M229.7,177.3c-0.5-1.1-1.6-2.2-1.5-3.2c0.1-0.9,1.7-2.4,2.3-2.2c1,0.2,2.4,1.4,2.6,2.4c0.2,0.9-1.1,2-1.7,3
		C230.8,177.3,230.2,177.3,229.7,177.3z"/>
	<path d="M294.1,161c-4.9,0.8-5.4,0.3-4.2-4.3c1.3,0,2.6,0,4.2,0C294.1,158.2,294.1,159.5,294.1,161z"/>
	<path d="M243.8,156.7c1.5,0,2.8,0,4.3,0c0,1.5,0,2.8,0,4.2C243.6,162.1,243.1,161.7,243.8,156.7z"/>
	<path d="M225.1,156.8c0,1.5,0,2.8,0,4.4c-1.6,0-3,0-4.6,0c0-1.6,0-2.9,0-4.4C222,156.8,223.3,156.8,225.1,156.8z"/>
	<path d="M241.1,175.3c-1.1,0.5-2.2,1.5-3.2,1.4c-0.9-0.1-2.4-1.8-2.2-2.3c0.3-1,1.5-2.3,2.5-2.5c0.9-0.1,2,1.2,2.9,1.8
		C241.2,174.2,241.2,174.8,241.1,175.3z"/>
	<path d="M202.2,187c0,1.9,0,3.2,0,4.8c-1.4,0-2.7,0-4.4,0c0-1.3-0.5-3.2,0.1-4C198.7,187,200.6,187.2,202.2,187z"/>
	<path d="M121.1,161.5c0-1.9,0-3.2,0-4.7c1.5,0,2.8,0,4.7,0c-0.1,1.5,0.3,3.3-0.5,4.1C124.5,161.6,122.6,161.3,121.1,161.5z"/>
	<path d="M197.4,156.7c1.9,0,3.2,0,4.8,0c0,1.4,0,2.7,0,4.6c-1.4-0.1-3.2,0.4-4-0.3C197.3,160.2,197.6,158.3,197.4,156.7z"/>
	<path d="M117.6,172c0.8,4.9,0.7,5-3.7,4.6C112.5,172.1,113,171.5,117.6,172z"/>
	<path d="M209.8,171.9c0,1.6,0,3,0,4.7c-1.5,0-2.8,0-4.3,0c0-1.6,0-3,0-4.7C207,171.9,208.2,171.9,209.8,171.9z"/>
	<path d="M213.1,172c4.7-0.5,4.8-0.3,4,4.6c-1.2,0-2.5,0-4,0C213.1,175.1,213.1,173.6,213.1,172z"/>
	<path d="M255.8,172c0,1.6,0,2.9,0,4.5c-1.4,0-2.7,0-4.3,0c0-1.4,0-2.8,0-4.5C252.8,172,254.1,172,255.8,172z"/>
	<path d="M296.2,176.6c1.2-2.1,1.7-4.1,2.9-4.7c1.7-0.8,2.8,0.3,2.8,2.5C301.9,177.8,299.7,176.8,296.2,176.6z"/>
	<path d="M229.8,154.1c-0.6-1-1.7-2.1-1.6-3c0.1-0.8,1.4-1.9,2.4-2.2c1.8-0.5,3,0.5,2.5,2.5c-0.2,1-1.2,1.8-1.8,2.7
		C230.8,154.2,230.3,154.2,229.8,154.1z"/>
	<path d="M82.7,200c0-2.2,0-3.4,0-5.2c1.7,0.3,3.3,0.2,4.6,0.9c0.5,0.2,0.6,2.7,0.1,3C86.3,199.4,84.7,199.5,82.7,200z"/>
	<path d="M182.3,195.1c1.6,0,3,0,4.7,0c0.1,1.4,0.1,2.6,0.2,3.8C182.5,200.4,181.9,200,182.3,195.1z"/>
	<path d="M190.2,194.8c1.8,0.1,3,0.2,4.4,0.3c0,1.5,0,2.8,0,4.4c-1.5,0-2.8,0-4.4,0C190.2,198,190.2,196.6,190.2,194.8z"/>
	<path d="M228.2,200c0-2.2,0-3.4,0-5.2c1.7,0.3,3.3,0.2,4.6,0.9c0.5,0.2,0.6,2.7,0.2,3C231.7,199.4,230.1,199.5,228.2,200z"/>
	<path d="M274.3,195c1.5,0,2.7,0,4.2,0c0,1.5,0,2.9,0,4.5c-1.4,0-2.7,0-4.2,0C274.3,197.9,274.3,196.5,274.3,195z"/>
	<path d="M283.4,200.1c-0.6-1-1.8-2-1.7-3c0.1-0.8,1.4-1.9,2.4-2.2c1.8-0.5,3,0.5,2.5,2.4c-0.2,1-1.1,1.8-1.7,2.7
		C284.4,200.1,283.9,200.1,283.4,200.1z"/>
	<path d="M95.1,202.2c0,2.1,0,3.3,0,5.2c-1.7-0.3-3.3-0.3-4.6-0.9c-0.5-0.2-0.5-2.7-0.1-3C91.6,202.7,93.2,202.6,95.1,202.2z"/>
	<path d="M182.3,207.4c-0.1-1.8-0.1-3-0.2-5c1.9,0.3,3.5,0.4,4.9,1c0.4,0.2,0.4,2.8,0,3C185.6,207,184,207.1,182.3,207.4z"/>
	<path d="M110.1,217.8c0.1,0.8,0.3,1.3,0.3,1.7c0,0.9-0.1,1.7-0.1,2.5c-4.4,1.5-5.1,0.8-4.1-4.2c0.4-0.1,0.9-0.2,1.4-0.2
		C108.3,217.7,109.1,217.8,110.1,217.8z"/>
	<path d="M113.7,218c4.6-0.5,4.7-0.3,4,4.3C113.3,223.3,112.9,222.9,113.7,218z"/>
	<path d="M305.1,217.8c1.4,0,2.6,0,4.1,0c0,1.6,0,3,0,4.4C304.8,223.4,304.4,223,305.1,217.8z"/>
	<path d="M240.1,245.8c-1.4-0.3-3.1-0.3-4.2-1.1c-0.5-0.3-0.3-2.7,0.3-3.3c0.7-0.7,2.7-0.9,3.4-0.3c0.9,0.7,1,2.4,1.4,3.6
		C240.7,245.1,240.4,245.4,240.1,245.8z"/>
	<path d="M327.7,245.4c0-1.5,0-2.8,0-4.3c1.6,0,3.1,0,4.7,0c0,1.5,0,2.8,0,4.3C330.8,245.4,329.4,245.4,327.7,245.4z"/>
	<path d="M228.2,253.4c0-2.1,0-3.3,0-5.1c1.7,0.3,3.3,0.3,4.6,1c0.5,0.3,0.6,2.7,0.1,3C231.7,252.9,230.1,253,228.2,253.4z"/>
	<path d="M332.5,248.4c0,1.7,0,2.9,0,4c-4.6,1.4-5.1,1-4.6-3.8C329.2,248.6,330.6,248.5,332.5,248.4z"/>
	<path d="M113,263.8c2.2,0,3.4,0,5.2,0c-0.3,1.7-0.3,3.3-1,4.6c-0.2,0.5-2.7,0.5-3,0.1C113.5,267.3,113.4,265.7,113,263.8z"/>
	<path d="M351.5,263.4c1.3,0.4,2.9,0.5,3.7,1.4c0.6,0.6,0.4,2.7-0.3,3.4c-0.6,0.7-3,0.8-3.3,0.4c-0.8-1.1-0.8-2.8-1.2-4.2
		C350.9,264,351.2,263.7,351.5,263.4z"/>
	<path d="M305,176.6c0-1.7,0-3.1,0-4.7c1.4,0,2.6,0,4.2,0c0,1.5,0,3,0,4.7C307.8,176.6,306.6,176.6,305,176.6z"/>
	<path d="M82.5,141.1c2.1,0.4,3.6,0.5,4.9,1.2c0.4,0.2,0.5,2.4,0,2.7c-1.2,0.8-2.7,1-4.6,1.7C82.7,144.6,82.6,143.3,82.5,141.1z"/>
	<path d="M95.1,145.9c-2.1-0.3-4.6,1.6-5-2.1c-0.2-2,0.8-2.5,2.6-2.5C96.2,141.2,95.1,143.6,95.1,145.9z"/>
	<path d="M82.8,153.9c0-1.8,0-3,0-4.9c1.5,0.2,3.2,0,4.4,0.6c0.5,0.3,0.7,3,0.2,3.3C86.2,153.6,84.5,153.5,82.8,153.9z"/>
	<path d="M95.5,149.6c-0.4,1.3-0.4,3.1-1.3,3.7c-0.8,0.6-2.7,0.2-3.7-0.4c-0.5-0.3-0.6-2.7-0.2-3c1.2-0.8,2.8-0.9,4.2-1.3
		C94.9,149,95.2,149.3,95.5,149.6z"/>
	<path d="M136.3,153.4c0-1.5,0-2.7,0-4.2c1.6,0,3,0,4.7,0c0,1.3,0,2.6,0,4.2C139.5,153.4,138.1,153.4,136.3,153.4z"/>
	<path d="M240.4,154.1c-1.9-0.6-3.4-0.8-4.6-1.5c-0.4-0.3-0.4-2.5,0.1-2.7c1.3-0.7,2.8-0.8,4.6-1.2
		C240.4,150.7,240.4,152.1,240.4,154.1z"/>
	<path d="M332.4,153.5c-1.7,0-3,0-4.6,0c0-1.5,0-2.8,0-4.3c1.5,0,2.9,0,4.6,0C332.4,150.5,332.4,151.8,332.4,153.5z"/>
	<path d="M67.5,171.9c1.5,0,2.8,0,4.3,0c0,1.6,0,3.1,0,4.7c-1.5,0-2.8,0-4.3,0C67.5,175,67.5,173.6,67.5,171.9z"/>
	<path d="M110.2,176.7c-1.5,0-2.7,0-4.1,0c0-1.6,0-3,0-4.7c1.3,0,2.6,0,4.1,0C110.2,173.5,110.2,174.9,110.2,176.7z"/>
	<path d="M117.9,225.8c0,1.4,0,2.7,0,4.3c-1.4,0-2.7,0-4.4,0c-0.1-1.3-0.1-2.6-0.2-4.3C114.9,225.8,116.3,225.8,117.9,225.8z"/>
	<path d="M320,252.9c0-1.5,0-2.7,0-4.2c1.5,0,2.9,0,4.5,0c0,1.3,0,2.6,0,4.2C323.1,252.9,321.8,252.9,320,252.9z"/>
	<path d="M324.6,141.7c0,1.4,0,2.7,0,4.2c-1.5,0-2.8,0-4.5,0c-0.1-1.3-0.1-2.6-0.2-4.2C321.5,141.7,323,141.7,324.6,141.7z"/>
	<path d="M301.6,184.3c-1.4,0.1-2.6,0.1-4.1,0.2c0-1.6,0-3,0-4.7c1.2,0,2.5,0,4.1,0C301.6,181.3,301.6,182.7,301.6,184.3z"/>
	<path d="M98.2,141.6c1.5,0,2.9,0,4.5,0c0,1.4,0,2.7,0,4.2c-1.4,0-2.8,0-4.5,0C98.2,144.4,98.2,143.1,98.2,141.6z"/>
	<path d="M106,184.3c0-1.5,0-2.8,0-4.4c1.3,0,2.6,0,4.2,0c0,1.4,0,2.8,0,4.4C108.8,184.3,107.5,184.3,106,184.3z"/>
	<path d="M320.1,245.4c0-1.7,0-2.9,0-4.3c1.5,0,2.8,0,4.5,0c0,1.4,0,2.8,0,4.3C323,245.4,321.7,245.4,320.1,245.4z"/>
	<path d="M67.3,179.7c1.8,0,3,0,4.5,0c0,1.6,0,3,0,4.6c-1.4,0-2.6,0-4.3,0C67.5,182.9,67.4,181.5,67.3,179.7z"/>
	<path d="M305,164.2c1.4-0.1,2.6-0.1,4.2-0.2c0,1.6,0,3,0,4.7c-1.2,0-2.6,0-4.2,0C305,167.3,305,165.9,305,164.2z"/>
	<path d="M297.4,169.1c0-1.9,0-3.2,0-4.8c1.5,0,2.8,0,4.3,0c0.1,1.3,0.2,2.5,0.3,4.3C300.5,168.7,299.2,168.9,297.4,169.1z"/>
	<path d="M106,230.1c0-1.4,0-2.7,0-4.3c1.4,0,2.8,0,4.3,0c0,1.5,0,2.8,0,4.3C108.8,230.1,107.5,230.1,106,230.1z"/>
	<path d="M179.2,202.8c0,1.4,0,2.7,0,4.2c-1.5,0-2.9,0-4.5,0c0-1.4,0-2.6,0-4.2C176.1,202.8,177.5,202.8,179.2,202.8z"/>
	<path d="M256,168.8c-1.8,0-3,0-4.5,0c0-1.6,0-3,0-4.6c1.4-0.1,2.6-0.1,4.3-0.2C255.8,165.6,255.9,167.1,256,168.8z"/>
	<path d="M205.5,230.1c0-1.4,0-2.8,0-4.3c1.4,0,2.8,0,4.3,0c0,1.5,0,2.8,0,4.3C208.3,230.1,207,230.1,205.5,230.1z"/>
	<path d="M212.8,225.7c1.8,0,3.1,0,4.5,0c0,1.5,0,2.8,0,4.4c-1.4,0-2.7,0-4.3,0C213,228.8,212.9,227.5,212.8,225.7z"/>
	<path d="M212.8,168.7c0.1-1.8,0.2-3,0.2-4.4c1.5,0,2.8,0,4.3,0c0,1.5,0,2.8,0,4.4C215.9,168.7,214.5,168.7,212.8,168.7z"/>
	<path d="M297.4,230.1c0-1.4,0-2.7,0-4.3c1.4,0,2.8,0,4.3,0c0,1.5,0,2.8,0,4.3C300.2,230.1,298.9,230.1,297.4,230.1z"/>
	<path d="M205.5,164.2c1.5,0,2.8,0,4.2,0c0,1.5,0,2.8,0,4.6c-1.3,0.1-2.6,0.1-4.2,0.2C205.5,167.3,205.5,165.9,205.5,164.2z"/>
	<path d="M113.5,168.8c0-1.5,0-2.9,0-4.5c1.4,0,2.7,0,4.3,0c0,1.4,0,2.8,0,4.5C116.3,168.8,115,168.8,113.5,168.8z"/>
	<path d="M133.2,141.4c0.1,1.2,0.2,1.8,0.2,2.4c0,0.6-0.1,1.2-0.2,2.1c-1.4,0.1-2.7,0.1-4.4,0.2c-0.1-1.5-0.2-2.8-0.3-4.5
		C130.1,141.5,131.5,141.4,133.2,141.4z"/>
	<path d="M340.1,245.4c-1.5,0-2.9,0-4.5,0c0-1.4,0-2.7,0-4C340.2,240.3,340.4,240.5,340.1,245.4z"/>
	<path d="M105.9,168.7c0-1.4,0-2.7,0-4.3c1.4,0,2.7,0,4.3,0c0.1,1.3,0.1,2.7,0.2,4.3C108.9,168.7,107.5,168.7,105.9,168.7z"/>
	<path d="M190.1,202.6c1.6,0,2.8,0,4.4,0c0.1,1.4,0.1,2.6,0.2,4.3c-1.6,0-3,0-4.6,0C190.1,205.6,190.1,204.3,190.1,202.6z"/>
	<path d="M324.6,149.2c0,1.4,0,2.8,0,4.3c-1.5,0-2.9,0-4.5,0c0-1.4,0-2.7,0-4.3C321.6,149.2,323,149.2,324.6,149.2z"/>
	<path d="M294.2,141.6c0,1.5,0,2.7,0,4.2c-1.5,0-2.9,0-4.6,0c0-1.3,0-2.6,0-4.2C291.1,141.6,292.4,141.6,294.2,141.6z"/>
	<path d="M335.5,252.8c0-1.4,0-2.6,0-4.1c1.6,0,3,0,4.6,0c0.1,1.4,0.1,2.6,0.2,4.1C338.7,252.8,337.3,252.8,335.5,252.8z"/>
	<path d="M289.6,207c0-1.5,0-2.7,0-4.2c1.5,0,2.9,0,4.6,0c0,1.4,0,2.7,0,4.2C292.6,207,291.3,207,289.6,207z"/>
	<path d="M106,210.2c1.4-0.1,2.6-0.1,4.1-0.2c0,1.6,0,3,0,4.7c-1.2,0-2.5,0-4.1,0C106,213.2,106,211.8,106,210.2z"/>
	<path d="M167,199.4c0-1.5,0-2.7,0-4.2c1.4,0,2.9,0,4.3,0C172.3,199.6,172.1,199.8,167,199.4z"/>
	<path d="M209.8,187.4c0,1.5,0,2.8,0,4.4c-1.4,0-2.7,0-4.3,0c0-1.3,0-2.7,0-4.4C206.9,187.4,208.3,187.4,209.8,187.4z"/>
	<path d="M105.9,237.8c0-1.6,0-2.9,0-4.4c1.5,0,2.9,0,4.4,0c0,1.5,0,2.9,0,4.4C108.8,237.8,107.5,237.8,105.9,237.8z"/>
	<path d="M117.9,233.3c0,1.7,0,3,0,4.5c-1.5,0-2.8,0-4.3,0c0-1.5,0-2.9,0-4.5C115,233.3,116.3,233.3,117.9,233.3z"/>
	<path d="M304.7,156.7c1.8,0,3,0,4.6,0c0.1,1.4,0.1,2.8,0.2,4.5c-1.5,0.1-2.8,0.2-4.6,0.3C304.9,159.8,304.8,158.4,304.7,156.7z"/>
	<path d="M209.8,233.1c0,1.7,0,3.1,0,4.7c-1.4,0-2.8,0-4.4,0c-0.1-1.3-0.1-2.5-0.2-4.3C206.7,233.3,208.1,233.2,209.8,233.1z"/>
	<path d="M217.6,237.9c-1.8,0-3,0-4.5,0c-0.1-1.4-0.1-2.8-0.2-4.5c1.5-0.1,2.7-0.2,4.5-0.3C217.4,234.7,217.5,236.1,217.6,237.9z"/>
	<path d="M301.6,161.2c-1.4,0-2.7,0-4.2,0c0-1.5,0-2.8,0-4.4c1.3,0,2.6,0,4.2,0C301.6,158.1,301.6,159.5,301.6,161.2z"/>
	<path d="M305,233.3c1.4,0,2.7,0,4.2,0c0,1.5,0,2.9,0,4.5c-1.4,0-2.7,0-4.2,0C305,236.3,305,234.9,305,233.3z"/>
	<path d="M217.4,161.3c-1.5,0-2.7,0-4.2,0c0-1.6,0-3,0-4.6c1.4,0,2.7,0,4.2,0C217.4,158.2,217.4,159.5,217.4,161.3z"/>
	<path d="M205.5,156.7c1.5,0,2.7,0,4.2,0c0,1.5,0,2.9,0,4.5c-1.4,0-2.7,0-4.2,0C205.5,159.7,205.5,158.4,205.5,156.7z"/>
	<path d="M105.9,161.5c0-1.9,0-3.2,0-4.7c1.5,0,2.8,0,4.3,0c0,1.4,0,2.8,0,4.5C109,161.3,107.7,161.4,105.9,161.5z"/>
	<path d="M121,245.6c0-1.8,0-3,0-4.5c1.4,0,2.8,0,4.6,0c0.1,1.2,0.1,2.5,0.2,4.2C124.2,245.5,122.8,245.5,121,245.6z"/>
	<path d="M202.2,245.4c-1.7,0-3,0-4.5,0c0-1.5,0-2.8,0-4.3c1.5,0,2.9,0,4.5,0C202.2,242.5,202.2,243.8,202.2,245.4z"/>
	<path d="M225.1,245.4c-1.7,0-3,0-4.5,0c0-1.5,0-2.8,0-4.3c1.5,0,2.9,0,4.5,0C225.1,242.5,225.1,243.8,225.1,245.4z"/>
	<path d="M312.5,246c0-2.1,0-3.4,0-5.4c1.7,0.4,3.3,0.4,4.5,1.1c0.5,0.3,0.5,2.6,0,3C315.9,245.5,314.4,245.5,312.5,246z"/>
	<path d="M79.6,199.5c-1.5,0-2.8,0-4.4,0c0-1.4,0-2.7,0-4.3c1.3,0,2.7,0,4.4,0C79.6,196.5,79.6,197.9,79.6,199.5z"/>
	<path d="M125.6,253c-1.6,0-2.8,0-4.5,0c-0.1-1.3-0.1-2.6-0.2-4.3c1.6,0,3,0,4.7,0C125.6,250,125.6,251.3,125.6,253z"/>
	<path d="M289.7,195c1.8,0,3,0,4.5,0c0,1.5,0,2.7,0,4.3c-1.4,0-2.8,0-4.5,0C289.7,197.9,289.7,196.5,289.7,195z"/>
	<path d="M312.6,248.6c1.6,0,2.9,0,4.4,0c0,1.5,0,2.8,0,4.3c-1.5,0-2.9,0-4.4,0C312.6,251.6,312.6,250.3,312.6,248.6z"/>
	<path d="M179.1,195.2c0,1.3,0,2.6,0,4.2c-1.4,0-2.8,0-4.5,0c-0.1-1.2-0.1-2.6-0.2-4.2C176,195.2,177.4,195.2,179.1,195.2z"/>
	<path d="M113.5,256.2c1.6,0,2.9,0,4.4,0c0,1.5,0,2.8,0,4.4c-1.4,0-2.8,0-4.4,0C113.5,259.2,113.5,257.9,113.5,256.2z"/>
	<path d="M317.2,153.5c-1.8,0-3.1,0-4.7,0c0-1.5,0-2.8,0-4.4c1.3-0.1,2.5-0.2,4.3-0.3C317,150.4,317.1,151.9,317.2,153.5z"/>
	<path d="M205.4,260.7c0-1.7,0-3,0-4.5c1.5,0,2.8,0,4.3,0c0,1.5,0,2.9,0,4.5C208.3,260.7,207,260.7,205.4,260.7z"/>
	<path d="M217.4,256.3c0,1.4,0,2.7,0,4.3c-1.4,0-2.7,0-4.3,0c-0.1-1.4-0.1-2.7-0.2-4.3C214.4,256.3,215.8,256.3,217.4,256.3z"/>
	<path d="M304.9,256.1c1.6,0,2.8,0,4.3,0c0,1.4,0,2.8,0,4.5c-1.3,0-2.7,0-4.3,0C304.9,259.1,304.9,257.8,304.9,256.1z"/>
	<path d="M289.7,149.1c1.6,0,2.9,0,4.4,0c0,1.5,0,2.8,0,4.3c-1.5,0-2.7,0-4.4,0C289.7,152.1,289.7,150.7,289.7,149.1z"/>
	<path d="M225.1,153.5c-1.6,0-3,0-4.5,0c0-1.5,0-2.8,0-4.3c1.4,0,2.8,0,4.5,0C225.1,150.5,225.1,151.8,225.1,153.5z"/>
	<path d="M309.2,191.9c-1.5,0-2.7,0-4.2,0c0-1.5,0-2.9,0-4.6c1.3,0,2.6,0,4.2,0C309.2,188.8,309.2,190.2,309.2,191.9z"/>
	<path d="M167.1,202.7c1.5,0,2.9,0,4.4,0c0,1.5,0,2.8,0,4.3c-1.5,0-2.9,0-4.4,0C167.1,205.7,167.1,204.3,167.1,202.7z"/>
	<path d="M98.2,149.1c1.8,0,3,0,4.5,0c0,1.5,0,2.7,0,4.3c-1.4,0-2.8,0-4.5,0C98.2,152,98.2,150.6,98.2,149.1z"/>
	<path d="M75.2,149.1c1.5,0,2.8,0,4.4,0c0,1.5,0,2.9,0,4.5c-1.5,0-2.9,0-4.4,0C75.2,152.1,75.2,150.8,75.2,149.1z"/>
	<path d="M56.8,149.2c0,1.5,0,2.7,0,4.2c-1.5,0-2.9,0-4.6,0c0-1.3,0-2.6,0-4.2C53.7,149.2,55.1,149.2,56.8,149.2z"/>
	<path d="M317,141.7c0,1.3,0,2.6,0,4.2c-1.5,0-2.8,0-4.5,0c-0.1-1.2-0.1-2.5-0.2-4.2C313.9,141.7,315.3,141.7,317,141.7z"/>
	<path d="M125.5,146.1c-1.8-0.1-3-0.1-4.5-0.2c0-1.5,0-2.8,0-4.3c1.5,0,2.8,0,4.5,0C125.5,143,125.5,144.4,125.5,146.1z"/>
	<path d="M75.1,145.8c0-1.5,0-2.7,0-4.2c1.5,0,2.9,0,4.6,0c0,1.4,0,2.7,0,4.2C78.1,145.8,76.8,145.8,75.1,145.8z"/>
	<path d="M197.7,195c1.8,0,3,0,4.5,0c0,1.5,0,2.7,0,4.3c-1.4,0-2.8,0-4.5,0C197.7,197.9,197.7,196.5,197.7,195z"/>
	<path d="M202.2,202.7c0,1.4,0,2.7,0,4.2c-1.4,0-2.9,0-4.5,0c0-1.3,0-2.6,0-4.2C199.2,202.7,200.5,202.7,202.2,202.7z"/>
	<path d="M266.6,202.6c1.5,0,2.8,0,4.3,0c0,1.5,0,2.9,0,4.4c-1.5,0-2.8,0-4.3,0C266.6,205.5,266.6,204.1,266.6,202.6z"/>
	<path d="M110.3,187.4c0,1.6,0,2.9,0,4.5c-1.4,0.1-2.7,0.1-4.3,0.2c0-1.6,0-3,0-4.7C107.4,187.4,108.7,187.4,110.3,187.4z"/>
	<path d="M317,207.1c-1.6,0-2.9,0-4.5,0c-0.1-1.3-0.1-2.6-0.2-4.3c1.6,0,3,0,4.7,0C317,204.1,317,205.4,317,207.1z"/>
	<path d="M213.1,187.4c1.3,0,2.6,0,4.2,0c0,1.5,0,2.8,0,4.5c-1.2,0.1-2.5,0.1-4.2,0.2C213.1,190.4,213.1,189,213.1,187.4z"/>
	<path d="M301.9,187.4c-0.1,1.8-0.1,3-0.2,4.4c-1.5,0-2.8,0-4.3,0c0-1.5,0-2.8,0-4.4C298.8,187.4,300.2,187.4,301.9,187.4z"/>
	<path d="M113.5,210.2c1.5,0,2.7,0,4.2,0c0,1.5,0,2.9,0,4.6c-1.4,0-2.7,0-4.2,0C113.5,213.2,113.5,211.9,113.5,210.2z"/>
	<path d="M113.5,252.9c0-1.4,0-2.7,0-4.2c1.5,0,2.8,0,4.3,0c0,1.3,0,2.6,0,4.2C116.5,252.9,115.1,252.9,113.5,252.9z"/>
	<path d="M297.5,141.3c1.5,0.1,2.8,0.1,4.2,0.2c0,1.5,0,2.8,0,4.3c-1.5,0-2.8,0-4.2,0C297.5,144.3,297.5,142.9,297.5,141.3z"/>
	<path d="M217.6,245.4c-1.8,0-3,0-4.5,0c0-1.5,0-2.8,0-4.3c1.4,0,2.7,0,4.3,0C217.4,242.4,217.5,243.7,217.6,245.4z"/>
	<path d="M113.6,241c1.4,0,2.6,0,4.2,0c0,1.4,0,2.8,0,4.4c-1.3,0-2.6,0-4.2,0C113.6,244,113.6,242.7,113.6,241z"/>
	<path d="M113.5,153.7c0-1.8,0-3,0-4.6c1.5,0,2.7,0,4.3,0c0,1.4,0,2.6,0,4.3C116.6,153.5,115.3,153.6,113.5,153.7z"/>
	<path d="M117.9,141.6c0,1.5,0,2.7,0,4.3c-1.4,0.1-2.7,0.1-4.3,0.2c0-1.5,0-2.9,0-4.5C114.9,141.6,116.2,141.6,117.9,141.6z"/>
	<path d="M106,146.1c0-1.7,0-3,0-4.5c1.5,0,2.8,0,4.3,0c0,1.5,0,2.8,0,4.3C108.8,146,107.6,146,106,146.1z"/>
	<path d="M213,199.4c0-1.6,0-2.8,0-4.3c1.4-0.1,2.7-0.1,4.3-0.2c0,1.6,0,3,0,4.6C215.9,199.4,214.6,199.4,213,199.4z"/>
	<path d="M110.3,149.2c0,1.5,0,2.7,0,4.2c-1.4,0-2.7,0-4.4,0c-0.1-1.3-0.1-2.6-0.2-4.2C107.4,149.2,108.9,149.2,110.3,149.2z"/>
	<path d="M72.1,145.9c-1.8,0-3.1,0-4.6,0c0-1.5,0-2.8,0-4.3c1.4,0,2.7,0,4.4,0C72,142.9,72,144.2,72.1,145.9z"/>
	<path d="M297.1,149.1c1.7,0,3,0,4.5,0c0,1.5,0,2.8,0,4.3c-1.3,0-2.6,0-4.3,0C297.3,152.2,297.2,150.9,297.1,149.1z"/>
	<path d="M309.3,141.3c0,1.8,0,3,0,4.5c-1.5,0-2.8,0-4.3,0c0-1.4,0-2.7,0-4.3C306.3,141.5,307.6,141.4,309.3,141.3z"/>
	<path d="M209.8,195.2c0,1.5,0,2.7,0,4.2c-1.5,0-2.8,0-4.4,0c-0.1-1.3-0.1-2.6-0.2-4.2C206.9,195.2,208.4,195.2,209.8,195.2z"/>
	<path d="M217.4,248.4c0,1.7,0,2.9,0,4.4c-1.4,0-2.7,0-4.3,0c0-1.3,0-2.6,0-4.2C214.4,248.6,215.7,248.5,217.4,248.4z"/>
	<path d="M301.6,199.5c-1,0.1-1.8,0.1-2.5,0.1c-0.5,0-0.9-0.1-1.6-0.2c0-1.4,0-2.7,0-4.3c1.3-0.1,2.6-0.1,4.1-0.2
		C301.6,196.5,301.6,198,301.6,199.5z"/>
	<path d="M205.4,206.8c0-1.4,0-2.6,0-4.2c1.4-0.1,2.7-0.1,3.9-0.2C210.7,207,210.3,207.5,205.4,206.8z"/>
	<path d="M309.3,248.8c0,1.5,0,2.7,0,4.2c-1.4,0-2.7,0-4.4,0c-0.1-1.3-0.1-2.6-0.2-4.2C306.4,248.8,307.9,248.8,309.3,248.8z"/>
	<path d="M67.4,153.5c0-1.5,0-2.7,0-4.3c1.4-0.1,2.7-0.1,4.3-0.2c0,1.6,0,3,0,4.6C70.4,153.5,69.1,153.5,67.4,153.5z"/>
	<path d="M301.9,207c-1.7,0-2.9,0-4.5,0c-0.1-1.3-0.1-2.6-0.2-4.3c1.5-0.1,2.8-0.1,4.5-0.2C301.8,203.9,301.8,205.3,301.9,207z"/>
	<path d="M60,153.7c0-1.8,0-3.1,0-4.6c1.5,0,2.8,0,4.3,0c0,1.4,0,2.7,0,4.4C63,153.5,61.7,153.6,60,153.7z"/>
	<path d="M217.3,153.5c-1.5,0-2.8,0-4.3,0c0-1.5,0-2.8,0-4.3c1.4,0,2.7,0,4.3,0C217.3,150.5,217.3,151.8,217.3,153.5z"/>
	<path d="M205.5,248.6c1.5,0,2.7,0,4.2,0c0,1.4,0,2.8,0,4.4c-1.4,0-2.7,0-4.2,0C205.5,251.6,205.5,250.3,205.5,248.6z"/>
	<path d="M304.9,153.7c0-1.8,0-3.1,0-4.6c1.5,0,2.7,0,4.3,0c0,1.4,0,2.6,0,4.3C308,153.5,306.7,153.6,304.9,153.7z"/>
	<path d="M209.7,245.5c-1.4,0-2.6,0-4.2,0c0-1.4,0-2.8,0-4.4c1.3,0,2.6,0,4.2,0C209.7,242.4,209.7,243.7,209.7,245.5z"/>
</g>
</svg>
