<?xml version="1.0" encoding="utf-8"?>
<!-- Generator: Adobe Illustrator 21.1.0, SVG Export Plug-In . SVG Version: 6.00 Build 0)  -->
<svg version="1.1" xmlns="http://www.w3.org/2000/svg" xmlns:xlink="http://www.w3.org/1999/xlink" x="0px" y="0px"
	 viewBox="0 0 400 400" style="enable-background:new 0 0 400 400;" xml:space="preserve">
<g id="Cirlce">
	<g>
		<path d="M200,20.1c48.1,0,93.2,18.7,127.2,52.7c34,34,52.7,79.2,52.7,127.2s-18.7,93.2-52.7,127.2c-34,34-79.2,52.7-127.2,52.7
			s-93.2-18.7-127.2-52.7c-34-34-52.7-79.2-52.7-127.2s18.7-93.2,52.7-127.2C106.8,38.8,151.9,20.1,200,20.1 M200,0.1
			C89.6,0.1,0.1,89.6,0.1,200S89.6,399.9,200,399.9S399.9,310.4,399.9,200S310.4,0.1,200,0.1L200,0.1z"/>
	</g>
</g>
<g id="Five_People">
	<g>
		<path d="M149,253.9c2.9-8.2,5.4-14.3,12-14.3h17c-11-6.3-18.9-17.6-20.7-30.7h-36c-5.7,0-7.9,5.4-10.4,12.5l-17.4,47.3
			c0,6.9,4.7,12.5,10.4,12.5H139L149,253.9z"/>
	</g>
	<g>
		<path d="M157,203.3c0-20.1,14.2-36.8,33-40.8c-2.3-17.8-17.5-31.6-36-31.6c-20.1,0-36.3,16.3-36.3,36.3
			c0,20.1,16.3,36.3,36.3,36.3C155,203.5,156,203.4,157,203.3C157,203.3,157,203.3,157,203.3z"/>
	</g>
	<g>
		<path d="M104.1,217.7c2.9-8.2,5.4-14.3,12-14.3h17c-11-6.3-18.9-17.6-20.7-30.7h-36c-5.7,0-7.9,5.4-10.4,12.5l-17.4,47.3
			c0,6.9,4.7,12.5,10.4,12.5h35.1L104.1,217.7z"/>
	</g>
	<g>
		<path d="M112,167.2c0-20.1,14.2-36.8,33-40.8c-2.3-17.8-17.5-31.6-36-31.6C89,94.7,72.7,111,72.7,131c0,20.1,16.3,36.3,36.3,36.3
			C110.1,167.3,111,167.3,112,167.2C112,167.2,112,167.2,112,167.2z"/>
	</g>
	<g>
		<path d="M289.1,221.3c-2.4-6.7-4.7-12.5-10.4-12.5h-38.5c-1.7,13.2-9.6,24.4-20.7,30.7h19.3c6.6,0,9.3,6.6,12,14.3l10,27.2H296
			c5.7,0,10.4-5.6,10.4-12.5L289.1,221.3z"/>
	</g>
	<g>
		<path d="M243.7,130.8c-18.5,0-33.7,13.8-36,31.7c18.8,4.1,32.8,20.8,32.8,40.8c0,0,0,0,0,0c1.1,0.1,2.1,0.2,3.2,0.2
			c20.1,0,36.3-16.3,36.3-36.3C280,147.1,263.8,130.8,243.7,130.8z"/>
	</g>
	<g>
		<path d="M334.7,185.2c-2.4-6.7-4.7-12.5-10.4-12.5h-38.5c-1.7,13.2-9.6,24.4-20.7,30.7h19.3c6.6,0,9.3,6.6,12,14.3l10,27.2h35.3
			c5.7,0,10.4-5.6,10.4-12.5L334.7,185.2z"/>
	</g>
	<g>
		<path d="M289.4,94.7c-18.5,0-33.7,13.8-36,31.7c18.8,4.1,32.8,20.8,32.8,40.8c0,0,0,0,0,0c1.1,0.1,2.1,0.2,3.2,0.2
			c20.1,0,36.3-16.3,36.3-36.3C325.7,111,309.5,94.7,289.4,94.7z"/>
	</g>
	<g>
		<path d="M251,317.2H148.7c-5.7,0-10.4-5.6-10.4-12.5l17.4-47.3c2.6-7.1,4.7-12.5,10.4-12.5h67.6c5.7,0,8,5.7,10.4,12.5l17.4,47.3
			C261.5,311.6,256.8,317.2,251,317.2z"/>
	</g>
	<g>
		<circle cx="198.7" cy="203.3" r="36.3"/>
	</g>
</g>
</svg>
