<?xml version="1.0" encoding="utf-8"?>
<!-- Generator: Adobe Illustrator 21.1.0, SVG Export Plug-In . SVG Version: 6.00 Build 0)  -->
<svg version="1.1" xmlns="http://www.w3.org/2000/svg" xmlns:xlink="http://www.w3.org/1999/xlink" x="0px" y="0px"
	 viewBox="0 0 400 400" style="enable-background:new 0 0 400 400;" xml:space="preserve">
<g id="Cirlce">
	<g>
		<path d="M200,20.1c48.1,0,93.2,18.7,127.2,52.7c34,34,52.7,79.2,52.7,127.2s-18.7,93.2-52.7,127.2c-34,34-79.2,52.7-127.2,52.7
			s-93.2-18.7-127.2-52.7c-34-34-52.7-79.2-52.7-127.2s18.7-93.2,52.7-127.2C106.8,38.8,151.9,20.1,200,20.1 M200,0.1
			C89.6,0.1,0.1,89.6,0.1,200S89.6,399.9,200,399.9S399.9,310.4,399.9,200S310.4,0.1,200,0.1L200,0.1z"/>
	</g>
</g>
<g id="iPhone">
	<path d="M251,57.1H149c-10.4,0-18.9,8.5-18.9,18.9V324c0,10.4,8.5,18.9,18.9,18.9H251c10.4,0,18.9-8.5,18.9-18.9V76
		C270,65.6,261.5,57.1,251,57.1z M200.8,69c0.8,0,1.4,0.6,1.4,1.4c0,0.8-0.6,1.4-1.4,1.4s-1.4-0.6-1.4-1.4
		C199.4,69.7,200,69,200.8,69z M185.2,78.4h31.2v1.7h-31.2V78.4z M175.1,76.2c1.7,0,3,1.4,3,3c0,1.7-1.4,3-3,3s-3-1.4-3-3
		C172,77.6,173.4,76.2,175.1,76.2z M199.4,333.3c-5.1,0-9.2-4.1-9.2-9.2c0-5.1,4.1-9.2,9.2-9.2s9.2,4.1,9.2,9.2
		C208.6,329.1,204.5,333.3,199.4,333.3z M256.5,306.6h-113V93.4h113V306.6z"/>
</g>
</svg>
