<?xml version="1.0" encoding="utf-8"?>
<!-- Generator: Adobe Illustrator 21.1.0, SVG Export Plug-In . SVG Version: 6.00 Build 0)  -->
<svg version="1.1" xmlns="http://www.w3.org/2000/svg" xmlns:xlink="http://www.w3.org/1999/xlink" x="0px" y="0px"
	 viewBox="0 0 400 400" style="enable-background:new 0 0 400 400;" xml:space="preserve">
<g id="Cirlce">
	<g>
		<path d="M200,20.1c48.1,0,93.2,18.7,127.2,52.7c34,34,52.7,79.2,52.7,127.2s-18.7,93.2-52.7,127.2c-34,34-79.2,52.7-127.2,52.7
			s-93.2-18.7-127.2-52.7c-34-34-52.7-79.2-52.7-127.2s18.7-93.2,52.7-127.2C106.8,38.8,151.9,20.1,200,20.1 M200,0.1
			C89.6,0.1,0.1,89.6,0.1,200S89.6,399.9,200,399.9S399.9,310.4,399.9,200S310.4,0.1,200,0.1L200,0.1z"/>
	</g>
</g>
<g id="MRI">
	<path d="M310.7,224.2c0,11,0,21.9,0,32.9c-0.1,12-6.2,18.1-18.1,18.2c-10.4,0.1-20.8-0.1-31.1,0.1c-2.8,0-4.3-0.9-5.4-3.4
		c-1.9-4.3-3.9-8.7-6.1-12.8c-1.4-2.6-0.9-4.2,1.3-6c14.9-12.4,24.2-28.3,27.6-47.3c8-45.4-22.3-86.3-64.8-93.4
		c-27.3-4.6-51.4,2.6-71.2,22.1c-33.2,32.7-31,87.8,4.6,118c2.6,2.2,2.6,3.7,1.2,6.2c-2.3,4.3-4.4,8.7-6.3,13.2
		c-1.1,2.6-2.7,3.4-5.5,3.3c-10.1-0.2-20.2,0-30.2-0.1c-11.6-0.1-17.9-6.3-17.8-17.9c0.2-24.2-0.6-48.4,1-72.4
		c2.1-32.9,18-59,44-78.9C148.9,94.5,166,87.6,185,85.2c4.9-0.6,9.9-1.5,14.9-1.4c20.2,0.3,39.2,5.5,56.4,16
		c29.9,18.3,48.1,44.9,53,79.6c2.1,14.7,1.4,29.9,2,44.8C311.1,224.2,310.9,224.2,310.7,224.2z M98.8,251.6
		c0,6.7,5.2,11.8,11.8,11.8c6.5,0,11.9-5.5,11.8-11.9c-0.1-6.5-5.4-11.8-12-11.7C103.6,239.8,98.8,244.8,98.8,251.6z"/>
	<path d="M153.2,249.6c-21.1-15.1-34.2-46.2-25.9-77.3c8.7-32.8,38.3-55.6,71.8-55.8c33.6-0.1,63.6,22.1,72.5,53.7
		c9.4,33.1-4.7,64.9-26.1,80c-3.5-7.4-8.2-14.4-10.1-22.1c-1.5-6.2-1-13.8,1.1-19.9c5.5-15.4,4.5-29.6-5.9-42.2
		c-11-13.3-25.6-17.6-42-12.9c-15.9,4.5-25.3,15.6-28.4,32c-1.3,6.9-0.1,13.5,1.8,20.1c2.9,9.9,3.5,19.7-1.5,29.2
		C158,239.4,155.7,244.5,153.2,249.6z"/>
	<path d="M250.6,273.5c-34.5,0-68.2,0-102.6,0c3.5-7.4,6.8-14.3,10.1-21.2c3.1-6.5,6.3-13.1,9.4-19.6c1-2.3,2.4-3.2,5-3.2
		c17.9,0.1,35.9,0,53.8,0.2c1.5,0,3.7,0.9,4.3,2C237.2,245.2,243.7,259,250.6,273.5z"/>
	<path d="M147.4,279.6c34.7,0,68.8,0,103.6,0c0,3,0.5,6.1-0.1,9c-0.7,3.5-3.4,5.4-7.2,5.4c-29.6,0-59.2,0-88.8,0
		c-4.4,0-7.2-2.8-7.4-7.2C147.3,284.5,147.4,282.2,147.4,279.6z"/>
	<path d="M229.7,223.6c-20.4,0-40.3,0-60.6,0c0-6.3-0.3-12.3,0.1-18.3c0.3-3.9,3.1-6.4,7.2-6.4c15.2-0.1,30.5-0.1,45.7,0
		c4.7,0,7.2,3,7.5,8.2C229.9,212.4,229.7,217.7,229.7,223.6z"/>
	<path d="M172.3,300c18.2,0,35.8,0,53.8,0c-0.3,5.2,2,10.6-3.2,14.4c-1.5,1.1-3.8,1.7-5.7,1.7c-11.8,0.2-23.7,0.1-35.5,0.1
		c-6.3,0-9.3-2.9-9.4-9.1C172.3,304.9,172.3,302.7,172.3,300z"/>
</g>
</svg>
