<?xml version="1.0" encoding="utf-8"?>
<!-- Generator: Adobe Illustrator 21.1.0, SVG Export Plug-In . SVG Version: 6.00 Build 0)  -->
<svg version="1.1" xmlns="http://www.w3.org/2000/svg" xmlns:xlink="http://www.w3.org/1999/xlink" x="0px" y="0px"
	 viewBox="0 0 400 400" style="enable-background:new 0 0 400 400;" xml:space="preserve">
<g id="Cirlce">
	<g>
		<path d="M200,20.1c48.1,0,93.2,18.7,127.2,52.7c34,34,52.7,79.2,52.7,127.2s-18.7,93.2-52.7,127.2c-34,34-79.2,52.7-127.2,52.7
			s-93.2-18.7-127.2-52.7c-34-34-52.7-79.2-52.7-127.2s18.7-93.2,52.7-127.2C106.8,38.8,151.9,20.1,200,20.1 M200,0.1
			C89.6,0.1,0.1,89.6,0.1,200S89.6,399.9,200,399.9S399.9,310.4,399.9,200S310.4,0.1,200,0.1L200,0.1z"/>
	</g>
</g>
<g id="Pill">
	<path d="M88,140.1c1.1-20.3,10.7-36.5,30.5-44.9c19.9-8.5,38.9-5.4,54.9,9.6c37.7,35.6,74.8,71.9,112.7,107.2
		c11.6,10.8,22.1,21.4,25,37.5c3.5,19.7-2.8,36-18.1,48.3c-15,12-32.2,15.2-50.2,7.4c-6.1-2.6-12.3-6.1-17.1-10.6
		c-41-38.8-81.7-77.9-122.3-117.1C93.1,167.6,88.3,155.3,88,140.1z M142.8,101.9c-21.1,1.3-33.8,8.7-40.2,24.8
		c-6,15.2-3.8,29.6,7.7,41.3c18.2,18.4,37.2,36.1,55.7,54.3c4.7,4.6,8.2,3.7,12.3-0.7c14.1-15.2,28.2-30.5,42.6-45.5
		c4.3-4.4,3.8-7.4-0.4-11.3c-19.2-17.8-37.7-36.4-57.5-53.5C156.6,105.7,147.2,103.8,142.8,101.9z"/>
</g>
</svg>
