<?xml version="1.0" encoding="utf-8"?>
<!-- Generator: Adobe Illustrator 21.1.0, SVG Export Plug-In . SVG Version: 6.00 Build 0)  -->
<svg version="1.1" xmlns="http://www.w3.org/2000/svg" xmlns:xlink="http://www.w3.org/1999/xlink" x="0px" y="0px"
	 viewBox="0 0 400 400" style="enable-background:new 0 0 400 400;" xml:space="preserve">
<g id="Cirlce">
	<g>
		<path d="M200,20.1c48.1,0,93.2,18.7,127.2,52.7c34,34,52.7,79.2,52.7,127.2s-18.7,93.2-52.7,127.2c-34,34-79.2,52.7-127.2,52.7
			s-93.2-18.7-127.2-52.7c-34-34-52.7-79.2-52.7-127.2s18.7-93.2,52.7-127.2C106.8,38.8,151.9,20.1,200,20.1 M200,0.1
			C89.6,0.1,0.1,89.6,0.1,200S89.6,399.9,200,399.9S399.9,310.4,399.9,200S310.4,0.1,200,0.1L200,0.1z"/>
	</g>
</g>
<g id="Stockport">
	<path d="M255,195c-1.4-9.2-7.7-15.3-16.5-16.1c-0.5,0-1.1-0.1-1.6-0.1c-7.8,0-14.1,4.9-16.6,13.2c-1.7,5.6-1.6,11.2,0.3,16.6
		c2.9,8.2,8.9,12.2,17.6,12c7.7-0.2,13.6-5,16-12.9c0.5-1.8,0.8-3.6,1-5.3c0.1-0.7,0.2-1.3,0.3-1.9c-0.1-0.8-0.1-1.5-0.2-2.2
		C255.2,197.2,255.2,196.1,255,195z"/>
	<path d="M270.8,112.6c-23.5,0-47.1,0-70.6,0c-23.7,0-47.3-0.1-71,0.1c-3,0-6.2,0.5-8.8,1.7c-6,2.9-7.7,8.4-7.7,14.7
		c0,47.2,0,94.4,0,141.6c0,11.2,5.7,16.8,16.9,16.8c47,0,94,0,141,0c11,0,16.7-5.6,16.7-16.6c0-47.2,0-94.4,0-141.6
		C287.3,118,281.9,112.6,270.8,112.6z M137.6,239.5c-3.9-2.6-10.6-14-11.9-29.4c-1.3-14.9,0.7-30.6,5.3-41
		c8.5-19.3,22.4-33.3,41.4-41.6c10.8-4.7,25.6-7.8,31.6-4.7l1.3,0.6l-1.4,0.3c-0.4,0.1-0.8,0.2-1.2,0.3c-0.9,0.2-1.8,0.5-2.8,0.5
		c-30.8,1.4-58,21.9-67.7,50.9c-6.7,20-5.3,39.6,4,58.3c0.4,0.9,0.8,1.8,1.2,3c0.2,0.6,0.5,1.3,0.8,2.1l0.5,1.2L137.6,239.5z
		 M182.8,213.8c-0.8,3.6-3.2,6.4-6.9,8c-3.2,1.4-6.3,2.1-9.5,2.1c-3.3,0-6.6-0.7-9.9-2.2c-4.8-2.2-7.5-6.3-7.9-12.3
		c-0.1-0.9,0.5-1.8,1.5-2.8l0.5-0.6l0.3,0.7c0.1,0.1,0.1,0.3,0.2,0.4c0.1,0.3,0.3,0.6,0.3,0.9c1.5,5.6,4,9.4,7.4,11.3
		c3.5,2,8,2.2,13.6,0.6c4-1.1,6.4-3.3,7.3-6.6c1.3-4.6-0.8-8.4-5.5-10.1c-2.5-0.9-5.2-1.6-7.8-2.2c-1.5-0.4-3-0.7-4.5-1.2l-0.6-0.2
		c-1.9-0.5-3.8-1-5.5-1.9c-3.6-1.8-5.8-5.2-6.1-9.1c-0.2-3.9,1.6-7.6,5-9.9c5.4-3.7,16.1-3.8,21.6-0.3c4.4,2.8,6.2,7.9,4.4,11.9
		l-0.6,1.2l-0.7-2.3c-0.2-0.8-0.5-1.5-0.7-2.3c-1-3.6-3.1-5.9-6.5-7c-4.4-1.4-8.9-1.4-13.3,0.2c-3.8,1.4-5.9,4.1-5.9,7.8
		c0,3.9,1.8,6.3,5.7,7.5c2.7,0.9,5.5,1.6,8.2,2.3c2.6,0.7,5.2,1.3,7.8,2.1C181.4,202.1,184.3,207,182.8,213.8z M214.7,179.6
		c-0.8,0.2-1.7,0.4-2.6,0.4c-3.5,0-7.1,0-10.6,0c-2.2,0-4.4,0-6.6,0c-4,0-4,0-4,4.2c0,1.1,0,2.2,0,3.3c0,2,0,4.1-0.1,6.2
		c-0.1,1.3,0.2,2.3,0.7,2.8c0.6,0.6,1.5,0.8,3,0.8c4.7-0.1,9.4-0.1,14.5,0c1,0,2,0.2,2.9,0.3c0.4,0.1,0.9,0.1,1.3,0.2l0.4,0l0,2.1
		l-0.4,0.1c-0.4,0-0.7,0.1-1.1,0.1c-0.8,0.1-1.6,0.2-2.4,0.2l-0.9,0c-4.9,0-10,0.1-15,0c-1.2,0-2,0.2-2.5,0.7
		c-0.5,0.5-0.7,1.3-0.7,2.4c0.1,5.2,0,10.3,0,14.5c0,0.9-0.2,1.8-0.3,2.7c-0.1,0.4-0.1,0.8-0.2,1.2l-0.1,0.4l-1.8,0.1l-0.1-0.4
		c-0.1-0.3-0.2-0.6-0.3-0.9c-0.2-0.7-0.4-1.4-0.4-2.1c0-6.4,0-12.9,0-19.3c0-6.3,0-12.6,0-18.9c0-1.5,0.3-2.5,1-3.1
		c0.6-0.6,1.5-0.9,2.9-0.9c3.7,0,7.4,0,11.1,0c3.5,0,7,0,10.5,0c0.7,0,1.4,0.2,2,0.4c0.3,0.1,0.6,0.2,0.8,0.2l0.4,0.1l0,1.8
		l-0.4,0.1C215.4,179.5,215,179.6,214.7,179.6z M258.8,200.3c-0.1,0.8-0.2,1.5-0.4,2.3c-0.3,1.8-0.5,3.7-1,5.5
		c-2.8,9.8-10.2,15.7-19.6,15.7c-0.4,0-0.8,0-1.3,0c-10.4-0.6-17.9-7.2-19.9-17.8c-1.1-5.8-0.7-11.2,1.2-16.2
		c3.8-9.8,11.1-14.4,21.8-13.8c8.7,0.5,15.9,7.2,18.1,16.5c0.4,1.6,0.6,3.3,0.8,5.1c0.1,0.8,0.2,1.7,0.3,2.5L258.8,200.3
		L258.8,200.3z"/>
</g>
</svg>
