<?xml version="1.0" encoding="utf-8"?>
<!-- Generator: Adobe Illustrator 21.1.0, SVG Export Plug-In . SVG Version: 6.00 Build 0)  -->
<svg version="1.1" id="Sketch_xA0_Image_1_" xmlns="http://www.w3.org/2000/svg" xmlns:xlink="http://www.w3.org/1999/xlink"
	 x="0px" y="0px" viewBox="0 0 400 400" style="enable-background:new 0 0 400 400;" xml:space="preserve">
<path d="M1,355c1.8-3.3,3.7-6.6,5.5-9.9c-10.5,22.2-2.5,39.7,13.8,55.3c-8.3,1.9-8.8,1.9-12.2-5.1C5.4,389.7,3.3,383.8,1,378
	C1,370.3,1,362.7,1,355z"/>
<path d="M364.1,321c0.3-5.8,0.7-11.6,1-17.5c-0.3-0.1-0.7-0.2-1-0.2c-2.3,3.9-4.2,8.1-6.8,11.8c-6.8,9.6-15.6,17.1-26.1,22.8
	c-4.4,2.4-8.5,5.3-12.3,8.5c-1.6,1.3-2.7,4.1-2.8,6.3c-0.2,12.6,0.1,25.3,0.1,37.9c0,3.1-0.3,6.3-0.5,9.4c-0.5,0-1,0.1-1.5,0.1
	c-0.5-6.9-1.1-13.7-1.6-20.6c-0.4,0-0.8,0-1.2,0c0,7.1,0,14.2,0,21.3c-0.8,0-1.7,0-2.5,0c0.3-16.7,0.9-33.4,1.6-51.5
	c-4.2,1.3-8,2.3-11.7,3.5c-14.3,4.3-28.8,8.2-42.9,13.1c-11.7,4.1-23.1,9.4-34.4,14.4c-1.7,0.8-3.1,2.9-4.2,4.6
	c-2.5,4.3-4.7,8.8-7.1,13.2c-0.7,1.2-1.9,2.2-2.9,3.3c-0.5-0.3-0.9-0.6-1.4-0.9c3.4-6.3,6.3-13,10.2-18.9c3.1-4.6,7.3-8.4,11.3-12.3
	c2.6-2.6,5.6-4.9,4-9.4c-0.4,1-0.7,1.9-1,2.7c-0.4,0-0.8,0-1.3-0.1c0-5.7,0-11.4,0-17.2c0-1.7-0.1-3.4,0.2-5
	c2.1-12.2-7.2-18.4-13.7-26.1c-1.5-1.8-3.8-3-5.5-4.6c-0.7-0.7-1.2-1.9-1.3-2.9c-0.7-10.6-1-21.1-1.9-31.7c-0.7-8.7-1.7-17.3-4-26
	c-3.2-12.4-6-25.2-3.5-38.3c0.2-0.8,0.1-1.7,0.1-2.5c0-0.4-0.3-0.8-1.9-2c-2.6,5-6.5,9.7-7.5,14.9c-1.7,8.7-1.6,17.8-2.2,26.7
	c-0.5,6.7-0.5,13.6-1.5,20.2c-0.6,4.2-2.6,8.1-4.6,12.1c0.7-5.9,1.5-11.8,2-17.7c0.9-10.4,1.5-20.8,2.5-31.2
	c0.6-6.7,0.7-13.6,5.3-19.3c1.1-1.4,1.6-3.2,2.5-5.3c-7-0.8-13.6-1.4-20.1-2.3c-4.5-0.7-9-1.8-13.5-2.8c-4-0.9-7.6-1.5-11.3,1.3
	c-4.6,3.5-9.7,6.3-15.6,10.2c3.9,1.8,6.8,3,9.7,4.3c-0.1,0.5-0.2,0.9-0.4,1.4c-1.9-0.5-3.8-0.9-5.7-1.4c-2.4-0.6-4.8-1.3-7.3-2
	c-0.1-0.1-0.2-0.3-0.4-0.4c8-6.7,15.6-14.4,26.3-16.4c5.7-1.1,11.7-0.7,17.5-1c0,0.5,29,1.1,29,1.6c-4.4,0-37.8,0-42.2,0
	c0,0.2,0,0.3,0,0.5c11.5,1.7,23.1,3.3,34.6,5.1c3.8,0.6,5.5-0.7,5.7-4.7c0.4-9.1,0.6-18.3,2-27.2c1-6.3,3.5-12.4,5.8-18.4
	c2.6-6.6,5.7-13,8.6-19.5c0.6,0.2,1.2,0.4,1.9,0.7c-0.3,1.3-0.5,2.6-1,3.8c-3.7,8.9-8.1,17.6-11,26.7c-2,6.2-2.3,12.9-2.7,19.5
	c-0.4,8.2-0.1,16.5-0.1,24.6c4.9-8.4,10.1-17.4,15.3-26.3c0.4,0.2,0.9,0.5,1.3,0.7c-3.4,8.5-6.2,17.2-12.2,24.5
	c-1.4,1.8-2.6,3.7-3.7,5.7c-1.5,2.8-2.1,6.6,1.1,7.7c2.9,1,7.4,2.4,9.7-2.2c0.8-1.6,1.7-3.2,2.5-4.8c0.8,0.6,1.6,1.3,2.4,1.9
	c-1,2.2-1.9,4.4-2.9,6.5c4.6,1.7,5.3,1.4,10.6-3.8c0.4,4.2-4.2,7.7-9.8,7c-5.4-0.7-10.7-1.8-17.1-2.9c1,6.1,1.3,11.9,2.9,17.3
	c2.3,7.5,5.2,14.9,8.5,22.1c0.9,2,4.1,3.4,6.6,4.2c10.7,3.7,20.5,0.6,29.9-4.7c2.9-1.7,6.2-2.7,9.3-4c0.2,0.5,0.5,1,0.7,1.5
	c-2.7,1.5-5.5,3.1-8.9,5c2.1-0.3,3.5-0.6,5.8-0.9c-3.3,5.7-8.9,6.6-13.7,9.4c3.7,3.9,7.4,7.8,11.1,11.7c-0.3,0.4-0.6,0.7-0.9,1.1
	c-1.2-1-2.4-2.1-3.6-3.1c-4.4-3.5-8.7-7.2-13.4-10.3c-2-1.3-5-1.6-7.5-1.6c-7.3,0-14.2-0.8-19.7-7.1c0.5,2.3,0.4,4.9,1.5,6.9
	c7.2,12.3,14.7,24.5,22.1,36.7c0.6,0.9,1.4,1.7,2.4,2.9c2.8-3.7,5.4-7.1,7.9-10.5c0.5,0.4,1,0.8,1.6,1.2c-2.8,4.2-5.7,8.3-8.7,12.7
	c-4.8-5.5-8.9-10.1-12.9-14.7c-0.5,0.2-1,0.4-1.5,0.6c8.7,19.9,15.1,40.2,12.8,62.3c0.7,0.1,1.4,0.2,2,0.4c0.7-1.5,1.6-2.9,2.1-4.5
	c0.9-2.8,1.2-6,2.6-8.6c2.4-4.2,5.4-8,8.2-11.9c0.6-0.8,1.2-2,2-2.2c6.6-1.7,4.4-6.3,3.2-10.1c-1.2-3.7-3.3-7-4.5-10.7
	c4.8,5.3,9.3,10.8,7.8,18.8c-0.8,4.2-9.7,19.2-12.4,20.2c0.1-1.3,0.2-2.4,0.3-3.6c-0.2-0.1-0.4-0.1-0.6-0.2c-1.5,2.9-3,5.7-4.5,8.6
	c0.4,0.4,0.7,0.8,1.1,1.3c4.2-3.2,8.5-6.2,12.7-9.5c3.8-3,7.5-6,11-9.3c1.6-1.5,2.3-4,4-5.5c11.1-9.9,22.4-19.7,33.7-29.5
	c1-0.9,2.4-1.5,2.9-2.6c4.9-10.8,12.5-20.5,14.5-32.6c0.8-5.1,1.8-10.1,2.8-15.2c0.1-0.7,0.6-1.4,1.5-1.9
	c2.2,18.1-6.3,34.3-9.9,52.6c-0.7-2.7-1.1-4.3-1.7-6.6c-9.3,15.3-4.8,30.9-4.5,46.2c7.9-4.7,15.4-8.9,22.6-13.6
	c7.5-4.9,15.9-9.1,21.6-15.7c5.6-6.5,8.4-15.5,12.4-23.4c0.4-0.9,0.3-2,0.8-2.9c5-8.8,2.6-16.6-3.4-23.8l0,0c7,3.2,9.9,9.4,8.5,17
	c-0.7,3.9-1.2,8-0.8,11.9c0.2,2.2,2.2,4.4,3.4,6.5c1.8,3.1,3.8,6.1,5.5,9.3c3.9,7.1,8.9,13.8,11.3,21.3c2.2,6.7,2.3,14.4,2,21.6
	c-0.7,14.2-2.4,28.4-3.7,42.6c-0.3,2.1-0.8,5.6-0.9,3.7c-0.5-2.1-0.8,0.8-1,0.1c-0.3,0.3-0.3-0.7-0.3-0.5c-0.1,0.1-0.3-0.3-0.4-0.2
	c-0.3,0.4-0.1,0.6-1.5,0.7c1.3-8.4,2.5-21.1,3.8-29.5c-0.4-0.1-0.8-0.3-1.1-0.4c-3.6,7.5-7.3,14.9-10.9,22.4
	c-0.6-0.3-1.2-0.6-1.7-0.9c2.1-4.9,4.1-9.9,6.4-14.8c2-4.4,4.6-8.5,6.3-13c1.6-4.3,2.2-9,3.3-13.5c-0.5-0.1-1-0.3-1.5-0.4
	c-3.1,6.3-6.2,12.5-9.3,18.8c-0.6-0.3-1.1-0.5-1.7-0.8c4.8-11.3,13.1-21.9,8.5-35.7c-4.1,17.3-12.8,31.4-27.3,41.5
	c-0.3-0.3-0.7-0.6-1-0.8c2.5-2.4,5.1-4.8,7.6-7.2c10.7-9.9,15.3-23.1,19.1-36.7c0.2-0.7,0.1-1.7-0.2-2.4c-3-5.6-6-11.1-9.4-17.3
	c-0.1,1.7-0.2,2.6-0.3,5c-2.5-4.2-4.2-7.2-6.7-11.4 M303.2,332.9c-1.3,1.9-2.4,5.2-4.2,5.7c-6.8,2-14,2.7-20.8,4.8
	c-8.5,2.5-17.3,4.2-24.6,10.1c-6.5,5.3-13.9,9.4-20.8,14.2c-3.7,2.6-7.1,5.5-10.6,8.2c0.3,0.4,0.5,0.8,0.8,1.1
	c5.8-2.4,11.7-4.6,17.4-7.2c9.9-4.4,19.6-9.2,30.3-11.8c10.6-2.6,21.1-6.1,31.5-9.4c1.4-0.5,3.4-2.6,3.3-3.8
	C305.2,340.7,304,336.6,303.2,332.9z M266,344.2c11.7-2.7,22.6-5.2,32.6-7.5c1.1-8.5,2.2-16.3,3.4-25.2
	C289.6,322.7,278.1,333.1,266,344.2z M226.2,320.9c-4.7-13.8-9.3-27.2-13.8-40.6c-0.5,0.1-1,0.2-1.5,0.3c0,7.8-0.1,15.5,0.1,23.3
	c0,1.3,0.6,3,1.5,4C216.9,312.3,221.5,316.5,226.2,320.9z M313.5,368.8c-0.1,0-0.2-0.1-0.2-0.1c0-6.3,0-12.7,0-19
	c-0.4,0-0.7,0-1.1,0C312.6,356,313,362.4,313.5,368.8z"/>
<path d="M94,347c-2.2,2.3-4.8,3.9-4,8.2c0.3,1.8-2.7,4.2-4.7,7c2.3,0.4,4.2,0.7,6.2,1c2.6,4.8-2.7,12.5,4.7,14.9
	c0.8,1.9,1,3.6,1.9,4.4c6.2,5.2,12.7,10.1,19,15.2c0.9,0.7,1.7,1.4,2.6,2.2c-8.4,4-12.1-3-16.8-7.1c-2.9-2.6-5.1-6-7.9-9.3
	c-0.6,1.2-1.1,2.2-1.8,3.7c-0.4-1.7-0.8-3.1-1.1-4.4c-0.2,0-0.5,0-0.7,0.1c0.7,5.6,1.4,11.3,2.1,16.9c-0.4,0.1-0.9,0.2-1.3,0.3
	c-0.7-2.9-1.4-5.8-2-8.4c0,1.1,0,2.6,0,4.1c-0.2,0.1-0.5,0.1-0.7,0.2c-0.6-2.2-1.2-4.4-1.7-6.6c-0.2,0-0.3,0-0.5,0
	c0,2.5,0,4.9,0,7.4c-0.3,0.1-0.6,0.1-0.9,0.2c-3.3-6.3-6.6-12.6-9.7-18.9c-1.1-2.2-6.7-3-10.4-1.4c-2.4,1-4.9,1.8-7.4,2.3
	c-0.7,0.1-1.6-1.2-2.4-1.8c0.7-0.6,1.3-1.5,2.1-1.7c2.6-0.8,5.4-1.4,8.9-2.3c-3.7-5.8-7-10.9-10.3-16.1c0.4-0.4,0.7-0.7,1.1-1.1
	c2.3,2.5,4.9,4.7,6.8,7.4c2.1,2.9,3.5,6.3,5.3,9.4c11.8-5.4,13.2-13.9,4-22.9c-4.1-4-8.5-7.7-12.7-11.5c0.4-0.5,0.8-0.9,1.2-1.4
	c4.9,4.1,9.8,8.2,15.8,13.3c-2.1-11.8-4-22.3-5.9-32.7c0.3-0.2,0.6-0.3,0.9-0.5c2,5.3,4,10.6,6,16.1c0.7-3.6,1.4-7,2.1-10.4
	c0.4,0,0.8-0.1,1.1-0.1c0.8,10.1,1.6,20.2,2.4,30.3c0.4,0.2,0.8,0.4,1.2,0.5c5.6-10.7,11.2-21.4,17.1-32.7
	C104.4,331.4,97.7,338.7,94,347L94,347z M85.9,366.7c-0.4-0.2-0.7-0.4-1.1-0.5c-1.7,2.3-3.4,4.6-5,6.9c0.2,0.2,0.4,0.3,0.6,0.5
	c0.9-0.6,1.7-1.2,3-2.1c-0.1,1.4-0.2,2.3-0.3,3.2c0.4,0.1,0.8,0.1,1.1,0.2C84.8,372.1,85.4,369.4,85.9,366.7z"/>
<path d="M93.9,347.1c6.4-6.4,13.9-12,15.8-21.8c3-16.3,8.1-32.2,7-49.8c-2.6,8.6-5,16.5-7.4,24.4c-0.6-0.2-1.2-0.3-1.7-0.5
	c4-16.7,8-33.5,12-50.2c0.5,0.1,1,0.1,1.4,0.2c-1.2,19.7-2.4,39.5-3.5,57.9c2-5.8,4.6-12.9,7.1-20.1c0.4,0.1,0.8,0.3,1.2,0.4
	c-1,3.4-2.3,6.7-3,10.1c-0.5,2.5,0,5.2-0.3,7.7c-0.3,1.9-1.2,3.8-1.9,5.6c-0.7,1.6-1.6,3.1-2.3,4.7c0.4,0.3,0.9,0.6,1.3,0.9
	c4.1-5.8,8.5-11.5,12.4-17.5c11.1-17.2,16.7-36.4,19.5-56.5c0.4-3.1,0.4-6.3,0.2-9.5c-0.1-0.9-1.4-1.7-2.7-3
	c8.8-10.6,21.9-4.1,32.6-7.5c0.2,0.7,0.4,1.4,0.6,2.1c-1.6,0.3-3.1,0.8-4.7,0.9c-6.1,0.4-12.3,0.4-18.4,1c-3.9,0.4-6,2.7-5.8,7.2
	c0.3,5.7,0.1,11.5,0.1,16.2c1.4-5.8,3-12.8,4.6-19.7c0.5,0.1,1,0.2,1.4,0.3c-1.1,6.3-2,12.7-3.5,18.8c-1.6,6.4-3.9,12.6-5.9,19
	c0.4,0.1,0.8,0.3,1.2,0.4c4.6-13.2,9.2-26.5,13.8-39.7c0.4,0.1,0.7,0.1,1.1,0.2c-0.9,4.5-1.3,9.1-2.8,13.4
	c-6.8,20.2-14.8,40-27,57.5c-5.5,7.9-13.4,14-19.7,21.3c-2.6,3-3.9,7.1-5.8,10.6c-0.9,1.6-1.6,3.4-2.8,4.7c-5.1,5.6-10.5,11-16.5,16
	C92.2,350.9,93.1,348.9,93.9,347.1C94,347,93.9,347.1,93.9,347.1z"/>
<path d="M191.8,400.4c-1.3-39.3-2.5-78.6-3.8-118.3c0.7,1.5,1.6,2.8,1.9,4.2c0.6,3.1,1.1,6.2,1.2,9.4c0,5.5,0.9,9.6,6.2,13.4
	c10.8,7.6,16.2,19.7,22.2,30.8c-1.4,0-3.2-0.5-3.8,0.1c-0.9,0.9-1.3,2.7-1.2,4c0.5,11.1,1.1,22.2,1.6,33.2c-0.6,0.1-1.2,0.2-1.8,0.2
	c-0.2-2.1-0.5-4.2-0.7-6.3c-0.2-2.3-0.2-4.7-0.6-7c-2-12.8-3-25.9-6.6-38.2c-1.9-6.6-8.3-11.9-13.4-17.4
	c-1.8,30.9,3.1,61.3,0.4,91.7C193,400.4,192.4,400.4,191.8,400.4z"/>
<path d="M166.1,358.1c0.9,1.7,1.9,3.3,3.3,5.9c-4.1-2.3-7.3-4.2-10.5-6l0.1,0.1c-7.7-5.4-15.3-10.8-23.4-16.5
	c-1.4,2.7-2.4,4.6-3.3,6.4c-0.4-0.2-1-0.4-1-0.5c1-10.1,2.5-20.2,6.4-29.6c1.2-3,3.1-4.6,6.5-2c2.6,2,5.6,3.3,8.8,5
	c-0.1-1.5-0.1-2.1-0.3-4.4c7.8,5.8,14.5,10.8,21.4,16c-1.5,3.7-3.6,1.5-5.3,0.5c-8.6-5.1-17.1-10.2-26.1-15.6
	c-2.4,7.2-4.7,13.7-6.6,20.3c-0.3,0.9,0.7,2.9,1.6,3.4c3.2,2,6.7,3.6,10.1,5.3C153.9,350.4,160,354.2,166.1,358.1z"/>
<path d="M166.1,358.1c-6.1-3.9-12.2-7.7-18.3-11.6c-1.5-2.8,0.4-2,1.6-1.3c5.3,3.1,10.5,6.3,15.9,9.3c6.5,3.6,13.1,6.9,21.2,11.2
	c-1.2-25.4-2.3-49.1-3.5-72.7c0.4,0,0.8,0,1.2,0c3.1,35.8,5,71.6,4.3,107.5c-0.7,0-1.4,0-2.1,0.1c-0.1-9.8-0.4-19.6-0.1-29.5
	c0.1-3.1,0.2-4.7-3.5-5.6c-3.9-1-7.6-3.3-11.3-5.1C169.7,359.6,167.9,358.9,166.1,358.1z"/>
<path d="M80.5,263.5c-5.5,6.2-11.9,11.7-16.2,18.6c-6.9,11.1-16.2,19.8-25.5,28.7c-6.6,6.4-13.5,12.3-21.1,19.3
	c0.6-1.8,0.6-3,1.1-3.6c6.3-7,12.6-13.9,19-20.7c12.9-13.5,26-26.9,39.1-40.4c0.9-0.9,1.9-1.8,2.9-2.7
	C80.1,263,80.3,263.2,80.5,263.5z"/>
<path d="M344.1,355.4c-0.5,1.1-0.1,2.6-0.1,3.9c-2,5.3-4,10.6-6.4,16.9c3.7-3.3,6.6-5.8,9.5-8.4c0.3,0.3,0.6,0.6,0.9,0.9
	c-2,2.4-4.4,4.6-6,7.3c-3.8,6.4-7.2,13-10.9,19.4c-1.2,2-2.8,3.8-4.2,5.6c-0.5-0.3-1-0.6-1.5-0.9c2.2-4.9,4.9-9.6,6.6-14.7
	c1.9-5.4,2.8-11.2,4.6-16.8c1.7-5.5,3.7-11,6-16.3c3.3-7.7,6.9-15.2,10.3-22.8"/>
<path d="M231,114.1c-2.4,2.9-4.8,5.8-7.2,8.7c0.2,0.2,0.3,0.5,0.5,0.7c1.2-0.7,2.4-1.4,4.2-2.5c0.2,3.4,0.9,5.8,5.1,5.2
	c1.2-0.2,3.1,3.1,4.4,5c1.6,2.3,3,4.8,4.7,7.5c-6.3-1.9-12.3-3.3-15.6-9.5c-0.4-0.7-3.1-0.9-4.3-0.3c-2.9,1.5-5.5,3.5-8.7,5.6
	c-0.6-5.9,3.2-8.4,6.1-11.8c-2,1.3-4,2.6-6,3.9c-0.3-0.4,0.7,0.9-0.3-0.4c5.6-4,10.6-8.9,16.3-12.9
	C230.5,113.6,230.8,113.8,231,114.1z"/>
<path d="M168.8,233.2c-7.1,33-20.6,63-41.9,89.3c8-14.4,16.8-28.5,23.7-43.3C157.6,264.3,162.8,248.5,168.8,233.2z"/>
<path d="M276.9,139.8c2.5,6.3,5,12.7,7.5,19c0.2,0,0.5,0,0.7,0c-0.3-3.9-0.7-7.8-1-11.6c0.3-0.1,0.5-0.2,0.8-0.3
	c1.2,2.1,2.5,4.2,3.9,6.6c0,4,0,9,0,14c-0.3,0.1-0.6,0.2-0.9,0.3c-0.5-0.7-0.9-1.3-1.2-1.6c-1.9,3.7-3.9,7.5-6.3,12.2
	c-0.8-1.5-1.1-1.9-1-2c7-10.9,1.3-21-2-31.3c-0.5-1.5-1.2-3-1.8-4.5C275.9,140.3,276.4,140.1,276.9,139.8z"/>
<path d="M268,314c-0.6-0.1-1.3-0.2-1.9-0.3c-0.3-0.4-0.6-0.9-0.9-1.3c21-10.5,35.9-28.1,51.9-44.3c0.4,0.3,0.8,0.7,1.3,1
	c-1.1,1.6-2.1,3.3-3.4,4.7c-12.8,14.5-27.1,27.3-43.7,37.4C270,311.9,269,313.1,268,314C267.9,314.1,268,314,268,314z"/>
<path d="M130.1,215.2c-13.9,12.7-27.9,25.5-41.8,38.2c-0.1-0.1-0.3-0.2-0.4-0.3c3.6-4.2,6.9-8.7,10.8-12.5
	c8.1-7.8,16.5-15.3,24.9-22.8c1.7-1.5,4.1-2.1,6.1-3.1C129.9,214.9,130,215.1,130.1,215.2z"/>
<path d="M285.6,182.3c8.7,6.3,10.5,24.9,2.6,32C291.5,202.9,288.4,192.9,285.6,182.3z"/>
<path d="M261.8,197.9c-5.8,0.8-11.4-6.9-17.7-0.8c2.6,1,4.6,1.9,6.7,2.7c-0.1,0.4-0.2,0.8-0.3,1.3c-2.9-0.6-6-0.8-8.7-2
	c-1.9-0.9-3.3-3-5.8-5.5c1.8-0.9,4-2.8,5.7-2.5c6.9,1.3,13.6,3.2,20.4,4.9C262,196.7,261.9,197.3,261.8,197.9z"/>
<path d="M266.7,195.6c-6.7-8.4-16.6-7.2-25.5-8.8c-5-0.9-6.7-2.3-5.9-6.4c6.5,2.3,12.8,5.9,19.4,6.5
	C261,187.6,264.1,190.7,266.7,195.6z"/>
<path d="M136.7,222.6c-2.4,13-4.7,26.1-7.1,39.1c-0.5-0.1-1-0.2-1.5-0.3C128.5,248,132.2,235.2,136.7,222.6z"/>
<path d="M355.1,362.4c7.7-10.5,15.5-21.1,23.2-31.6c0.5,0.4,1,0.8,1.6,1.1c-7.7,10.5-15.4,21.1-23,31.6
	C356.2,363.1,355.6,362.8,355.1,362.4z"/>
<path d="M158.9,358c1.4,1,2.8,2,4.2,3c-0.2,0.4-0.5,0.8-0.7,1.2c-9.5-2.6-17.3-8.5-25.1-14.3C144.5,351.3,151.7,354.6,158.9,358
	C158.9,358,158.9,358,158.9,358z"/>
<path d="M243.1,100.4c-0.1-0.6-0.2-1.2-0.3-1.8c4.8-1.5,9.5-3,14.3-4.5c0.1,0.5,0.3,1,0.4,1.5c-1.7,0.2-3.5,0.5-5.2,0.7
	c0,0.3,0,0.6,0,0.9c4-0.2,8-0.4,12-0.6"/>
<path d="M107.4,244.9c6.5-8.2,13-16.3,19.5-24.5c0.4,0.3,0.9,0.7,1.3,1c-6.4,8.2-12.8,16.4-19.2,24.6
	C108.5,245.7,107.9,245.3,107.4,244.9z"/>
<path d="M349.2,356.1c2.7-9.5,9.4-16.3,16.7-22.7C360.3,340.9,354.8,348.5,349.2,356.1z"/>
<path d="M260.4,132.1c4.8,7.5,9.6,15.1,14.5,22.6c-0.6,0.4-1.2,0.8-1.8,1.1c-4.7-7.6-9.4-15.3-14-22.9
	C259.5,132.7,259.9,132.4,260.4,132.1z"/>
<path d="M244.1,130.4c1-0.2,2.7-0.9,3-0.5c4.5,5.1,8.8,10.4,13.2,15.6c-0.3,0.3-0.6,0.6-0.9,0.9c-1.8-1.6-3.8-3.2-5.4-4.9
	c-2.7-2.8-5.2-5.9-7.7-8.8C245.6,131.9,244.8,131.1,244.1,130.4z"/>
<path d="M159.1,342.5c1.6-0.8,3.1-2.2,4.7-2.2c1.1,0,2.9,2,3,3.2c0.2,1.9-0.7,4-1.2,6c-1.2-0.6-3.3-0.9-3.5-1.7
	c-0.4-1.6,0.2-3.4,0.4-5.1c-0.8,0.3-1.8,0.7-2.8,1.1C159.5,343.4,159.3,343,159.1,342.5z"/>
<path d="M269.5,136.9c3.8,7.6,7.7,15.1,11.5,22.7c-0.5,0.3-1.1,0.6-1.6,0.9c-3.8-7.5-7.7-15.1-11.5-22.6
	C268.4,137.4,269,137.2,269.5,136.9z"/>
<path d="M208.3,169.4c3,3.4,8.7,4.1,9.9,10.6c-4.3-2.4-7.8-4.1-11.1-6.3c-0.7-0.5-0.4-2.6-0.6-3.9
	C207.1,169.6,207.7,169.5,208.3,169.4z"/>
<path d="M259.3,103.9c-0.6,6.6-1.2,13.2-1.7,19.9C255.5,116.9,255.8,110.3,259.3,103.9z"/>
<path d="M306.9,155.1c-5.4,6.3-10.8,12.5-16.1,18.8C293.7,165.5,300,160,306.9,155.1z"/>
<path d="M244.1,130.4c0.7,0.8,1.5,1.5,2.2,2.3c1.9,3.2,3.7,6.4,5.6,9.6c-0.3,0.2-0.7,0.4-1,0.7c-4.1-5.3-8.1-10.5-12.2-15.8
	c0.2-0.3,0.4-0.6,0.6-0.9C240.9,127.6,242.5,129,244.1,130.4z"/>
<path d="M263.3,146.9c-4.1-5.7-8.2-11.4-12.2-17c0.5-0.3,0.9-0.6,1.4-1c4.1,5.7,8.2,11.3,12.3,17
	C264.3,146.2,263.8,146.6,263.3,146.9z"/>
<path d="M255.8,298.4c2,4,7.2,6.6,4.7,14c-2.5-5.1-4.5-9.1-6.5-13.2C254.6,299,255.2,298.7,255.8,298.4z"/>
<path d="M267,109c-0.7,0.2-1.4,0.5-3.5,1.2c3.7-4.3,6.5-7.4,9.2-10.5c0.6,0.5,1.1,1,1.7,1.5c-1.8,2.3-3.6,4.6-5.4,6.9
	C268.3,108.4,267.6,108.7,267,109z"/>
<path d="M267.9,314.1c3.5-1.6,7.1-3.3,10.6-4.9c0.2,0.4,0.4,0.7,0.6,1.1c-5.2,3-10.4,6-15.6,9c-0.3-0.4-0.5-0.9-0.8-1.3
	C264.5,316.6,266.3,315.3,267.9,314.1C268,314,267.9,314.1,267.9,314.1z"/>
<path d="M283.9,109c-2.7,7-5.4,14-8.1,21.1C276.4,122.2,278.4,114.9,283.9,109C283.9,109,283.9,109,283.9,109z"/>
<path d="M247.9,108.1c0,5.1,0,10.2,0,15.3c-0.3,0-0.6,0-0.9,0.1c0-5.1,0-10.3,0-15.4C247.3,108,247.6,108,247.9,108.1z"/>
<path d="M97.1,391.1c2.8,3.2,5.5,6.5,8.1,9.4c-3.2,0.1-7.1-3.3-9.2-8.3C96.4,391.8,96.8,391.5,97.1,391.1z"/>
<path d="M251.7,331.6c-2.4-4.6-4.8-9.1-7.2-13.7c0.6-0.3,1.1-0.6,1.7-0.9c2.3,4.6,4.5,9.2,6.8,13.9
	C252.6,331.2,252.1,331.4,251.7,331.6z"/>
<path d="M144.2,223.4c0,4.4,0,8.8,0,13.2c-0.4,0-0.8,0-1.2,0c0-4.4,0-8.8,0-13.2C143.4,223.4,143.8,223.4,144.2,223.4z"/>
<path d="M267,109c0.7-0.3,1.3-0.6,2-0.9c-1,5.2-1.9,10.4-2.9,15.7c-0.5-0.1-1-0.2-1.5-0.2C265.4,118.6,266.2,113.8,267,109z"/>
<path d="M313.5,368.8c-0.4-6.4-0.9-12.7-1.3-19.1c0.4,0,0.7,0,1.1,0c0,6.3,0,12.7,0,19C313.3,368.7,313.4,368.7,313.5,368.8z"/>
<path d="M283.9,109c0,0,0-0.1,0.1-0.1C284,108.9,283.9,109,283.9,109L283.9,109z"/>
<path d="M320.2,198c0.1,2.4,0.3,4.5,0.4,7.5c1.3-2.2,2.2-3.8,3.2-5.3L320.2,198z"/>
<path d="M85.9,366.7c-0.6,2.7-1.2,5.4-1.7,8.2c-0.4-0.1-0.8-0.1-1.1-0.2c0.1-0.9,0.2-1.8,0.3-3.2c-1.3,0.9-2.1,1.5-3,2.1
	c-0.2-0.2-0.4-0.3-0.6-0.5c1.7-2.3,3.4-4.6,5-6.9C85.2,366.3,85.6,366.5,85.9,366.7z"/>
<path d="M209.8,180.8c0.9,0,1.4-1.4,1.4-1.4l3.9,2.8c0.4-0.1,0.8-0.3,1.2-0.5c-2.9-2.4-5.6-4.6-8.7-7.2c-0.9,6.4,0.7,9.2,5.5,8.2
	C212.5,182.2,210.9,181.7,209.8,180.8z"/>
<path d="M241,241.7c-15.5,1.4-33.4-8.5-33.6-8.6l-0.2-0.1l0,0.3c0.1,0.6,2.4,15,14.6,15.1l0.2,0c11.2,0,17.9-5.3,19.1-6.4l0.3-0.3
	L241,241.7z M219.6,241c0.4,0.2,0.8,0.3,1.1,0.4c-3.8,0-5.9,0.3-6.8,0.5c-2.4-2.5-4-5.1-4.9-6.6C210.4,236.4,213.6,238.5,219.6,241z
	"/>
<path d="M306.9,210.1l-3.3,11.5c0,0,3.7-1,5.3-2.7s-2-1.8-2-1.8V210.1z"/>
<polyline points="315.6,200 314.7,201.1 306.9,210.1 311.3,207.3 314.6,208.1 313.8,205.1 "/>
<path d="M347.9,159.2c2.4,11.7-8.8,40.7-17.4,44.3c0-0.9-0.2-1.7-0.1-2.4c0.5-4.1,1-8.2,1.5-12.2c0.4-3-1-3.9-3.9-2.8
	c0,1.4,0,2.9,0,4.8c-3.7,0-7.3,0-11,0c0-1.7,0-2.9,0-4.1c-0.2,0-0.4,0.1-0.6,0.1c-0.4,1.4-0.8,2.8-1.1,4.2
	c-9,1.7-19.3,24.2-21.6,29.5c3-4.9,19.8-22.8,19.8-22.8c4.6-2,8.4-3.7,12.3-5.5c3.1,9.7,2.6,14.7-1.5,17.5l-11.8,7.3
	c0.1,0,0.3,0,0.4-0.1c0,3.5-6.2,13-10.6,14.8l-0.8-7.9l-2.3,1.4c0.9,5.7,0.2,10.2-5.3,13.4c-6.7,3.9-13.1,8.3-19.4,12.3
	c3.9,4.9,9.1,3.4,13.6,1.6c4.4-1.8,8.1-5.1,12.1-7.7c-0.2-0.3-0.4-0.5-0.5-0.8c-1.4,0.5-2.9,1-5.1,1.9c6.4-5.3,12-9.9,17.6-14.6
	c0.2,0.1,0.4,0.1,0.6,0.2c-3.4,4.7-6.9,9.4-10.3,14.1c0.3,0.2,0.6,0.4,0.8,0.5c1.4-0.6,2.9-1.3,4.9-2.2c1.9,5.2,3.7,10,5.5,14.8
	c1,2.7,0.8,4.8-1.7,6.5c-7.7,5.2-14.9,11.4-23.2,15.3c-11.9,5.7-24.6,9.9-37.1,14.4c-1.2,0.5-3.8-0.5-4.7-1.6c-3-4-5.2-8.4-8.1-12.5
	c-1.8-2.6-4.3-4.7-6.5-7c-0.4,0.4-0.8,0.7-1.2,1.1c5,7.4,9.9,14.9,15.1,22.1c0.7,0.9,3.2,1.3,4.5,0.9c5.2-1.8,10.1-4.2,15.3-6.1
	c3.1-1.2,6.4-1.8,10.8-2.9c-1.4,2.5-2,3.7-2.6,4.9c0.3,0.3,0.6,0.6,0.8,0.9c10.4-7.4,21.2-14.3,31.1-22.3c13.8-11,13.2-8.6,5.5-26.3
	c-2.2-5.2-1-8.3,2.4-12.4c2.8,4.7,5.5,9,8.1,13.2c0.5-0.3,0.5-0.3,0.9-0.5c-0.3-1.1,0-2.5-0.4-3.4c-1.6-3.5-3.5-6.8-4.9-10.4
	c-0.5-1.3,0-3.1,0.1-4.6c1.3,0.4,2.7,0.6,3.8,1.3c1.4,0.8,2.7,1.9,4.1,2.9c6.9,5,13.4,10,15.6,19.2c1.5,6.5,4.4,12.9,7.6,18.9
	c2.2,4.2,3.9,9.4,8.4,11c-6.1-13.8-12.3-27.8-18.5-41.8c0.3-0.3,0.7-0.5,1-0.8c1.6,1.9,3.8,3.6,4.8,5.8c4.4,8.9,8.4,17.9,12.8,26.8
	c1.9,3.8,4.2,7.3,6.3,10.9c0.5-0.3,1-0.6,1.5-0.9c-2.5-5-4.9-9.9-7.9-15.8c2.4,0.8,3.5,1.2,4.6,1.5c0,0,0,0,0,0
	c-2.1-2.5-4.4-4.9-6.1-7.7c-3.3-5.2-5.9-10.9-9.6-15.8c-2.2-3-5.8-5-8.9-7.2c-2.8-2-5.8-3.7-8.7-5.5c-3.8-2.4-3.4-5.3-0.8-8.3
	c3.5-4.1,7.8-7.8,10.3-12.5c5-9.5,9-19.4,13.2-29.3c0.8-1.9,1.5-4.1,1.6-6.2c0.7-15.9-2.6-31.1-8.9-45.6c-0.7-1.6-2.2-2.9-3.3-4.4
	c-0.1,0.1-0.3,0.3-0.4,0.4c1.7,4.1,3.5,8.3,5.2,12.4c-4.4-6.2-8.9-12.3-12.4-18.9c-4.5-8.4-11.6-14.8-19.2-18.9
	c-8-4.2-18.1-4.8-27.2-6.7c-3.1-0.7-6.8,0.3-9.3-1.2c-6.4-3.8-10.8,1.4-16.2,2.2c4.5,0.9,9.1,2.1,13.4,1.3
	c6.2-1.2,11.7,1.9,18.2,0.9c5.9-0.9,12.8,4.3,19.1,7c0.8,0.4,1.2,1.8,2.3,3.6c-23.4-8.7-23.4-8.7-28-5.9c1.3,0.3,2.3,0.5,2.9,0.6
	c-1.6,2.5-3.2,5-4.8,7.6c1.8-0.7,3.6-1.4,5.3-2.1c1.1-0.2,1.4-1.5,2.3-2.1c1.6-1.1,3.5-1.7,5.2-2.5c0.3,1.6,0.8,3.2,0.7,4.8
	c-0.1,2.9-0.6,5.7-0.9,8.6c0.5,0.1,0.9,0.2,1.4,0.3c0.6-3.8,1.2-7.6,2-12.2c9.2,4.7,17.9,7.9,19.1,19c0.3,2.7,2,5.3,3,7.9
	c0.3-0.1,0.6-0.2,0.9-0.3c-0.9-3.9-1.8-7.9-2.8-11.8c0.3-0.1,0.5-0.2,0.8-0.2c1.5,4.4,2.9,8.8,4.4,13.1c0.3-0.1,0.7-0.3,1-0.4
	c-0.5-2.5-0.9-5-1.6-8.6c5,8.2,9.4,15.4,13.6,22.7c1.1,1.9,1.7,4.1,2.6,6.2c0.4-0.2,0.8-0.3,1.2-0.5c-0.8-4.9-5.2-9.1-2.9-14.7
	c2.7,3.8,4.7,7.8,6.7,11.9c2.1,4.2,0.7,8.2-1.8,11.3c-3.2,4.2-7.2,7.8-10.9,11.7c-1.3,1.3-2.6,2.6-3.9,3.8 M324.2,224.2
	c-0.2,0.7-2,0.8-3.1,1.2c-0.2-1.1-1-2.5-0.5-3.3c1.3-2.4,3.1-4.5,4.7-6.8c0.3,0.1,0.7,0.3,1,0.4
	C325.6,218.6,325.1,221.5,324.2,224.2z"/>
<path d="M293.7,220.5c-0.3,0.5-0.5,0.9-0.5,1.1C293.2,221.6,293.4,221.2,293.7,220.5z"/>
</svg>
