<?xml version="1.0" encoding="UTF-8" standalone="no"?><!DOCTYPE svg PUBLIC "-//W3C//DTD SVG 1.1//EN" "http://www.w3.org/Graphics/SVG/1.1/DTD/svg11.dtd"><svg width="100%" height="100%" viewBox="0 0 95 100" version="1.1" xmlns="http://www.w3.org/2000/svg" xmlns:xlink="http://www.w3.org/1999/xlink" xml:space="preserve" xmlns:serif="http://www.serif.com/" style="fill-rule:evenodd;clip-rule:evenodd;stroke-linejoin:round;stroke-miterlimit:2;"><path id="Layers" d="M2.208,26.97c-1.516,-0.774 -2.244,-2.336 -2.206,-3.88c-0.04,-1.562 0.694,-3.141 2.227,-3.922c0,0 25.217,-12.492 38.234,-17.721c4.851,-1.948 10.186,-1.928 15.023,0.055l37.76,17.708c1.517,0.774 2.245,2.336 2.207,3.878c0.04,1.564 -0.694,3.143 -2.23,3.924c0,0 -25.214,12.492 -38.232,17.721c-4.85,1.948 -10.185,1.926 -15.023,-0.055l-37.76,-17.708Zm91.038,19.15c1.517,0.774 2.245,2.336 2.207,3.88c0.04,1.562 -0.694,3.141 -2.23,3.922c0,0 -25.214,12.492 -38.232,17.722c-4.85,1.947 -10.185,1.926 -15.023,-0.055l-37.76,-17.708c-1.516,-0.775 -2.244,-2.336 -2.206,-3.878c-0.04,-1.564 0.694,-3.144 2.227,-3.925c0,0 3.292,-1.629 8.098,-3.952l29.641,13.9c4.838,1.981 10.173,2.003 15.023,0.055c8.32,-3.343 21.619,-9.649 30.136,-13.767l8.119,3.806Zm0,26.911c1.517,0.774 2.245,2.336 2.207,3.88c0.04,1.562 -0.694,3.141 -2.23,3.922c0,0 -25.214,12.492 -38.232,17.721c-4.85,1.948 -10.185,1.926 -15.023,-0.055l-37.76,-17.708c-1.516,-0.774 -2.244,-2.336 -2.206,-3.878c-0.04,-1.564 0.694,-3.143 2.227,-3.924c0,0 3.292,-1.63 8.098,-3.953l29.641,13.9c4.838,1.981 10.173,2.003 15.023,0.057c8.32,-3.345 21.619,-9.651 30.136,-13.768l8.119,3.806Z"/></svg>