<?xml version="1.0" encoding="utf-8"?>
<!-- Generator: Adobe Illustrator 21.1.0, SVG Export Plug-In . SVG Version: 6.00 Build 0)  -->
<svg version="1.1" xmlns="http://www.w3.org/2000/svg" xmlns:xlink="http://www.w3.org/1999/xlink" x="0px" y="0px"
	 viewBox="0 0 400 400" style="enable-background:new 0 0 400 400;" xml:space="preserve">
<g id="Cirlce">
	<g>
		<path d="M200,20.1c48.1,0,93.2,18.7,127.2,52.7c34,34,52.7,79.2,52.7,127.2s-18.7,93.2-52.7,127.2c-34,34-79.2,52.7-127.2,52.7
			s-93.2-18.7-127.2-52.7c-34-34-52.7-79.2-52.7-127.2s18.7-93.2,52.7-127.2C106.8,38.8,151.9,20.1,200,20.1 M200,0.1
			C89.6,0.1,0.1,89.6,0.1,200S89.6,399.9,200,399.9S399.9,310.4,399.9,200S310.4,0.1,200,0.1L200,0.1z"/>
	</g>
</g>
<g id="Accelerometer">
	<path d="M201.5,103.6c7.7,13.2,15,25.9,22.3,38.5c1.2,2,1.4,3.4-1.7,3.2c-0.8-0.1-1.7,0-2.5,0c-10.7,0-10.7,0-10.7,10.5
		c0,12.2,0.1,24.3-0.1,36.5c0,2.7,0.8,4.1,3.2,5.5c12.6,7.1,25.1,14.4,37.6,21.7c2.4,1.4,3.7,1.3,5-1.3c1.9-3.7,4.1-7.1,6.5-11.2
		c8.1,14,15.8,27.3,23.8,41.2c-15.9,0-31.4,0-47.2,0c1.3-4.1,3.9-7.6,6.1-11.2c1.2-2,1-3-1.1-4.3c-13-7.4-26-14.9-38.9-22.4
		c-1.8-1.1-3.2-1-5,0.1c-12.8,7.5-25.5,14.9-38.4,22.2c-2.7,1.5-2.4,2.8-1.1,5c2.1,3.3,4,6.8,6.2,10.8c-16.1,0-31.6,0-47.7,0
		c7.9-13.8,15.6-27.1,23.5-40.8c3.3,3,4.7,6.9,6.6,10.4c1.4,2.6,2.6,3.1,5.4,1.5c12.4-7.4,25-14.6,37.6-21.7c2.1-1.2,3.1-2.5,3.1-5
		c-0.1-14.5-0.1-29,0-43.5c0-3.1-0.9-4.2-3.9-3.9c-2.8,0.2-5.7-0.1-8.5,0.1c-3.6,0.2-4-0.8-2.2-3.8c6.8-11.6,13.5-23.3,20.3-34.9
		C200.1,105.7,200.6,104.9,201.5,103.6z"/>
	<g>
		<path d="M200,337.3l-82.4-48c-2.4-1.4-3.2-4.5-1.8-6.8c1.4-2.4,4.5-3.2,6.8-1.8l77.4,45.1l78.1-45.1c2.4-1.4,5.5-0.6,6.8,1.8
			c1.4,2.4,0.6,5.4-1.8,6.8L200,337.3z"/>
	</g>
	<g>
		<path d="M86.1,232.5c-2.8,0-5-2.2-5-5l-0.2-96l82.6-47.5c2.4-1.4,5.5-0.6,6.8,1.8c1.4,2.4,0.6,5.5-1.8,6.8l-77.6,44.6l0.2,90.2
			C91.2,230.3,88.9,232.5,86.1,232.5C86.2,232.5,86.1,232.5,86.1,232.5z"/>
	</g>
	<g>
		<path d="M314,232.5C314,232.5,314,232.5,314,232.5c-2.8,0-5-2.3-5-5l0.2-90.2l-77.6-44.6c-2.4-1.4-3.2-4.4-1.8-6.8
			s4.4-3.2,6.8-1.8l82.6,47.5l-0.2,96C319,230.3,316.7,232.5,314,232.5z"/>
	</g>
</g>
</svg>
