<?xml version="1.0" encoding="utf-8"?>
<!-- Generator: Adobe Illustrator 21.1.0, SVG Export Plug-In . SVG Version: 6.00 Build 0)  -->
<svg version="1.1" xmlns="http://www.w3.org/2000/svg" xmlns:xlink="http://www.w3.org/1999/xlink" x="0px" y="0px"
	 viewBox="0 0 400 400" style="enable-background:new 0 0 400 400;" xml:space="preserve">
<g id="Cirlce">
	<g>
		<path d="M200,20.1c48.1,0,93.2,18.7,127.2,52.7c34,34,52.7,79.2,52.7,127.2s-18.7,93.2-52.7,127.2c-34,34-79.2,52.7-127.2,52.7
			s-93.2-18.7-127.2-52.7c-34-34-52.7-79.2-52.7-127.2s18.7-93.2,52.7-127.2C106.8,38.8,151.9,20.1,200,20.1 M200,0.1
			C89.6,0.1,0.1,89.6,0.1,200S89.6,399.9,200,399.9S399.9,310.4,399.9,200S310.4,0.1,200,0.1L200,0.1z"/>
	</g>
</g>
<g id="Apple_Watch">
	<path d="M279.1,149.3c-1.2,0-2.3,0.4-3.3,1v-9.2c0-10.3-4.7-19.5-12.1-25.6l0,0c0,0,0,0,0,0c-1.2-1-2.6-2-3.9-2.8
		c-13.7-10.3-11.3-15-15.2-28.6c-4.3-14.8,2.5-27-11.3-31s-60.3-2.3-72-1s-11.8,5.3-13.3,29.3s-15.3,30.2-15.3,30.2l0,0
		c-10.7,5.6-18,16.7-18,29.5v119c0,14.4,9.3,26.7,22.1,31.3c4.2,3.8,10.2,11.9,11.1,27.3c1.5,24,1.5,28,13.3,29.3s58.3,3,72-1
		s7-16.3,11.3-31c3.5-12.1,2-17.2,11.2-25.4c11.7-5.1,20-16.9,20-30.5v-7.5c0,0,0.1,0,0.1,0c0.8,0,1.4-0.6,1.4-1.4v-44.5
		c0-0.8-0.6-1.4-1.4-1.4c0,0-0.1,0-0.1,0v-25c0.9,0.6,2.1,1,3.3,1c3.3,0,6-2.7,6-6v-20C285.1,152,282.4,149.3,279.1,149.3z
		 M250.6,256.6H142.1V142.3h108.5V256.6z"/>
</g>
</svg>
