<?xml version="1.0" encoding="utf-8"?>
<!-- Generator: Adobe Illustrator 21.1.0, SVG Export Plug-In . SVG Version: 6.00 Build 0)  -->
<svg version="1.1" xmlns="http://www.w3.org/2000/svg" xmlns:xlink="http://www.w3.org/1999/xlink" x="0px" y="0px"
	 viewBox="0 0 400 400" style="enable-background:new 0 0 400 400;" xml:space="preserve">
<g id="Cirlce">
</g>
<g id="DC">
	<path d="M393.4,395.6v-4.4h-6.3v-77l1.2-1.2v-18.2l2.9-2.9v-5.5h-33.7v-28.7h1.9l-1.9-5.7H225.7H93.9l-1.9,5.7h1.9v28.7H60.1v5.5
		l2.9,2.9v18.2l1.2,1.2v77h-6.3v4.4h-6.4v5h174.1h174.1v-5H393.4z M91.2,391H77.5v-76.7l1.8-1.8h10.6l1.3,1.3V391z M118,391h-13.8
		v-76.7l1.8-1.8h10.6l1.3,1.3V391z M145.5,391h-13.8v-76.7l1.8-1.8h10.6l1.3,1.3V391z M174.5,391h-13.8v-76.7l1.8-1.8h10.6l1.3,1.3
		V391z M203.9,391h-13.8v-76.7l1.8-1.8h10.6l1.3,1.3V391z M231.8,391h-6.1h-6.1v-76.7l1.8-1.8h4.3h4.3l1.8,1.8V391z M261.2,391
		h-13.8v-77.2l1.3-1.3h10.6l1.8,1.8V391z M290.5,391h-13.8v-77.2l1.3-1.3h10.6l1.8,1.8V391z M319.6,391h-13.8v-77.2l1.3-1.3h10.6
		l1.8,1.8V391z M347,391h-13.8v-77.2l1.3-1.3h10.6l1.8,1.8V391z M373.8,391h-13.8v-77.2l1.3-1.3H372l1.8,1.8V391z"/>
	<polygon points="30.6,84.3 19.4,52.3 8.2,84.3 1,400 19.4,400 37.8,400 	"/>
</g>
</svg>
