<?xml version="1.0" encoding="utf-8"?>
<!-- Generator: Adobe Illustrator 21.1.0, SVG Export Plug-In . SVG Version: 6.00 Build 0)  -->
<svg version="1.1" id="Deloitte" xmlns="http://www.w3.org/2000/svg" xmlns:xlink="http://www.w3.org/1999/xlink" x="0px" y="0px"
	 viewBox="0 0 400 400" style="enable-background:new 0 0 400 400;" xml:space="preserve">
<path d="M0,400C0,289.5,0,179.5,0,69.1c1.5,0,2.9,0,4.2,0c37.6,0,75.2-0.1,112.8,0.1c25.6,0.1,50.6,3.7,74.4,13.5
	c40.6,16.7,67.2,46.3,78.3,88.7c11.4,43.3,10.4,86.9-4.3,129.2c-17.6,50.9-54.4,81-106.1,93.6c-17.1,4.2-34.5,5.8-52.1,5.8
	c-34,0-68,0-102,0C3.6,400,1.9,400,0,400z M88.1,326.2c1,0.2,1.8,0.5,2.5,0.4c11.6-0.4,23.3,0,34.7-1.5c23-3.1,40.2-14.9,49.9-36.7
	c5.3-11.8,7.9-24.3,9-37.2c1.9-20.6,1.6-41.1-3.7-61.2c-6.6-24.6-21.2-41.9-47.1-46.5c-12.2-2.2-25-1.6-37.5-2.2
	c-2.6-0.1-5.1,0-7.8,0C88.1,203.3,88.1,264.7,88.1,326.2z"/>
<path d="M400,345.1c-0.7,30-23.1,53.5-53.4,53.6c-30,0.1-53.5-22.9-53.6-53.2c-0.1-30,22.9-53.5,53.2-53.6
	C376.2,291.7,399,314.8,400,345.1z"/>
</svg>
