<?xml version="1.0" encoding="utf-8"?>
<!-- Generator: Adobe Illustrator 21.1.0, SVG Export Plug-In . SVG Version: 6.00 Build 0)  -->
<svg version="1.1" xmlns="http://www.w3.org/2000/svg" xmlns:xlink="http://www.w3.org/1999/xlink" x="0px" y="0px"
	 viewBox="0 0 400 400" style="enable-background:new 0 0 400 400;" xml:space="preserve">
<g id="Deloitte">
	<path d="M91.6,294.4c0-65.5,0-130.6,0-196c0.9,0,1.7,0,2.5,0c22.3,0,44.5-0.1,66.8,0c15.1,0.1,30,2.2,44.1,8
		c24.1,9.9,39.8,27.4,46.4,52.5c6.7,25.7,6.1,51.4-2.5,76.6c-10.4,30.1-32.2,48-62.9,55.4c-10.1,2.5-20.5,3.4-30.9,3.4
		c-20.1,0-40.3,0-60.4,0C93.8,294.4,92.8,294.4,91.6,294.4z M143.8,250.7c0.6,0.1,1,0.3,1.5,0.3c6.9-0.3,13.8,0,20.6-0.9
		c13.7-1.8,23.8-8.8,29.5-21.7c3.1-7,4.7-14.4,5.4-22c1.1-12.2,1-24.3-2.2-36.3c-3.9-14.6-12.6-24.8-27.9-27.6
		c-7.2-1.3-14.8-1-22.2-1.3c-1.5-0.1-3,0-4.6,0C143.8,177.9,143.8,214.2,143.8,250.7z"/>
	<path d="M328.6,261.8c-0.4,17.8-13.7,31.7-31.6,31.8c-17.8,0.1-31.7-13.6-31.8-31.5c-0.1-17.8,13.6-31.7,31.5-31.8
		C314.4,230.2,328,243.9,328.6,261.8z"/>
</g>
<g id="Cirlce">
	<g>
		<path d="M200,20.1c48.1,0,93.2,18.7,127.2,52.7c34,34,52.7,79.2,52.7,127.2s-18.7,93.2-52.7,127.2c-34,34-79.2,52.7-127.2,52.7
			s-93.2-18.7-127.2-52.7c-34-34-52.7-79.2-52.7-127.2s18.7-93.2,52.7-127.2C106.8,38.8,151.9,20.1,200,20.1 M200,0.1
			C89.6,0.1,0.1,89.6,0.1,200S89.6,399.9,200,399.9S399.9,310.4,399.9,200S310.4,0.1,200,0.1L200,0.1z"/>
	</g>
</g>
</svg>
