<?xml version="1.0" encoding="utf-8"?>
<!-- Generator: Adobe Illustrator 21.1.0, SVG Export Plug-In . SVG Version: 6.00 Build 0)  -->
<svg version="1.1" id="Gilman_Hall" xmlns="http://www.w3.org/2000/svg" xmlns:xlink="http://www.w3.org/1999/xlink" x="0px"
	 y="0px" viewBox="0 0 400 400" style="enable-background:new 0 0 400 400;" xml:space="preserve">
<polygon points="229,331.4 216.7,331.4 216.7,332.8 215.9,333.6 215.9,390.7 229.4,390.7 229.4,333.2 229,332.8 "/>
<polygon points="208.7,331.3 200,331.3 191.3,331.3 191.3,332.5 190.6,333.2 190.6,390.7 200,390.7 209.4,390.7 209.4,333.2 
	208.7,332.5 "/>
<path d="M385.8,350.9v-16.6l6-3.8l-39.1-13.3c0.3-7-0.3-30.6-0.3-30.6h0.5v-0.6h-0.5v-2.7h-6.5l-3.5,3.5v2.2l-0.5,0.3v0.7h0.7v23.7
	L300,299.2h-46.3v-3.8h-5.6v3.8h-23.6v-11.7l1.8-1.8h1.2v-0.6h1v-17.4h-3.9v-6.9h-4v0.7H218v-22.7h1.7v-1.1h1v-16.5h-3.2v-6.4h-4.2
	v0.9h-0.9v-7.7h-1v-1.6h-0.8v-15.1h1.9v-8.1h-1.4v-1.3h-1.7c0,0-0.3-6.1-7-8.5c0-2.1,0-4.2,0-4.2s0.4-0.5,0.4-1.9
	c0-1.4-2.9-4.1-2.9-4.1s-2.9,2.6-2.9,4.1c0,1.4,0.4,1.9,0.4,1.9s0,2.1,0,4.2c-6.7,2.5-7,8.5-7,8.5h-1.7v1.3h-1.4v8.1h1.9v15.1h-0.8
	v1.6h-1v7.7h-0.9v-0.9h-4.2v6.4h-3.2v16.5h1v1.1h1.7v22.7h-2.6v-0.7h-4v6.9h-3.9v17.4h1v0.6h1.2l1.8,1.8v11.7h-23.6v-3.8h-5.6v3.8
	H100l-42.5,14.5v-23.7h0.7v-0.7l-0.5-0.3v-2.2l-3.5-3.5h-6.5v2.7h-0.5v0.6h0.5c0,0-0.6,23.5-0.3,30.6L8.2,330.5l6,3.8v16.6H0V401
	h149.7l10.3-10.3h4.1v-57.5l-1-1v-1.4h1.1v-7.4h-1.1v-2h-0.6v-1.5h-2.4v-2.1l39.9-18.3l39.9,18.3v2.1h-2.4v1.5h-0.6v2h-1.1v7.4h1.1
	v1.4l-1,1v57.5h4.1l10.3,10.3H400v-50.1H385.8z"/>
<polygon points="183.3,331.4 171,331.4 171,332.8 170.6,333.2 170.6,390.7 184.1,390.7 184.1,333.6 183.3,332.8 "/>
</svg>
