<?xml version="1.0" encoding="utf-8"?>
<!-- Generator: Adobe Illustrator 21.1.0, SVG Export Plug-In . SVG Version: 6.00 Build 0)  -->
<svg version="1.1" id="Gilman_Hall" xmlns="http://www.w3.org/2000/svg" xmlns:xlink="http://www.w3.org/1999/xlink" x="0px"
	 y="0px" viewBox="0 0 400 400" style="enable-background:new 0 0 400 400;" xml:space="preserve">
<polygon points="216.7,330.4 216.7,331.8 215.9,332.6 215.9,389.7 229.4,389.7 229.4,332.2 229,331.8 229,330.4 "/>
<polygon points="209.4,332.2 208.7,331.5 208.7,330.3 200,330.3 200,389.7 209.4,389.7 "/>
<path d="M385.8,349.9v-16.6l6-3.8l-39.1-13.3c0.3-7-0.3-30.6-0.3-30.6h0.5v-0.6h-0.5v-2.7h-6.5l-3.5,3.5v2.2l-0.5,0.3v0.7h0.7v23.7
	L300,298.2h-46.3v-3.8h-5.6v3.8h-23.6v-11.7l1.8-1.8h1.2v-0.6h1v-17.4h-3.9v-6.9h-4v0.7H218v-22.7h1.7v-1.1h1v-16.5h-3.2v-6.4h-4.2
	v0.9h-0.9v-7.7h-1v-1.6h-0.8v-15.1h1.9v-8.1h-1.4v-1.3h-1.7c0,0-0.3-6.1-7-8.5c0-2.1,0-4.2,0-4.2s0.4-0.5,0.4-1.9
	c0-1.4-2.9-4.1-2.9-4.1v135.9l39.9,18.3v2.1h-2.4v1.5h-0.6v2h-1.1v7.4h1.1v1.4l-1,1v57.5h4.1l10.3,10.3H400v-50.1H385.8z"/>
<polygon points="183.3,330.4 183.3,331.8 184.1,332.6 184.1,389.7 170.6,389.7 170.6,332.2 171,331.8 171,330.4 "/>
<polygon points="190.6,332.2 191.3,331.5 191.3,330.3 200,330.3 200,389.7 190.6,389.7 "/>
<path d="M14.2,349.9v-16.6l-6-3.8l39.1-13.3c-0.3-7,0.3-30.6,0.3-30.6h-0.5v-0.6h0.5v-2.7h6.5l3.5,3.5v2.2l0.5,0.3v0.7h-0.7v23.7
	l42.5-14.5h46.3v-3.8h5.6v3.8h23.6v-11.7l-1.8-1.8h-1.2v-0.6h-1v-17.4h3.9v-6.9h4v0.7h2.6v-22.7h-1.7v-1.1h-1v-16.5h3.2v-6.4h4.2
	v0.9h0.9v-7.7h1v-1.6h0.8v-15.1h-1.9v-8.1h1.4v-1.3h1.7c0,0,0.3-6.1,7-8.5c0-2.1,0-4.2,0-4.2s-0.4-0.5-0.4-1.9
	c0-1.4,2.9-4.1,2.9-4.1v135.9l-39.9,18.3v2.1h2.4v1.5h0.6v2h1.1v7.4h-1.1v1.4l1,1v57.5h-4.1L149.7,400H0l0-50.1H14.2z"/>
</svg>
