<?xml version="1.0" encoding="utf-8"?>
<!-- Generator: Adobe Illustrator 21.1.0, SVG Export Plug-In . SVG Version: 6.00 Build 0)  -->
<svg version="1.1" xmlns="http://www.w3.org/2000/svg" xmlns:xlink="http://www.w3.org/1999/xlink" x="0px" y="0px"
	 viewBox="0 0 400 400" style="enable-background:new 0 0 400 400;" xml:space="preserve">
<g id="Cirlce">
	<g>
		<path d="M200,20.1c48.1,0,93.2,18.7,127.2,52.7c34,34,52.7,79.2,52.7,127.2s-18.7,93.2-52.7,127.2c-34,34-79.2,52.7-127.2,52.7
			s-93.2-18.7-127.2-52.7c-34-34-52.7-79.2-52.7-127.2s18.7-93.2,52.7-127.2C106.8,38.8,151.9,20.1,200,20.1 M200,0.1
			C89.6,0.1,0.1,89.6,0.1,200S89.6,399.9,200,399.9S399.9,310.4,399.9,200S310.4,0.1,200,0.1L200,0.1z"/>
	</g>
</g>
<g id="Graduation_Cap">
	<path d="M207.3,242.7l-74.7-29.2c0,0,0,33.2,0,46.5c60-12.8,74.7,24.8,74.7,24.8S222,247.3,282,260c0-13.4,0-46.5,0-46.5
		L207.3,242.7z"/>
	<path d="M207.3,141.8L73.8,185.6l32.6,12.7v-1.5l94.2-12.1c0.6-3.1,3.4-5.5,6.7-5.5c3.8,0,6.9,3.1,6.9,6.9c0,3.8-3.1,6.9-6.9,6.9
		c-2.1,0-3.9-0.9-5.2-2.4l-86.9,11.2l92.1,35.9l133.5-52.1L207.3,141.8z"/>
	<path d="M207.3,180.7c-2.9,0-5.3,2.4-5.4,5.3l-94,12.1v54.5h-1.6l-5.1,13.5h15.2l-3.5-13.5h-1.9v-51.8l91.9-11.8
		c1,1.5,2.6,2.5,4.5,2.5c3,0,5.4-2.4,5.4-5.4S210.3,180.7,207.3,180.7z"/>
</g>
</svg>
