<?xml version="1.0" encoding="utf-8"?>
<!-- Generator: Adobe Illustrator 21.1.0, SVG Export Plug-In . SVG Version: 6.00 Build 0)  -->
<svg version="1.1" xmlns="http://www.w3.org/2000/svg" xmlns:xlink="http://www.w3.org/1999/xlink" x="0px" y="0px"
	 viewBox="0 0 400 400" style="enable-background:new 0 0 400 400;" xml:space="preserve">
<g id="Cirlce">
	<g>
		<path d="M200,20.1c48.1,0,93.2,18.7,127.2,52.7c34,34,52.7,79.2,52.7,127.2s-18.7,93.2-52.7,127.2c-34,34-79.2,52.7-127.2,52.7
			s-93.2-18.7-127.2-52.7c-34-34-52.7-79.2-52.7-127.2s18.7-93.2,52.7-127.2C106.8,38.8,151.9,20.1,200,20.1 M200,0.1
			C89.6,0.1,0.1,89.6,0.1,200S89.6,399.9,200,399.9S399.9,310.4,399.9,200S310.4,0.1,200,0.1L200,0.1z"/>
	</g>
</g>
<g id="Handshake">
	<path d="M360.3,199.5c-6.3,4.6-13.4,7.7-20.1,11.7c-1.9,1.1-3.9,2.1-5.8,3.1c-3.6,1.9-5.2,1.4-7.1-2.1
		c-5.9-10.8-11.8-21.6-17.6-32.3c-4.3-7.9-8.7-15.9-12.9-23.8c-2.5-4.6-1.9-6.1,2.7-8.5c6.9-3.7,13.9-7.5,20.8-11.3
		c0.7-0.4,1.3-1,1.9-1.5c1.4,0,2.8,0,4.2,0c6.8,10.8,12.3,22.2,18.6,33.3c5.2,9.3,10.3,18.6,15.5,27.9
		C360.3,197.2,360.3,198.4,360.3,199.5z"/>
	<path d="M77.7,134.9c7.8,4.3,15.6,8.7,23.4,13c4.1,2.3,4.6,3.7,2.4,7.8c-10.3,18.9-20.7,37.9-31,56.8c-1.2,2.2-2.9,3.8-5.3,2.5
		c-9.3-5-18.9-9.5-27.6-15.5c0-1.2,0-2.3,0-3.5c0.7-0.9,1.4-1.8,1.9-2.8c7.5-13.7,14.9-27.5,22.5-41.2c3.2-5.7,5.6-12,9.9-17.1
		C75.3,135,76.5,134.9,77.7,134.9z"/>
	<path d="M228.6,276.3c-1.7,0.2-3.5-0.4-4.9-1.5c-6.6-5.1-13-10.4-19.6-15.5c-1.3-1-1.9-2.1-2.1-3.7c-0.8-7.6-8.2-12.5-14.9-11.1
		c-2.9,0.6-5-2.2-6.4-4.5c-4.8-7.6-11.9-9.1-19.1-3.7c-1.5,1.1-2.1,1.1-3.1-0.6c-4.6-7.9-12.5-9.3-19.7-3.5c-1.7,1.4-2.1,0.7-3-0.7
		c-5.9-9.1-15.9-9.1-22,0c-1,1.5-1.8,1.9-3.3,1c-9.1-5.3-18.3-10.5-27.5-15.7c-2.5-1.4-2.1-3.1-0.9-5.2c5.6-10,11.1-20.1,16.7-30.1
		c4-7.2,8.1-14.3,12-21.6c1.5-2.7,3.2-3.4,5.9-2.3c2.9,1.2,5.9,2.1,8.7,3.5c5.3,2.8,10.7,1.3,16,0.5c11-1.6,22-3.4,33-5.1
		c1.1-0.2,2.3-0.2,3.5-0.3c0.7,0,1.5-0.3,1.8,0.6c0.4,1.1-0.6,1.4-1.3,1.7c-2.3,1.2-4.5,2.3-6.8,3.5c-7.2,3.7-14.4,7.6-21.8,11
		c-11.7,5.3-7.8,18.2-0.1,22.7c5.6,3.2,11.3,3.9,17.3,1.3c12.2-5.3,24.7-10,36.7-15.7c2.2-1.1,4.5-0.6,6.5,1
		c23.7,18.7,47.3,37.4,71,56.1c4.5,3.6,5.3,9.1,2.1,13.1c-3.5,4.4-8.9,5-13.6,1.3c-18.7-14.7-37.4-29.4-56.1-44.1
		c-1.4-1.1-2.7-2.2-4.1-3.2c-1.1-0.8-2.3-1.5-3.4-0.1c-1.1,1.4-0.3,2.6,0.9,3.5c5.9,4.7,11.8,9.4,17.7,14
		c11,8.7,22.1,17.3,33.1,25.9c4.5,3.5,5.2,9.2,1.7,13.5c-3.3,4.2-8.8,4.6-13.6,0.8c-9.2-7.2-18.4-14.5-27.6-21.7
		c-7.2-5.7-14.4-11.3-21.6-17c-0.5-0.4-0.9-0.7-1.4-1c-1.1-0.7-2.4-1.3-3.4,0.1c-0.9,1.3-0.2,2.5,0.8,3.3c3.8,3,7.6,6.1,11.4,9.1
		c10.2,8.1,20.4,16.1,30.5,24.2c3.2,2.6,4.2,6.2,2.9,10C236.2,273.8,232.7,276.3,228.6,276.3z"/>
	<path d="M146.3,183.7c0.2-2.5,1.2-4.7,3.5-6.3c7.7-5,16-9,24.1-13.2c14.6-7.6,29.3-14.9,44-22.4c2.5-1.3,4.7-0.9,7,0.2
		c13.3,6.5,26.7,13,40,19.5c2.3,1.1,4.5,1.4,7,0.4c3.7-1.6,7.6-2.9,11.3-4.4c2.8-1.1,4.7-0.7,6.3,2.2c9.3,16.9,18.7,33.7,28,50.5
		c2.6,4.6,2.5,4.8-1.7,7.9c-8.1,5.9-16.2,11.7-24.2,17.6c-2.6,1.9-4.6,1.8-7.1-0.2c-23.9-19.1-48-38.1-71.8-57.2
		c-3-2.4-5.6-2.7-9.1-1.2c-12.1,5.3-24.3,10.4-36.5,15.5c-7.1,3-13.7,2-18-2.6C147.4,188.3,146.3,186.3,146.3,183.7z"/>
	<path d="M184.7,285.2c-1.4,0-2.8,0-4.2,0c-0.9-0.6-1.7-1.1-2.6-1.7c-3.5-2.3-5.2-6.3-4-10.3c2.1-6.8,4.4-13.7,6.9-20.4
		c1.7-4.5,7.3-6.6,12-4.9c4.6,1.7,7.1,6.5,5.5,11.7c-2,6.6-4.4,13.2-6.8,19.7C190.4,282.5,187.5,283.8,184.7,285.2z"/>
	<path d="M169.4,236.4c6.6,0,11,5.7,9.1,11.9c-2.1,6.5-4.3,13-6.7,19.4c-1.9,5.1-7.2,7.3-12.2,5.4c-4.6-1.7-7-6.8-5.3-11.7
		c2.2-6.5,4.3-13,6.8-19.3C162.4,238.3,165.3,236.1,169.4,236.4z"/>
	<path d="M145,261.7c-8,0-12.3-5.5-10.7-11.6c1.1-4.1,2.5-8.2,4-12.2c1.9-5,7-7.3,11.9-5.7c4.8,1.6,7.3,6.2,5.9,11.4
		c-1.2,4.3-2.7,8.6-4.4,12.8C150.3,260.1,147.2,261.7,145,261.7z"/>
	<path d="M123.4,250.5c-5.2,0-9.5-4.1-9.6-9.1c-0.1-7,5.5-14,11.1-13.8c4.9,0.1,9.7,4.5,9.3,9.4
		C133.6,243.4,130.5,250.8,123.4,250.5z"/>
	<path d="M207.4,285c-2.6,0-5.2,0.1-7.8,0.1c-6.2-4.8-5.8-2.8-3.1-10.8c1.1-3.2,2.2-6.3,3.2-9.5c0.6-1.8,1.3-2.3,2.9-0.9
		c2,1.7,4.2,3.3,6.2,5C215,274.1,214.4,280.8,207.4,285z"/>
</g>
</svg>
