<?xml version="1.0" encoding="utf-8"?>
<!-- Generator: Adobe Illustrator 21.1.0, SVG Export Plug-In . SVG Version: 6.00 Build 0)  -->
<svg version="1.1" xmlns="http://www.w3.org/2000/svg" xmlns:xlink="http://www.w3.org/1999/xlink" x="0px" y="0px"
	 viewBox="0 0 400 400" style="enable-background:new 0 0 400 400;" xml:space="preserve">
<g id="Cirlce">
	<g>
		<path d="M200,20.1c48.1,0,93.2,18.7,127.2,52.7c34,34,52.7,79.2,52.7,127.2s-18.7,93.2-52.7,127.2c-34,34-79.2,52.7-127.2,52.7
			s-93.2-18.7-127.2-52.7c-34-34-52.7-79.2-52.7-127.2s18.7-93.2,52.7-127.2C106.8,38.8,151.9,20.1,200,20.1 M200,0.1
			C89.6,0.1,0.1,89.6,0.1,200S89.6,399.9,200,399.9S399.9,310.4,399.9,200S310.4,0.1,200,0.1L200,0.1z"/>
	</g>
</g>
<g id="Heartbeat">
	<path d="M146.6,236.2l12-20.5l9.6,16.5l17-83.1l19.1,114.8l13-39.3l10.2,11.9l13.6-26.9l13.4,28.9l5-3.4h45.3
		c12.8-17.7,21.5-36.6,21.5-55.7c0-48.2-30.6-68.5-66.1-68.5c-40.2,0-60,21.9-60,21.9s-19.8-21.9-60-21.9
		c-35.5,0-66.1,20.3-66.1,68.5c0,19.4,9,38.8,22.3,56.8H146.6z"/>
	<path d="M262,243.9l-11.3,7.6l-10-21.7l-11.3,22.4l-8.6-10.1l-19.3,58.4l-17.2-103.1l-12.1,59.1l-13.6-23.4l-6.9,11.8H103
		c37.3,44.9,97,79.4,97,81.8c0-2.4,60.6-37.4,97.8-82.8H262z"/>
</g>
</svg>
