<?xml version="1.0" encoding="utf-8"?>
<!-- Generator: Adobe Illustrator 21.1.0, SVG Export Plug-In . SVG Version: 6.00 Build 0)  -->
<svg version="1.1" xmlns="http://www.w3.org/2000/svg" xmlns:xlink="http://www.w3.org/1999/xlink" x="0px" y="0px"
	 viewBox="0 0 400 400" style="enable-background:new 0 0 400 400;" xml:space="preserve">
<g id="Cirlce">
	<g>
		<path d="M200,20.1c48.1,0,93.2,18.7,127.2,52.7c34,34,52.7,79.2,52.7,127.2s-18.7,93.2-52.7,127.2c-34,34-79.2,52.7-127.2,52.7
			s-93.2-18.7-127.2-52.7c-34-34-52.7-79.2-52.7-127.2s18.7-93.2,52.7-127.2C106.8,38.8,151.9,20.1,200,20.1 M200,0.1
			C89.6,0.1,0.1,89.6,0.1,200S89.6,399.9,200,399.9S399.9,310.4,399.9,200S310.4,0.1,200,0.1L200,0.1z"/>
	</g>
</g>
<g id="Leader">
	<g>
		<path d="M250.3,254.1h-22.6c-0.5,4.7-2.3,8.9-4.9,12.5c6.1,1.4,8.3,7.7,9.5,11l5.5,15h3.7l5.5-15c1.2-3.3,3.2-8.8,8.5-10.7
			C252.6,263.3,250.8,258.9,250.3,254.1z"/>
	</g>
	<g>
		<path d="M257.7,232.7c0-0.3,0-0.5,0-0.8c0-10.7-8.7-19.3-19.3-19.3c-10.6,0-19.1,8.5-19.3,19c4.6,4.2,7.8,9.9,8.5,16.4
			c3.1,2.1,6.8,3.3,10.8,3.3c4.6,0,8.7-1.6,12-4.2C251.3,241.5,253.9,236.5,257.7,232.7z"/>
	</g>
	<g>
		<path d="M175.3,254.1H151c-0.5,4.7-2.3,8.9-4.9,12.5c6.1,1.4,8.3,7.7,9.5,11l5.5,15h5.4l5.5-15c1.2-3.3,3.2-8.8,8.5-10.7
			C177.7,263.3,175.8,258.9,175.3,254.1z"/>
	</g>
	<g>
		<path d="M162.6,212.6c-10.7,0-19.3,8.7-19.3,19.3c0,0.2,0,0.3,0,0.5c4,3.9,6.8,9.1,7.6,14.9c3.2,2.5,7.3,4,11.7,4
			c5,0,9.6-1.9,13-5.1c0.9-4.8,3.1-9.1,6.2-12.5c0-0.6,0.1-1.1,0.1-1.7C181.9,221.2,173.3,212.6,162.6,212.6z"/>
	</g>
	<g>
		<path d="M152.7,311.8H98.2c-3.1,0-5.5-3-5.5-6.6l9.2-25.2c1.4-3.8,2.5-6.6,5.5-6.6h36c3.1,0,4.3,3,5.5,6.6l9.2,25.2
			C158.2,308.8,155.7,311.8,152.7,311.8z"/>
	</g>
	<g>
		<circle cx="124.8" cy="251.1" r="19.3"/>
	</g>
	<g>
		<path d="M229.3,311.8h-54.5c-3.1,0-5.5-3-5.5-6.6l9.2-25.2c1.4-3.8,2.5-6.6,5.5-6.6h36c3.1,0,4.3,3,5.5,6.6l9.2,25.2
			C234.9,308.8,232.4,311.8,229.3,311.8z"/>
	</g>
	<g>
		<circle cx="201.5" cy="251.1" r="19.3"/>
	</g>
	<g>
		<path d="M253.3,196.5H146.7c-6,0-10.8-5.8-10.8-13l18.1-49.3c2.7-7.4,4.9-13,10.8-13h70.4c6,0,8.4,6,10.8,13l18.1,49.3
			C264.1,190.7,259.2,196.5,253.3,196.5z"/>
	</g>
	<g>
		<circle cx="200" cy="77.9" r="37.8"/>
	</g>
	<g>
		<path d="M304.3,311.8h-54.5c-3.1,0-5.5-3-5.5-6.6l9.2-25.2c1.4-3.8,2.5-6.6,5.5-6.6h36c3.1,0,4.3,3,5.5,6.6l9.2,25.2
			C309.8,308.8,307.3,311.8,304.3,311.8z"/>
	</g>
	<g>
		<circle cx="276.4" cy="251.1" r="19.3"/>
	</g>
</g>
</svg>
