<?xml version="1.0" encoding="utf-8"?>
<!-- Generator: Adobe Illustrator 21.1.0, SVG Export Plug-In . SVG Version: 6.00 Build 0)  -->
<svg version="1.1" xmlns="http://www.w3.org/2000/svg" xmlns:xlink="http://www.w3.org/1999/xlink" x="0px" y="0px"
	 viewBox="0 0 400 400" style="enable-background:new 0 0 400 400;" xml:space="preserve">
<style type="text/css">
	.st0{fill:#FFFFFF;}
</style>
<g id="Cirlce">
	<g>
		<path d="M200,20.1c48.1,0,93.2,18.7,127.2,52.7c34,34,52.7,79.2,52.7,127.2s-18.7,93.2-52.7,127.2c-34,34-79.2,52.7-127.2,52.7
			s-93.2-18.7-127.2-52.7c-34-34-52.7-79.2-52.7-127.2s18.7-93.2,52.7-127.2C106.8,38.8,151.9,20.1,200,20.1 M200,0.1
			C89.6,0.1,0.1,89.6,0.1,200S89.6,399.9,200,399.9S399.9,310.4,399.9,200S310.4,0.1,200,0.1L200,0.1z"/>
	</g>
</g>
<g id="Leader">
	<g>
		<path d="M211.8,296.1c-5,0-9-4.5-9-10.1v-0.6l9.5-25.8c1.4-3.8,3.2-8.9,8.8-8.9h36c5.7,0,7.7,5.6,8.8,9l9.4,25.7v0.6
			c0,5.6-4.1,10.1-9,10.1H211.8z"/>
		<path class="st0" d="M257,254.1c3.1,0,4.3,3,5.5,6.6l9.2,25.2c0,3.6-2.5,6.6-5.5,6.6h-54.5c-3.1,0-5.5-3-5.5-6.6l9.2-25.2
			c1.4-3.8,2.5-6.6,5.5-6.6H257 M257,247.1h-36c-8.1,0-10.7,7.3-12.1,11.3l-9.2,25.2l-0.4,1.2v1.2c0,7.5,5.6,13.6,12.5,13.6h54.5
			c6.9,0,12.5-6.1,12.5-13.6v-1.2l-0.4-1.2l-9.2-25.1C267.8,254.7,265.1,247.1,257,247.1L257,247.1z"/>
	</g>
	<g>
		<circle cx="238.4" cy="231.9" r="19.3"/>
	</g>
	<g>
		<path d="M136,296.1c-5,0-9-4.5-9-10.1v-0.6l9.5-25.8c1.4-3.8,3.2-8.9,8.8-8.9h36c5.7,0,7.7,5.6,8.8,9l9.4,25.7v0.6
			c0,5.6-4.1,10.1-9,10.1H136z"/>
		<path class="st0" d="M181.2,254.1c3.1,0,4.3,3,5.5,6.6l9.2,25.2c0,3.6-2.5,6.6-5.5,6.6H136c-3.1,0-5.5-3-5.5-6.6l9.2-25.2
			c1.4-3.8,2.5-6.6,5.5-6.6H181.2 M181.2,247.1h-36c-8.1,0-10.7,7.3-12.1,11.3l-9.2,25.2l-0.4,1.2v1.2c0,7.5,5.6,13.6,12.5,13.6
			h54.5c6.9,0,12.5-6.1,12.5-13.6v-1.2l-0.4-1.2l-9.2-25.1C192,254.7,189.3,247.1,181.2,247.1L181.2,247.1z"/>
	</g>
	<g>
		<circle cx="162.6" cy="231.9" r="19.3"/>
	</g>
	<g>
		<path d="M124.8,274c-12.6,0-22.8-10.2-22.8-22.8s10.2-22.8,22.8-22.8s22.8,10.2,22.8,22.8S137.4,274,124.8,274z"/>
		<path class="st0" d="M124.8,231.8c10.7,0,19.3,8.7,19.3,19.3c0,10.7-8.7,19.3-19.3,19.3s-19.3-8.7-19.3-19.3
			C105.5,240.5,114.2,231.8,124.8,231.8 M124.8,224.8c-14.5,0-26.3,11.8-26.3,26.3c0,14.5,11.8,26.3,26.3,26.3s26.3-11.8,26.3-26.3
			C151.2,236.6,139.4,224.8,124.8,224.8L124.8,224.8z"/>
	</g>
	<g>
		<path d="M201.5,274c-12.6,0-22.8-10.2-22.8-22.8s10.2-22.8,22.8-22.8s22.8,10.2,22.8,22.8S214.1,274,201.5,274z"/>
		<path class="st0" d="M201.5,231.8c10.7,0,19.3,8.7,19.3,19.3c0,10.7-8.7,19.3-19.3,19.3c-10.7,0-19.3-8.7-19.3-19.3
			C182.1,240.5,190.8,231.8,201.5,231.8 M201.5,224.8c-14.5,0-26.3,11.8-26.3,26.3c0,14.5,11.8,26.3,26.3,26.3
			c14.5,0,26.3-11.8,26.3-26.3C227.8,236.6,216,224.8,201.5,224.8L201.5,224.8z"/>
	</g>
	<g>
		<path d="M276.4,274c-12.6,0-22.8-10.2-22.8-22.8s10.2-22.8,22.8-22.8s22.8,10.2,22.8,22.8S289,274,276.4,274z"/>
		<path class="st0" d="M276.4,231.8c10.7,0,19.3,8.7,19.3,19.3c0,10.7-8.7,19.3-19.3,19.3s-19.3-8.7-19.3-19.3
			C257.1,240.5,265.8,231.8,276.4,231.8 M276.4,224.8c-14.5,0-26.3,11.8-26.3,26.3c0,14.5,11.8,26.3,26.3,26.3s26.3-11.8,26.3-26.3
			C302.8,236.6,291,224.8,276.4,224.8L276.4,224.8z"/>
	</g>
	<g>
		<path d="M98.2,315.3c-5,0-9-4.5-9-10.1v-0.6l9.5-25.8c1.4-3.8,3.2-8.9,8.8-8.9h36c5.7,0,7.7,5.6,8.8,9l9.4,25.7v0.6
			c0,5.6-4.1,10.1-9,10.1H98.2z"/>
		<path class="st0" d="M143.4,273.3c3.1,0,4.3,3,5.5,6.6l9.2,25.2c0,3.6-2.5,6.6-5.5,6.6H98.2c-3.1,0-5.5-3-5.5-6.6l9.2-25.2
			c1.4-3.8,2.5-6.6,5.5-6.6H143.4 M143.4,266.3h-36c-8.1,0-10.7,7.3-12.1,11.3l-9.2,25.2l-0.4,1.2v1.2c0,7.5,5.6,13.6,12.5,13.6
			h54.5c6.9,0,12.5-6.1,12.5-13.6v-1.2l-0.4-1.2l-9.2-25.1C154.3,273.9,151.6,266.3,143.4,266.3L143.4,266.3z"/>
	</g>
	<g>
		<circle cx="124.8" cy="251.1" r="19.3"/>
	</g>
	<g>
		<path d="M174.8,315.3c-5,0-9-4.5-9-10.1v-0.6l9.5-25.8c1.4-3.8,3.2-8.9,8.8-8.9h36c5.7,0,7.7,5.6,8.8,9l9.4,25.7v0.6
			c0,5.6-4.1,10.1-9,10.1H174.8z"/>
		<path class="st0" d="M220.1,273.3c3.1,0,4.3,3,5.5,6.6l9.2,25.2c0,3.6-2.5,6.6-5.5,6.6h-54.5c-3.1,0-5.5-3-5.5-6.6l9.2-25.2
			c1.4-3.8,2.5-6.6,5.5-6.6H220.1 M220.1,266.3h-36c-8.1,0-10.7,7.3-12.1,11.3l-9.2,25.2l-0.4,1.2v1.2c0,7.5,5.6,13.6,12.5,13.6
			h54.5c6.9,0,12.5-6.1,12.5-13.6v-1.2l-0.4-1.2l-9.2-25.1C230.9,273.9,228.2,266.3,220.1,266.3L220.1,266.3z"/>
	</g>
	<g>
		<circle cx="201.5" cy="251.1" r="19.3"/>
	</g>
	<g>
		<path d="M146.7,200c-7.9,0-14.3-7.4-14.3-16.5v-0.6l18.3-49.9c2.6-7.1,5.5-15.3,14.1-15.3h70.4c8.8,0,11.9,8.9,14.1,15.3
			l18.3,49.8v0.6c0,9.1-6.4,16.5-14.3,16.5H146.7z"/>
		<path class="st0" d="M235.2,121.3c6,0,8.4,6,10.8,13l18.1,49.3c0,7.1-4.9,13-10.8,13H146.7c-6,0-10.8-5.8-10.8-13l18.1-49.3
			c2.7-7.4,4.9-13,10.8-13H235.2 M235.2,114.3h-70.4c-11.1,0-14.7,10.2-17.4,17.6l-18.1,49.2l-0.4,1.2v1.2c0,11,8,20,17.8,20h106.5
			c9.8,0,17.8-9,17.8-20v-1.2l-0.4-1.2l-18.1-49.2C250.3,125.3,246.4,114.3,235.2,114.3L235.2,114.3z"/>
	</g>
	<g>
		<circle cx="200" cy="77.9" r="37.8"/>
	</g>
	<g>
		<path d="M249.8,315.3c-5,0-9-4.5-9-10.1v-0.6l9.5-25.8c1.4-3.8,3.2-8.9,8.8-8.9h36c5.7,0,7.7,5.6,8.8,9l9.4,25.7v0.6
			c0,5.6-4.1,10.1-9,10.1H249.8z"/>
		<path class="st0" d="M295,273.3c3.1,0,4.3,3,5.5,6.6l9.2,25.2c0,3.6-2.5,6.6-5.5,6.6h-54.5c-3.1,0-5.5-3-5.5-6.6l9.2-25.2
			c1.4-3.8,2.5-6.6,5.5-6.6H295 M295,266.3h-36c-8.1,0-10.7,7.3-12.1,11.3l-9.2,25.2l-0.4,1.2v1.2c0,7.5,5.6,13.6,12.5,13.6h54.5
			c6.9,0,12.5-6.1,12.5-13.6v-1.2l-0.4-1.2l-9.2-25.2C305.9,273.9,303.2,266.3,295,266.3L295,266.3z"/>
	</g>
	<g>
		<circle cx="276.4" cy="251.1" r="19.3"/>
	</g>
</g>
</svg>
