<?xml version="1.0" encoding="utf-8"?>
<!-- Generator: Adobe Illustrator 21.1.0, SVG Export Plug-In . SVG Version: 6.00 Build 0)  -->
<svg version="1.1" xmlns="http://www.w3.org/2000/svg" xmlns:xlink="http://www.w3.org/1999/xlink" x="0px" y="0px"
	 viewBox="0 0 400 400" style="enable-background:new 0 0 400 400;" xml:space="preserve">
<g id="Cirlce">
	<g>
		<path d="M200,20.1c48.1,0,93.2,18.7,127.2,52.7c34,34,52.7,79.2,52.7,127.2s-18.7,93.2-52.7,127.2c-34,34-79.2,52.7-127.2,52.7
			s-93.2-18.7-127.2-52.7c-34-34-52.7-79.2-52.7-127.2s18.7-93.2,52.7-127.2C106.8,38.8,151.9,20.1,200,20.1 M200,0.1
			C89.6,0.1,0.1,89.6,0.1,200S89.6,399.9,200,399.9S399.9,310.4,399.9,200S310.4,0.1,200,0.1L200,0.1z"/>
	</g>
</g>
<g id="Monitor">
	<g>
		<path d="M328.6,275.6H71.4c-5.5,0-9.9-4.4-9.9-9.9V108.5c0-5.5,4.4-9.9,9.9-9.9h257.2c5.5,0,9.9,4.4,9.9,9.9v157.2
			C338.5,271.1,334,275.6,328.6,275.6z M71.5,265.6h256.9v-157H71.5V265.6z"/>
	</g>
	<g>
		<path d="M230.2,271.2c-10.8,1.6-5.1,39.9,5.8,38.3c4.7-0.7,16.5,6.9,7.2,6.9c-9.4,0-50.9,0-50.9,0v-42.1L230.2,271.2z"/>
	</g>
	<g>
		<path d="M166.1,271.2c10.8,1.6,5.1,39.9-5.8,38.3c-4.7-0.7-16.5,6.9-7.2,6.9c9.4,0,50.9,0,50.9,0v-42.1L166.1,271.2z"/>
	</g>
	<g>
		<rect x="141" y="255.3" width="188" height="2"/>
	</g>
	<g>
		<path d="M142.5,268H68.2V153h74.3V268z M70.2,266h70.3V155H70.2V266z"/>
	</g>
	<g>
		<rect x="70.7" y="163.5" width="54" height="1"/>
	</g>
	<g>
		<rect x="70.7" y="173.5" width="54" height="1"/>
	</g>
	<g>
		<rect x="70.7" y="183.5" width="54" height="1"/>
	</g>
	<g>
		<rect x="70.7" y="193.5" width="54" height="1"/>
	</g>
	<g>
		<rect x="70.7" y="203.5" width="54" height="1"/>
	</g>
	<g>
		<rect x="70.7" y="213.5" width="54" height="1"/>
	</g>
	<g>
		<rect x="70.7" y="223.5" width="54" height="1"/>
	</g>
	<g>
		<rect x="70.7" y="233.5" width="54" height="1"/>
	</g>
	<g>
		<rect x="70.7" y="243.5" width="54" height="1"/>
	</g>
	<g>
		<rect x="70.7" y="253.5" width="54" height="1"/>
	</g>
	<g>
		<path d="M321.3,136h-19v-19h19V136z M304.3,134h15v-15h-15V134z"/>
	</g>
	<g>
		<path d="M98,136H79v-19h19V136z M81,134h15v-15H81V134z"/>
	</g>
	<g>
		<path d="M128,136h-19v-19h19V136z M111,134h15v-15h-15V134z"/>
	</g>
	<g>
		<path d="M158,136h-19v-19h19V136z M141,134h15v-15h-15V134z"/>
	</g>
	<g>
		<path d="M321.3,166h-19v-19h19V166z M304.3,164h15v-15h-15V164z"/>
	</g>
	<g>
		<path d="M321.3,196h-19v-19h19V196z M304.3,194h15v-15h-15V194z"/>
	</g>
	<g>
		<path d="M321.3,226h-19v-19h19V226z M304.3,224h15v-15h-15V224z"/>
	</g>
</g>
</svg>
