<?xml version="1.0" encoding="utf-8"?>
<!-- Generator: Adobe Illustrator 19.1.0, SVG Export Plug-In . SVG Version: 6.00 Build 0)  -->
<svg version="1.1" xmlns="http://www.w3.org/2000/svg" xmlns:xlink="http://www.w3.org/1999/xlink" x="0px" y="0px"
	 viewBox="0 0 400 400" style="enable-background:new 0 0 400 400;" xml:space="preserve">
<g id="Cirlce">
	<g>
		<path d="M200,20.1c48.1,0,93.2,18.7,127.2,52.7c34,34,52.7,79.2,52.7,127.2s-18.7,93.2-52.7,127.2c-34,34-79.2,52.7-127.2,52.7
			s-93.2-18.7-127.2-52.7c-34-34-52.7-79.2-52.7-127.2s18.7-93.2,52.7-127.2C106.8,38.8,151.9,20.1,200,20.1 M200,0.1
			C89.6,0.1,0.1,89.6,0.1,200S89.6,399.9,200,399.9S399.9,310.4,399.9,200S310.4,0.1,200,0.1L200,0.1z"/>
	</g>
</g>
<g id="Number_8">
	<path d="M200.9,323.9c-27.1,0-54-11.6-70.1-33c-10.9-14.5-15.5-32.1-12.9-49.6c2.7-18.2,12.7-34.4,28.2-45.8
		c5-3.7,10.4-6.8,16.7-9.6c-6.1-3.1-12.1-6.8-17.4-11.7c-12-11.1-18.5-25.2-18.3-39.6c0.1-14.4,6.9-28.3,19.1-39.2
		c14.1-12.6,34.2-19.6,55.3-19.4c21.1,0.3,41,7.8,54.6,20.8c12.2,11.6,18.4,26.6,17.3,42.1c-1.1,15.6-9.3,29.6-23.1,39.5
		c-4.2,3-8.3,5.5-12.6,7.6c6.2,3.1,11.8,6.3,17.1,10.2c18.5,13.8,29,35.3,28,57.5c-1,23.2-14,44.2-35.7,57.5
		C233.1,319.8,217,323.9,200.9,323.9z M199.7,194.6c-16.8,0-33.5,5.4-46.4,16.2c-12.2,10.3-19.2,24.1-19.6,38.6
		c-0.4,14.5,5.7,28.4,17.3,39.3c13.6,12.8,29.7,19,47.8,18.4l0.1,0l0.1,0c16.4,0.4,30.4-3.6,42.8-12.3c14.2-10,23.1-24.7,24.3-40.3
		c1.2-15-4.5-29.3-16.1-40.5C236.8,201.1,218.2,194.6,199.7,194.6z M200.2,92.8c-15.3,0-29.2,4.3-40.4,12.5
		c-9.8,7.2-15.4,17.1-15.9,28.1c-0.5,10.9,4.2,21.4,13.2,29.4c21.2,18.8,60.9,20,83.4,2.5c10.5-8.1,16.2-18.8,16.2-30.1
		c-0.1-11.3-6-22-16.7-30.1C229.2,96.9,216.2,92.8,200.2,92.8C200.3,92.8,200.3,92.8,200.2,92.8z"/>
</g>
</svg>
