<?xml version="1.0" encoding="utf-8"?>
<!-- Generator: Adobe Illustrator 21.1.0, SVG Export Plug-In . SVG Version: 6.00 Build 0)  -->
<svg version="1.1" xmlns="http://www.w3.org/2000/svg" xmlns:xlink="http://www.w3.org/1999/xlink" x="0px" y="0px"
	 viewBox="0 0 400 400" style="enable-background:new 0 0 400 400;" xml:space="preserve">
<g id="Cirlce">
	<g>
		<path d="M200,20.1c48.1,0,93.2,18.7,127.2,52.7c34,34,52.7,79.2,52.7,127.2s-18.7,93.2-52.7,127.2c-34,34-79.2,52.7-127.2,52.7
			s-93.2-18.7-127.2-52.7c-34-34-52.7-79.2-52.7-127.2s18.7-93.2,52.7-127.2C106.8,38.8,151.9,20.1,200,20.1 M200,0.1
			C89.6,0.1,0.1,89.6,0.1,200S89.6,399.9,200,399.9S399.9,310.4,399.9,200S310.4,0.1,200,0.1L200,0.1z"/>
	</g>
</g>
<g id="One_Talking">
	<g>
		<path d="M319,307.3H217.1c-5.7,0-10.4-5.6-10.4-12.4l17.3-47.1c2.5-7.1,4.7-12.4,10.4-12.4h67.3c5.7,0,8,5.7,10.4,12.4l17.3,47.1
			C329.4,301.8,324.7,307.3,319,307.3z"/>
	</g>
	<g>
		<path d="M266.9,157.8c-20,0-36.1,16.2-36.1,36.1c0,2.9,0.4,5.7,1,8.4c0,0,10.9,3.1,18.1,0c-4.6,5.1-14.7,8.8-14.7,8.8
			c6.1,11.3,18.1,18.9,31.8,18.9c20,0,36.1-16.2,36.1-36.1S286.9,157.8,266.9,157.8z"/>
	</g>
	<g>
		<path d="M177.9,307.3H76c-5.7,0-10.4-5.6-10.4-12.4l17.3-47.1c2.5-7.1,4.7-12.4,10.4-12.4h67.3c5.7,0,8,5.7,10.4,12.4l17.3,47.1
			C188.3,301.8,183.6,307.3,177.9,307.3z"/>
	</g>
	<g>
		<circle cx="125.8" cy="193.9" r="36.1"/>
	</g>
	<polygon points="184.3,79.9 150.1,97.5 150.1,102.3 184.3,119.9 184.3,113.1 157.9,99.9 184.3,86.7 	"/>
	<polygon points="206.9,69.8 186.7,122.1 193.2,122.1 213.4,69.8 	"/>
	<polygon points="215.7,79.9 215.7,86.7 242.3,99.9 215.7,113.1 215.7,119.9 249.9,102.4 249.9,97.4 	"/>
	<rect x="173.9" y="126.7" width="52.2" height="4.2"/>
	<path d="M216.9,191.1c-10.5,0-19-3-25.2-9c-10.3-9.9-10.5-24.3-10.5-24.9h6c0,0.1,0.2,12.5,8.6,20.6c2.3,2.2,5.1,4,8.3,5.2
		c-0.6-0.8-1.1-1.7-1.6-2.6c-4.9-10,1.2-22.6,1.4-23.1l5.4,2.7l-2.7-1.3l2.7,1.3c-0.1,0.1-5.1,10.4-1.4,17.8
		c1.8,3.7,3.8,7.3,9.7,8.5l8.4,3.3l-6.9,1.6C218.4,191.1,217.7,191.1,216.9,191.1z"/>
	<path d="M200,37.9c-37.8,0-68.6,27.8-68.6,62.1c0,30.3,24.2,55.6,56,61c-0.5-2.3-0.4-4.4-0.2-6.1c-28.4-5.3-49.8-27.9-49.8-54.9
		c0-30.9,28.1-56.1,62.6-56.1s62.6,25.1,62.6,56.1c0,29.4-25.3,53.5-57.5,55.9c-1.2,2.6-2.7,5.8-2.8,6.2c36.8-1.1,66.3-28.5,66.3-62
		C268.6,65.7,237.8,37.9,200,37.9z"/>
</g>
</svg>
