<?xml version="1.0" encoding="utf-8"?>
<!-- Generator: Adobe Illustrator 21.1.0, SVG Export Plug-In . SVG Version: 6.00 Build 0)  -->
<svg version="1.1" xmlns="http://www.w3.org/2000/svg" xmlns:xlink="http://www.w3.org/1999/xlink" x="0px" y="0px"
	 viewBox="0 0 400 400" style="enable-background:new 0 0 400 400;" xml:space="preserve">
<g id="Cirlce">
	<g>
		<path d="M200,20.1c48.1,0,93.2,18.7,127.2,52.7c34,34,52.7,79.2,52.7,127.2s-18.7,93.2-52.7,127.2c-34,34-79.2,52.7-127.2,52.7
			s-93.2-18.7-127.2-52.7c-34-34-52.7-79.2-52.7-127.2s18.7-93.2,52.7-127.2C106.8,38.8,151.9,20.1,200,20.1 M200,0.1
			C89.6,0.1,0.1,89.6,0.1,200S89.6,399.9,200,399.9S399.9,310.4,399.9,200S310.4,0.1,200,0.1L200,0.1z"/>
	</g>
</g>
<g id="People_Coding">
	<g>
		<path d="M319,307.3H217.1c-5.7,0-10.4-5.6-10.4-12.4l17.3-47.1c2.5-7.1,4.7-12.4,10.4-12.4h67.3c5.7,0,8,5.7,10.4,12.4l17.3,47.1
			C329.4,301.8,324.7,307.3,319,307.3z"/>
	</g>
	<g>
		<circle cx="266.9" cy="193.9" r="36.1"/>
	</g>
	<g>
		<path d="M177.9,307.3H76c-5.7,0-10.4-5.6-10.4-12.4l17.3-47.1c2.5-7.1,4.7-12.4,10.4-12.4h67.3c5.7,0,8,5.7,10.4,12.4l17.3,47.1
			C188.3,301.8,183.6,307.3,177.9,307.3z"/>
	</g>
	<g>
		<circle cx="125.8" cy="193.9" r="36.1"/>
	</g>
	<path d="M217.8,222.8H237c-2.4-2.5-4.4-5.2-6.1-8.2h-68.9c-1.7,3-3.8,5.7-6.1,8.2h16.7c1.2,3,1.4,7.4,0.8,11.9c1.7,2.6,3,6,4.3,9.6
		l4.4,11.9c2.9,0,5.8,0,8.3,0c0,0,4.1,0,9.7,0c3.9,0,8.5,0,13.1,0l4.4-11.9c0.3-0.9,0.6-1.8,1-2.6
		C216.5,235.4,216,227.3,217.8,222.8z"/>
	<path d="M302,77.7H91.3c-4.5,0-8.1,3.6-8.1,8.1v128.8c0,4.5,3.6,8.1,8.1,8.1h4.6c-7.2-7.5-11.6-17.6-11.6-28.8
		c0-8.6,2.6-16.6,7.1-23.2V85.9h210.6v85.6c4.1,6.5,6.6,14.2,6.6,22.4c0,11.2-4.4,21.3-11.6,28.8h5.2c4.5,0,8.1-3.6,8.1-8.1V85.8
		C310.1,81.3,306.5,77.7,302,77.7z"/>
	<polygon points="178.6,124.2 140.8,143.7 140.8,149 178.6,168.5 178.6,161 149.4,146.3 178.6,131.7 	"/>
	<polygon points="203.7,112.9 181.3,171 188.6,171 211,112.9 	"/>
	<polygon points="213.5,124.2 213.5,131.7 243,146.3 213.5,161 213.5,168.5 251.3,149.1 251.3,143.6 	"/>
	<rect x="167.1" y="176" width="57.9" height="4.6"/>
</g>
</svg>
