<?xml version="1.0" encoding="utf-8"?>
<!-- Generator: Adobe Illustrator 19.1.0, SVG Export Plug-In . SVG Version: 6.00 Build 0)  -->
<svg version="1.1" xmlns="http://www.w3.org/2000/svg" xmlns:xlink="http://www.w3.org/1999/xlink" x="0px" y="0px"
	 viewBox="0 0 400 400" style="enable-background:new 0 0 400 400;" xml:space="preserve">
<g id="Cirlce">
	<g>
		<path d="M200,20.1c48.1,0,93.2,18.7,127.2,52.7c34,34,52.7,79.2,52.7,127.2s-18.7,93.2-52.7,127.2c-34,34-79.2,52.7-127.2,52.7
			s-93.2-18.7-127.2-52.7c-34-34-52.7-79.2-52.7-127.2s18.7-93.2,52.7-127.2C106.8,38.8,151.9,20.1,200,20.1 M200,0.1
			C89.6,0.1,0.1,89.6,0.1,200S89.6,399.9,200,399.9S399.9,310.4,399.9,200S310.4,0.1,200,0.1L200,0.1z"/>
	</g>
</g>
<g id="Small_Schoolhouse">
	<path d="M227.1,151V91.7h9l-36.7-39.2l-35,39.2h8.2v59.8l-73.3,64.3l7.2,8.7l8.5-6.3v105.3h170V217l7.3,6.7l8.5-9.2L227.1,151z
		 M164.5,235.9h-13.3v-12.8h13.3V235.9z M164.5,220.9h-13.3v-12.8h13.3V220.9z M180.5,235.9h-13.3v-12.8h13.3V235.9z M180.5,220.9
		h-13.3v-12.8h13.3V220.9z M213.9,318.9h-27.3v-51.5h27.3V318.9z M217.9,143l-18.4-15.5l-17.2,15.7v-28.8l1.3-4.5l4-5.5l5.4-4.3
		l5-0.8v2.5l-1.9,1.1l-1.8,2.7l-0.5,1.9v5.1l-0.9,2.2l-3.4,2.6v0.9l1.6,1.3l8.3,0.9l8.9-1l1.1-0.8v-1.5l-2.8-2.8l-0.5-2.3v-4.7
		l-0.6-1.8l-2.4-3.1l-2.1-0.8c0,0,0.1-2.1,0.1-2.3l5.7,1.4l6.1,4.4l3.9,5.5l0.8,4.2V143z M233.2,235.9h-13.3v-12.8h13.3V235.9z
		 M233.2,220.9h-13.3v-12.8h13.3V220.9z M249.2,235.9h-13.3v-12.8h13.3V235.9z M249.2,220.9h-13.3v-12.8h13.3V220.9z"/>
</g>
</svg>
