<?xml version="1.0" encoding="utf-8"?>
<!-- Generator: Adobe Illustrator 21.1.0, SVG Export Plug-In . SVG Version: 6.00 Build 0)  -->
<svg version="1.1" xmlns="http://www.w3.org/2000/svg" xmlns:xlink="http://www.w3.org/1999/xlink" x="0px" y="0px"
	 viewBox="0 0 400 400" style="enable-background:new 0 0 400 400;" xml:space="preserve">
<g id="Cirlce">
	<g>
		<path d="M200,20.1c48.1,0,93.2,18.7,127.2,52.7c34,34,52.7,79.2,52.7,127.2s-18.7,93.2-52.7,127.2c-34,34-79.2,52.7-127.2,52.7
			s-93.2-18.7-127.2-52.7c-34-34-52.7-79.2-52.7-127.2s18.7-93.2,52.7-127.2C106.8,38.8,151.9,20.1,200,20.1 M200,0.1
			C89.6,0.1,0.1,89.6,0.1,200S89.6,399.9,200,399.9S399.9,310.4,399.9,200S310.4,0.1,200,0.1L200,0.1z"/>
	</g>
</g>
<g id="www">
	<path d="M52.7,207.2c0-4.8,0-9.6,0-14.4c0.5-4.3,0.7-8.6,1.5-12.9C65.5,118.8,100.1,77.9,159.7,59c9.4-3,19.4-4.2,29.1-6.3
		c5.2,0,10.5,0,15.7,0c5.4,0.5,10.9,0.7,16.2,1.6C278,64.9,318,96.8,338.5,151.6c4.6,12.2,5.9,25.7,8.8,38.6c0,6.5,0,13.1,0,19.6
		c-0.9,5.3-1.5,10.7-2.6,16c-12.7,59.4-48.1,98.3-106.3,116c-8.8,2.7-18.2,3.7-27.3,5.5c-7.4,0-14.8,0-22.3,0
		c-4.9-0.9-9.8-1.5-14.7-2.6C114.9,331.9,76,296.6,58.3,238.5C55.3,228.4,54.5,217.7,52.7,207.2z M268.2,188.1
		c-2.4-15-4.7-29.4-7-43.7c-17.2,0-33,0-49,0c0,14.8,0,29.3,0,43.7C230.8,188.1,248.9,188.1,268.2,188.1z M268.4,212.2
		c-19.8,0-38.1,0-56.3,0c0,14.9,0,29.1,0,44c15.5,0,30.4,0.1,45.4-0.1c1.2,0,3.2-1.6,3.4-2.7C263.5,239.7,265.9,226.1,268.4,212.2z
		 M188.5,144c-15.9,0-31,0-46,0.1c-1.1,0-3.1,1.3-3.2,2.2c-2.6,13.7-5,27.5-7.6,42.1c19,0,36.2,0.1,53.4-0.2c1.2,0,3.3-2.2,3.3-3.5
		C188.6,171.6,188.5,158.3,188.5,144z M131.7,211.9c2.6,14.4,4.9,28.2,7.6,41.9c0.2,1,2.9,2.2,4.5,2.3c6.5,0.3,13,0.1,19.6,0.1
		c8.2,0,16.3,0,24.5,0c0-15.4,0-29.8,0-44.3C169.3,211.9,151.3,211.9,131.7,211.9z M323.7,212.3c-0.9-0.3-1.3-0.6-1.7-0.6
		c-6.3-0.1-12.6-0.1-18.9-0.1c-12.3,0-12.3,0-13.6,11.8c-0.1,1.1-0.4,2.1-0.5,3.2c-1.4,9.6-2.9,19.1-4.5,29.5
		c8.3,0,16.1,0.1,23.9-0.1c1.3,0,3.1-1.5,3.8-2.7C318.8,240.4,321.8,226.5,323.7,212.3z M323.9,188.5c-2.3-14.9-5-28.9-11.8-41.7
		c-0.7-1.2-2.5-2.6-3.9-2.6c-7.8-0.2-15.6-0.1-23.4-0.1c1.8,14.3,3.4,27.8,5.3,41.3c0.2,1.2,2.1,3,3.2,3
		C303.3,188.6,313.3,188.5,323.9,188.5z M115.2,256.1c-1.8-14.6-3.5-28.3-5.3-42c-0.1-1-2-2.4-3.1-2.4c-10-0.2-20-0.1-30.6-0.1
		c2.2,14.6,4.9,28.4,11.4,41.1c0.7,1.5,2.7,3.2,4.2,3.2C99.6,256.3,107.4,256.1,115.2,256.1z M115.2,144c-7.7,0-15.3-0.2-22.9,0.1
		c-1.6,0.1-3.8,1.4-4.5,2.8c-6.7,12.9-9.6,26.8-11.6,41.6c10.3,0,20.1,0.1,29.9-0.1c1.3,0,3.6-1.9,3.8-3.1
		C111.8,171.9,113.4,158.6,115.2,144z M212.1,279.7c0,14.3,0,28.1,0,42c15.3-4.9,33.5-24.7,38.7-42
		C238,279.7,225.2,279.7,212.1,279.7z M188.2,279.8c-13.4,0-26.1,0-39.9,0c9.6,18.3,19.9,34.3,39.9,42.5
		C188.2,307.4,188.2,293.8,188.2,279.8z M211.9,120.2c13.2,0,26,0,39.7,0c-9.6-18.1-19.8-34.2-39.7-42.3
		C211.9,93,211.9,106.6,211.9,120.2z M148.3,120.4c14,0,26.7,0,39.4,0c0-14.1,0-27.8,0-42.5C168,86.6,157.7,102.2,148.3,120.4z
		 M135.1,307.2c0.4-0.4,0.8-0.8,1.1-1.2c-4-8.3-7.9-16.6-12-24.8c-0.4-0.8-1.6-1.7-2.4-1.8c-5.4-0.2-10.9-0.1-16.3-0.1
		c-0.3,0.7-0.5,1.4-0.8,2.1C114.8,290,125,298.6,135.1,307.2z M295.4,281.4c-0.4-0.7-0.7-1.4-1.1-2.2c-4.9,0-9.8-0.1-14.8,0.1
		c-1.3,0.1-3.1,0.9-3.7,1.9c-4.2,8.2-8.1,16.5-12,24.8c0.4,0.4,0.8,0.8,1.2,1.2C275.1,298.6,285.2,290,295.4,281.4z M265.1,93
		c-0.4,0.4-0.8,0.8-1.2,1.2c3.9,7.9,7.6,15.9,11.6,23.8c0.6,1.1,2.1,2.5,3.2,2.6c5.2,0.3,10.5,0.1,15.8,0.1c0.3-0.7,0.5-1.4,0.8-2.1
		C285.2,110.1,275.2,101.6,265.1,93z M104.8,118.7c0.4,0.7,0.8,1.4,1.1,2.1c5,0,9.9,0.1,14.9-0.1c1.2-0.1,3-1,3.6-2.1
		c4.1-8.1,7.9-16.2,11.9-24.4c-0.4-0.4-0.8-0.8-1.1-1.2C125,101.6,114.9,110.2,104.8,118.7z"/>
</g>
</svg>
