<?xml version="1.0" encoding="utf-8"?>
<!-- Generator: Adobe Illustrator 22.0.0, SVG Export Plug-In . SVG Version: 6.00 Build 0)  -->
<svg version="1.1" id="Layer_1" xmlns="http://www.w3.org/2000/svg" xmlns:xlink="http://www.w3.org/1999/xlink" x="0px" y="0px"
	 viewBox="0 0 400 400" style="enable-background:new 0 0 400 400;" xml:space="preserve">
<g id="Cirlce">
	<g>
		<path d="M200,20.1c48.1,0,93.2,18.7,127.2,52.7S379.9,152,379.9,200s-18.7,93.2-52.7,127.2S248,379.9,200,379.9
			s-93.2-18.7-127.2-52.7S20.1,248,20.1,200s18.7-93.2,52.7-127.2S151.9,20.1,200,20.1 M200,0.1C89.6,0.1,0.1,89.6,0.1,200
			S89.6,399.9,200,399.9S399.9,310.4,399.9,200S310.4,0.1,200,0.1L200,0.1z"/>
	</g>
</g>
<g>
	<path d="M215.1,205.5c-18.7,0-37.2,0-55.8,0c0.6,2.5,1.3,4.8,2.4,7c2.5,5,6.3,8.6,11.6,10.6c1.2,0.4,2.5,0.8,3.7,0.8
		c3.3,0.1,6.6,0,9.9-0.1c2-0.1,3.8-1.1,5.6-2c3-1.5,5.7-3.5,8.3-5.5c0.3-0.3,0.7-0.5,1.1-0.9c3.4,3,6.8,6,9.9,8.8
		c-1.4,1.6-2.7,3.2-4.2,4.6c-8,7.3-17.6,10.2-28.3,10c-10.2-0.3-19.2-3.8-26.5-11.1c-5.7-5.7-9.1-12.6-10.5-20.5
		c-1.5-8.5-0.9-16.8,2.5-24.8c4.9-11.5,13.3-19.3,25.6-22.3c10.7-2.6,20.8-1,29.8,5.7c7,5.2,11.3,12.2,13.4,20.6
		c1.2,4.8,2,9.7,2,14.6C215.6,202.5,215.3,203.9,215.1,205.5z M159,193.5c0.4,0,0.7,0,1,0c7.8,0,15.5,0,23.3,0
		c3.9,0,7.9-0.1,11.8-0.2c0.7,0,1.5-0.2,2.2-0.3c0.4-0.1,0.7-0.3,0.5-0.7c-0.6-2.2-1-4.5-1.9-6.6c-1.9-4.8-4.8-8.6-9.8-10.6
		c-6.5-2.6-12.7-2.1-18.3,2.1C162.6,181.3,160.2,187,159,193.5z"/>
	<path d="M64.3,161.3c0.8-0.1,1.5-0.3,2.2-0.3c5.3-0.1,10.6-0.1,15.9-0.2c0.6,0,0.6,0.4,0.8,0.8c2.5,6.4,5,12.9,7.4,19.4
		c4.3,11.2,8.6,22.5,12.9,33.7c0.2,0.5,0.5,1,0.8,1.7c0.2-0.5,0.4-0.8,0.5-1.1c2.1-5.6,4.2-11.3,6.2-16.9
		c4.3-12.2,8.6-24.4,12.8-36.7c0.2-0.6,0.4-0.8,1.1-0.8c5.1,0.1,10.2,0.1,15.3,0.1c2,0,2.1,0.2,1.4,2.1
		c-4.3,11.1-8.5,22.3-12.8,33.4c-6,15.5-12.1,31-18.2,46.6c-1.8,4.7-4.4,8.8-8.1,12.2c-3.1,2.9-6.7,4.8-11.1,5.1
		c-4.3,0.3-8.6,0.5-12.8-0.7c-2.7-0.8-5.2-1.8-7.8-2.8c-1.4-0.5-1.4-0.7-0.9-2.1c1.4-3.5,2.9-7,4.3-10.5c0.3-0.7,0.7-0.9,1.5-0.7
		c2.1,0.7,4.1,1.3,6.2,1.8c3.4,0.8,6.7,0.5,9.4-1.9c1.1-1,2.1-2.1,3-3.2c1-1.2,0.9-2.6,0.5-3.9c-1.1-3.4-2.2-6.9-3.6-10.3
		c-8.4-20.3-16.8-40.6-25.3-60.9C65.3,163.9,64.9,162.7,64.3,161.3z"/>
	<path d="M315.4,139.7c0.1,7.1,0.2,14,0.3,21c6.7,0,13.3,0,20,0c0,5.1,0,10,0,15.1c-6.6,0-13.3,0-20,0c0,0.3-0.1,0.5-0.1,0.7
		c0,10.9,0,21.8,0.1,32.7c0,2.7,0.3,5.3,0.6,8c0.3,2.6,1.7,4.1,4.6,4.7c4.4,0.8,8.8,0.6,13-1.4c1.1-0.5,1.6-0.3,1.7,0.9
		c0.1,1.3,0.1,2.6,0.1,3.9c0,2.9-0.1,5.9-0.2,8.8c0,0.2-0.1,0.6-0.3,0.7c-2,0.8-4,1.7-6.1,2.3c-1.2,0.4-2.6,0.5-3.9,0.6
		c-3.7,0.1-7.4,0.2-11.1,0c-5.5-0.3-9.8-3.1-12.9-7.6c-2.2-3.2-3.2-6.9-3.2-10.8c-0.1-19.7-0.3-39.4-0.4-59.1
		c0-6.4,0.1-12.8,0.1-19.1c0-0.9,0.3-1.2,1.1-1.3c0.9-0.1,1.9-0.2,2.8-0.2C306.1,139.6,310.7,139.6,315.4,139.7z"/>
	<path d="M215.3,236.3c0.3-0.4,0.4-0.7,0.6-0.9c7.3-10.2,14.7-20.3,22-30.5c1.2-1.7,2.4-3.5,3.7-5.2c0.5-0.6,0.5-1.1,0-1.7
		c-4-5.6-8-11.3-12.1-17c-4.5-6.3-9.1-12.6-13.6-18.9c-0.2-0.2-0.3-0.5-0.6-0.9c0.9-0.1,1.7-0.3,2.4-0.3c4.4-0.1,8.9-0.1,13.3-0.1
		c0.9,0,1.8,0,2.7,0c0.3,0,0.6,0.2,0.8,0.4c8.6,12,17.2,24,25.9,36c0.8,1.1,0.8,1.9,0,3.1c-5.1,7.1-10.1,14.2-15.2,21.3
		c-3.5,4.9-7,9.7-10.5,14.5c-0.4,0.5-0.7,0.7-1.3,0.7c-4.3,0-8.6,0-13,0c-1.4,0-2.8-0.1-4.2-0.3C216,236.6,215.8,236.5,215.3,236.3z
		"/>
	<path d="M256.4,217.9c3.2-4.4,6.3-8.7,9.5-13.2c0.4,0.5,0.7,0.8,0.9,1.1c7.1,9.8,14.3,19.5,21.4,29.3c0.9,1.3,0.8,1.6-0.8,1.6
		c-5.7,0.1-11.3,0.1-17,0.1c-0.3,0-0.6-0.3-0.8-0.6c-3.8-5.3-7.7-10.6-11.5-15.9C257.6,219.5,257,218.7,256.4,217.9z"/>
	<path d="M265.9,193c-3.2-4.5-6.3-8.8-9.5-13.2c0.7-0.9,1.4-1.9,2-2.8c3.8-5.2,7.5-10.4,11.3-15.5c0.2-0.3,0.6-0.5,0.9-0.5
		c5.4,0,10.8,0,16.1,0c0.5,0,1,0.1,1.5,0.2c0.7,0.1,0.8,0.3,0.4,1c-1.9,2.7-3.9,5.5-5.9,8.2c-5.4,7.3-10.7,14.6-16.1,21.9
		C266.4,192.3,266.2,192.5,265.9,193z"/>
</g>
</svg>
