<?xml version="1.0" encoding="utf-8"?>
<!-- Generator: Adobe Illustrator 19.1.0, SVG Export Plug-In . SVG Version: 6.00 Build 0)  -->
<svg version="1.1" xmlns="http://www.w3.org/2000/svg" xmlns:xlink="http://www.w3.org/1999/xlink" x="0px" y="0px"
	 viewBox="0 0 400 400" style="enable-background:new 0 0 400 400;" xml:space="preserve">
<g id="Cirlce">
	<g>
		<path d="M200,20.1c48.1,0,93.2,18.7,127.2,52.7c34,34,52.7,79.2,52.7,127.2s-18.7,93.2-52.7,127.2c-34,34-79.2,52.7-127.2,52.7
			s-93.2-18.7-127.2-52.7c-34-34-52.7-79.2-52.7-127.2s18.7-93.2,52.7-127.2C106.8,38.8,151.9,20.1,200,20.1 M200,0.1
			C89.6,0.1,0.1,89.6,0.1,200S89.6,399.9,200,399.9S399.9,310.4,399.9,200S310.4,0.1,200,0.1L200,0.1z"/>
	</g>
</g>
<g id="Accuo">
	<path d="M310.5,159.1c28.3,8.4,40.7,26.3,39.6,52.8c-0.9,21.4-15.7,38.6-36.4,42.7C352.3,226.5,347.2,183.6,310.5,159.1z"/>
	<path d="M302.2,237.1c21.3-20,21.3-38.8,0.9-58.1c14.1,4.6,21.1,14.4,21.3,27.9C324.8,220.8,318,231,302.2,237.1z"/>
	<path d="M295.4,223c12.5-10.3,12.4-20,0.5-29.9c8.3,2.4,12.3,7.4,12.5,14.4C308.6,214.6,304.6,219.9,295.4,223z"/>
	<rect x="54.4" y="205.2" width="292.6" height="4"/>
	<path d="M92.9,232.4h-4v-36.9c0-8.3-5.7-9.7-6.7-9.8H67.6c-3.2,0-5.6,0.8-7.3,2.5c-2.5,2.5-2.4,6.2-2.4,6.3l0,38h-4v-37.9
		c0-0.1-0.2-5.3,3.5-9.1c2.4-2.5,5.8-3.8,10.2-3.8l15.1,0c3.5,0.5,10.2,4,10.2,13.8V232.4z"/>
	<path d="M222.2,234.3l-13.7,0c-4-0.5-11.6-4-11.6-13.8v-36.9h4v36.9c0,8.3,7,9.7,8,9.8h13.3c3.2,0,5.7-0.9,7.3-2.5
		c2.4-2.5,2.4-6.2,2.4-6.2l0-38h4v37.9c0,0.1,0.2,5.3-3.5,9.1C230,233.1,226.5,234.3,222.2,234.3z"/>
	<path d="M129.8,232.8l-15.1,0c-4.1-0.6-11.8-4.4-11.8-14.8v-24.8c0-0.7-0.1-5,2.9-8.3c2.2-2.4,5.5-3.6,9.8-3.6h13
		c0.1,0,5-0.2,8.2,2.9c1.8,1.7,2.7,4,2.7,6.8h-4c0-1.7-0.5-3-1.4-3.9c-2-1.9-5.3-1.8-5.4-1.8l-13.1,0c-3.1,0-5.4,0.8-6.8,2.3
		c-2.1,2.2-1.9,5.4-1.9,5.4l0,0.1V218c0,9.1,7.2,10.7,8.2,10.8h14.7c5.5,0,6.8-4.7,6.9-5.2l3.9,0.9
		C140,227.4,136.8,232.8,129.8,232.8z"/>
	<path d="M176.8,232.8l-15.1,0c-4.1-0.6-11.8-4.4-11.8-14.8v-24.8c0-0.7-0.1-5,2.9-8.3c2.2-2.4,5.5-3.6,9.8-3.6h13
		c0.1,0,5-0.2,8.2,2.9c1.8,1.7,2.7,4,2.7,6.8h-4c0-1.7-0.5-3-1.4-3.9c-2-1.9-5.3-1.8-5.4-1.8l-13.1,0c-3.1,0-5.4,0.8-6.8,2.3
		c-2.1,2.2-1.9,5.4-1.9,5.4l0,0.1V218c0,9.1,7.2,10.7,8.2,10.8h14.7c5.5,0,6.8-4.7,6.9-5.2l3.9,0.9
		C187,227.4,183.8,232.8,176.8,232.8z"/>
	<path d="M271.2,234.4h-15.4c-4.1-0.1-11.9-3.2-11.9-14.2c0-7.6,0.2-25.7,0.2-25.9v0c0.1-4.3,3-12.4,13.3-12.4l13.6,0
		c3.9,0.6,11.4,3.8,11.4,11.3v28c0,0.7,0.1,6.5-3.4,10.2C276.9,233.4,274.4,234.4,271.2,234.4z M248.1,194.3
		c0,0.5-0.2,18.3-0.2,25.8c0,9.7,7.1,10.2,7.9,10.2l15.3,0c2.1,0,3.6-0.6,4.8-1.8c2.5-2.6,2.3-7.3,2.3-7.4l0-28.1
		c0-5.5-6.8-7.1-7.9-7.3h-13C248.4,185.8,248.1,193.9,248.1,194.3z"/>
</g>
</svg>
