<?xml version="1.0" encoding="utf-8"?>
<!-- Generator: Adobe Illustrator 21.1.0, SVG Export Plug-In . SVG Version: 6.00 Build 0)  -->
<svg version="1.1" xmlns="http://www.w3.org/2000/svg" xmlns:xlink="http://www.w3.org/1999/xlink" x="0px" y="0px"
	 viewBox="0 0 400 400" style="enable-background:new 0 0 400 400;" xml:space="preserve">
<g id="Cirlce">
	<g>
		<path d="M200,20.1c48.1,0,93.2,18.7,127.2,52.7c34,34,52.7,79.2,52.7,127.2s-18.7,93.2-52.7,127.2c-34,34-79.2,52.7-127.2,52.7
			s-93.2-18.7-127.2-52.7c-34-34-52.7-79.2-52.7-127.2s18.7-93.2,52.7-127.2C106.8,38.8,151.9,20.1,200,20.1 M200,0.1
			C89.6,0.1,0.1,89.6,0.1,200S89.6,399.9,200,399.9S399.9,310.4,399.9,200S310.4,0.1,200,0.1L200,0.1z"/>
	</g>
</g>
<g id="Amtrak">
	<path d="M362.3,156.4c-0.9,0.5-1.8,1-2.7,1.4c-19.9,8.8-39.3,18.6-57.7,30.4c-18,11.6-34.5,25-48.6,41.3
		c-8.7,10.1-16.3,21.1-22.4,33c-0.9,1.8-1.7,2.1-3.7,1.5c-18.4-5.6-36.5-12.3-54.3-19.6c-0.7-0.3-1.3-0.6-2.2-1.1
		c1.4-1.5,2.6-2.8,3.8-4c16-16.2,34.6-28.8,55-39c24.4-12.2,50.1-21,76.1-28.8c17.7-5.3,35.6-10.2,53.4-15.3c1-0.3,2-0.4,3-0.6
		C362.2,155.9,362.2,156.1,362.3,156.4z"/>
	<path d="M100.7,211.2c4.5-2.4,8.4-4.7,12.4-6.7c20.8-10.3,42.8-17.2,65.3-22.3c17.5-3.9,35.1-7.1,52.8-10.1
		c14.6-2.5,29.3-3.7,44.2-3.9c11.5-0.1,23.1-1.4,34.6-2.2c0.6,0,1.2-0.1,1.8-0.1c0.1,0.2,0.1,0.4,0.2,0.7c-0.7,0.3-1.4,0.7-2.1,0.8
		c-15.8,3.7-31.7,7-47.5,11.1c-26,6.7-51.2,15.9-74.9,28.7c-13.2,7.1-25.7,15.2-37.2,24.9c-1.6,1.3-2.8,1.5-4.7,0.6
		c-14.2-6.8-28.4-13.5-42.7-20.3C102.5,212.2,101.9,211.9,100.7,211.2z"/>
	<path d="M37.7,176.6c4.2-1.5,8-2.9,11.9-4.1c13.9-4.2,28.2-6.7,42.6-8.5c31.5-3.9,63.2-4.8,95-4.6c7.6,0.1,15.2,0.2,22.8,0.7
		c3.5,0.2,6.8,1.5,10.3,2.1c7.3,1.4,14.5,2.6,21.8,3.9c0.6,0.1,1.2,0.3,1.8,0.4c0,0.2,0,0.5,0,0.7c-0.9,0.2-1.8,0.5-2.8,0.6
		c-10.7,0.8-21.5,1.4-32.2,2.4c-20.5,1.9-40.9,4.7-61,8.9c-22.9,4.7-45.2,11.2-66.5,20.8c-0.7,0.3-1.9,0.3-2.6-0.1
		c-13.3-7.3-26.5-14.8-39.7-22.2C38.7,177.5,38.4,177.2,37.7,176.6z"/>
</g>
</svg>
