<?xml version="1.0" encoding="utf-8"?>
<!-- Generator: Adobe Illustrator 21.1.0, SVG Export Plug-In . SVG Version: 6.00 Build 0)  -->
<svg version="1.1" xmlns="http://www.w3.org/2000/svg" xmlns:xlink="http://www.w3.org/1999/xlink" x="0px" y="0px"
	 viewBox="0 0 400 400" style="enable-background:new 0 0 400 400;" xml:space="preserve">
<g id="Cirlce">
	<g>
		<path d="M200,20.1c48.1,0,93.2,18.7,127.2,52.7c34,34,52.7,79.2,52.7,127.2s-18.7,93.2-52.7,127.2c-34,34-79.2,52.7-127.2,52.7
			s-93.2-18.7-127.2-52.7c-34-34-52.7-79.2-52.7-127.2s18.7-93.2,52.7-127.2C106.8,38.8,151.9,20.1,200,20.1 M200,0.1
			C89.6,0.1,0.1,89.6,0.1,200S89.6,399.9,200,399.9S399.9,310.4,399.9,200S310.4,0.1,200,0.1L200,0.1z"/>
	</g>
</g>
<g id="Android_Phone">
	<path d="M252,57.1H148c-9.9,0-17.9,8.1-17.9,17.9V325c0,9.9,8.1,17.9,17.9,17.9H252c9.9,0,17.9-8.1,17.9-17.9V75
		C270,65.2,261.9,57.1,252,57.1z M190.2,66.9h31.2v1.7h-31.2V66.9z M180.1,65.4c1.3,0,2.4,1.1,2.4,2.4s-1.1,2.4-2.4,2.4
		c-1.3,0-2.4-1.1-2.4-2.4S178.8,65.4,180.1,65.4z M261.1,306.9c0,9.9-8.1,17.9-17.9,17.9h-86.3c-9.9,0-17.9-8.1-17.9-17.9V93.1
		c0-9.9,8.1-17.9,17.9-17.9h86.3c9.9,0,17.9,8.1,17.9,17.9V306.9z"/>
	<circle cx="199.5" cy="315.8" r="4"/>
	<rect x="163.9" y="311.5" width="8.5" height="8.5"/>
	<polygon points="228.9,312 228.9,319.6 235.9,315.8 	"/>
	<rect x="137.5" y="304.5" width="123.6" height="1.2"/>
</g>
</svg>
