<?xml version="1.0" encoding="utf-8"?>
<!-- Generator: Adobe Illustrator 19.1.0, SVG Export Plug-In . SVG Version: 6.00 Build 0)  -->
<svg version="1.1" xmlns="http://www.w3.org/2000/svg" xmlns:xlink="http://www.w3.org/1999/xlink" x="0px" y="0px"
	 viewBox="0 0 400 400" style="enable-background:new 0 0 400 400;" xml:space="preserve">
<style type="text/css">
	.st0{fill:#FFFFFF;}
</style>
<g id="Cirlce">
	<g>
		<path class="st0" d="M200,389.9C95.3,389.9,10.1,304.7,10.1,200S95.3,10.1,200,10.1S389.9,95.3,389.9,200S304.7,389.9,200,389.9z"
			/>
		<path d="M200,20.1c48.1,0,93.2,18.7,127.2,52.7c34,34,52.7,79.2,52.7,127.2s-18.7,93.2-52.7,127.2c-34,34-79.2,52.7-127.2,52.7
			s-93.2-18.7-127.2-52.7c-34-34-52.7-79.2-52.7-127.2s18.7-93.2,52.7-127.2C106.8,38.8,151.9,20.1,200,20.1 M200,0.1
			C89.6,0.1,0.1,89.6,0.1,200S89.6,399.9,200,399.9S399.9,310.4,399.9,200S310.4,0.1,200,0.1L200,0.1z"/>
	</g>
</g>
<g id="www">
	<g>
		<g>
			<path d="M56.8,192.1l94.8-48.8v14.1l-79.8,40v0.4l79.8,40v14.1l-94.8-48.8V192.1z"/>
			<path d="M154,256l-99.8-51.4v-14.1l99.8-51.4v19.7l-77.2,38.7l77.2,38.7V256z M59.3,201.6l89.8,46.2v-8.4l-79.8-40v-3.5l79.8-40
				v-8.4l-89.8,46.2V201.6z"/>
		</g>
		<g>
			<path d="M164.8,260.1l57-148h13.9l-57.2,148H164.8z"/>
			<path d="M180.2,262.6h-19l58.9-153h19.2L180.2,262.6z M168.4,257.6h8.3l55.2-143h-8.5L168.4,257.6z"/>
		</g>
		<g>
			<path d="M343.2,203.3l-94.8,48.6v-14.1l80.5-40v-0.4l-80.5-40v-14.1l94.8,48.6V203.3z"/>
			<path d="M246,256v-19.7l77.8-38.7L246,158.9v-19.7l99.8,51.2v14.5L246,256z M251,239.4v8.4l89.8-46v-8.4l-89.8-46v8.5l80.5,40
				v3.5L251,239.4z"/>
		</g>
	</g>
	<g>
		<rect x="76.2" y="275.8" width="247.6" height="12.1"/>
	</g>
</g>
</svg>
