<?xml version="1.0" encoding="utf-8"?>
<!-- Generator: Adobe Illustrator 21.1.0, SVG Export Plug-In . SVG Version: 6.00 Build 0)  -->
<svg version="1.1" xmlns="http://www.w3.org/2000/svg" xmlns:xlink="http://www.w3.org/1999/xlink" x="0px" y="0px"
	 viewBox="0 0 400 400" style="enable-background:new 0 0 400 400;" xml:space="preserve">
<g id="Cirlce">
	<g>
		<path d="M200,20.1c48.1,0,93.2,18.7,127.2,52.7c34,34,52.7,79.2,52.7,127.2s-18.7,93.2-52.7,127.2c-34,34-79.2,52.7-127.2,52.7
			s-93.2-18.7-127.2-52.7c-34-34-52.7-79.2-52.7-127.2s18.7-93.2,52.7-127.2C106.8,38.8,151.9,20.1,200,20.1 M200,0.1
			C89.6,0.1,0.1,89.6,0.1,200S89.6,399.9,200,399.9S399.9,310.4,399.9,200S310.4,0.1,200,0.1L200,0.1z"/>
	</g>
</g>
<g id="DNA">
	<path d="M155.5,234.4c-0.1-0.5-0.2-1.1-0.2-1.6c-5.4-35.7-2.3-59,9.1-69.2c12.7-11.4,38.8-8.5,65.9-2.4c-0.9-3.8-1.9-7.6-2.9-11.4
		c-0.9-3.5-1.7-6.9-2.5-10.3c-29.8-5.9-56.3-6.5-73.8,9.1c-16.7,15-21.8,41.5-16,83.3C141.2,232.6,148.1,233.4,155.5,234.4z"/>
	<rect x="116.9" y="231.8" transform="matrix(0.6945 -0.7195 0.7195 0.6945 -162.7017 172.5565)" width="10" height="92.2"/>
	<path d="M140.4,316l16.5,15.9c3.8-9,6.3-26,3-61.5c-7.4-1.1-14.2-2-20.4-2.7C142.1,293.4,141.6,308,140.4,316z"/>
	<path d="M253.8,142.9c-11.1-41.9-5.5-60.1-0.7-65.9L239,62.9c-2.6,2.8-5.3,6.7-7.4,12.2c-6.5,16.6-5.5,41.1,2.9,72.9
		c8.9,33.6,17.1,70.7,2.8,86.7c-10.2,11.4-33.5,14.4-69.2,9.1c-68.7-10.3-92.4-5.9-102.4,0l15.9,15.4c9.2-1.9,31.7-3.4,83.5,4.4
		c12.5,1.9,23.7,2.8,33.6,2.8c25.1,0,42.4-6,53.4-18.3C273.2,224.7,265,185,253.8,142.9z"/>
	<rect x="168.6" y="177.9" transform="matrix(0.7024 -0.7118 0.7118 0.7024 -108.8806 190.6757)" width="10" height="95.2"/>
	<rect x="271.9" y="71.9" transform="matrix(0.7024 -0.7118 0.7118 0.7024 -5.2555 233.7533)" width="10" height="102.6"/>
	<path d="M323.3,146.5c-1,1.1-2.9,2.8-6.6,4.2c-8,3.1-23.7,5.2-53.5-1.9c1.9,7.3,3.6,14.5,5,21.5c23.6,4.5,42.3,4.2,55.7-1.1
		c6.4-2.5,10.7-5.7,13.6-8.7L323.3,146.5z"/>
	<rect x="214.9" y="129.6" transform="matrix(0.7024 -0.7118 0.7118 0.7024 -63.302 210.3889)" width="10" height="102.6"/>
	<rect x="193.6" y="149.7" transform="matrix(0.7024 -0.7118 0.7118 0.7024 -84.8131 201.5345)" width="10" height="105"/>
</g>
</svg>
