<?xml version="1.0" encoding="utf-8"?>
<!-- Generator: Adobe Illustrator 21.1.0, SVG Export Plug-In . SVG Version: 6.00 Build 0)  -->
<svg version="1.1" xmlns="http://www.w3.org/2000/svg" xmlns:xlink="http://www.w3.org/1999/xlink" x="0px" y="0px"
	 viewBox="0 0 400 400" style="enable-background:new 0 0 400 400;" xml:space="preserve">
<g id="Cirlce">
	<g>
		<path d="M200,20.1c48.1,0,93.2,18.7,127.2,52.7c34,34,52.7,79.2,52.7,127.2s-18.7,93.2-52.7,127.2c-34,34-79.2,52.7-127.2,52.7
			s-93.2-18.7-127.2-52.7c-34-34-52.7-79.2-52.7-127.2s18.7-93.2,52.7-127.2C106.8,38.8,151.9,20.1,200,20.1 M200,0.1
			C89.6,0.1,0.1,89.6,0.1,200S89.6,399.9,200,399.9S399.9,310.4,399.9,200S310.4,0.1,200,0.1L200,0.1z"/>
	</g>
</g>
<g id="PhoneFit">
	<g id="Layer_3">
	</g>
	<path d="M339.1,237.4c-0.9,5.4-1.3,10.9-2.7,16.1c-5.8,21.4-15.9,40.7-29.6,58.1c-6.8,8.7-14.8,11.7-26.3,9.1
		c-8.5-2-18-1.1-26.8,0.5c-11.5,2-22.7,5.7-33.8,9.2c-18.6,5.9-36.4,4.9-53.6-4.7c-8.2-4.6-14.5-10.8-18.4-19.3
		c-3.2-7-7.3-12.9-13.8-17.5c-8.6-6-10.6-13.4-7.3-23.2c1.3-4,0.2-6.8-3.3-8.5c-10.6-5.2-13.4-13.7-12.2-24.9
		c0.3-3.4-2.3-7.7-4.8-10.7c-6.8-8.3-14.7-15.7-21.2-24.2c-6.5-8.3-7.1-18.4-4.8-28.4c1.4-6.3,1.5-12.2-1-18.2
		c-5-11.9-2.3-22.4,7-30.8c3.9-3.6,4-6.8,1.9-10.9c-1.6-3.2-3.5-6.3-4.8-9.6c-1.3-3.5-2.5-7.2-2.9-10.8c-0.6-6.2,1.5-11.7,7.3-14.8
		c6-3.3,11.9-2.1,16.9,2.2c4.7,4,8.6,8.9,13.1,13.2c35.5,33.7,77.1,57.1,122.6,74.3c19.7,7.5,39.3,15.6,58.5,24.2
		c7.8,3.5,15,8.8,21.9,13.9C333,210.4,338.9,222.4,339.1,237.4z M320,244.1c0.2-9.8-3.1-18.2-8.8-25.9c-6.5-8.9-15-15.8-24.9-20
		c-20.3-8.6-40.9-16.6-61.6-24.1c-42-15.3-79.1-38.1-110.8-69.7c-4-4-7.9-8.1-12.2-11.7c-1.6-1.4-4.3-1.5-6.5-2.2
		c0.1,2.3-0.4,4.8,0.3,6.9c4.9,13.8,13.6,25.2,23.3,35.8c17.2,18.8,38.7,31.4,61.6,41.5c20.4,9,41.5,16.2,61.9,25.2
		c15.1,6.7,30.2,13.9,44.2,22.7c17.9,11.2,22.6,31.4,12.7,50.2c-3.8,7.3-9.5,13.5-14.3,20.3c-1.5,2.1-3.9,4.1-4.3,6.5
		c-0.5,2.6-0.3,6.6,1.4,8.1c1.7,1.6,5.8,2,8.2,1.1c3-1.1,5.9-3.5,7.9-6.2C310.8,285.2,318,265.6,320,244.1z M195.1,204L195.1,204
		c1.8-1.3,2.1-3.9,0.7-5.6c-0.9-1.1-1.8-2.2-2.8-3.3c-0.6-0.6-1.7-0.7-2.6-0.9c-27.3-7.5-49.9-22.8-69.9-42.4
		c-5.8-5.7-11.8-11.1-18.1-16.2c-1.7-1.4-5.8-2.5-6.9-1.5c-1.9,1.6-3.4,5.1-3.3,7.6c0.5,7.8,3.9,14.5,9.5,20
		c16,15.5,34.8,26.5,55.6,34.1c9.7,3.5,19.6,6.3,30.1,9.6C190,206.2,192.9,205.7,195.1,204z M179.9,231.8c4.3-0.2,8.7-1.1,9.6-6.1
		c1-5.4-3.5-7.1-7.6-8c-25.4-5.9-48-17.5-69.4-32c-3.7-2.5-7.8-4.7-11.9-6.3c-2.1-0.8-5.5-0.7-7.2,0.6c-1.1,0.8-0.3,4.4,0.1,6.7
		c0.2,1.4,1.2,2.7,2,4c5.7,9.7,14.7,15.4,24,20.9c17.9,10.4,38.4,13.2,57.5,20C177.9,231.8,178.9,231.7,179.9,231.8z M286,257.4
		c3.2,0.1,5-3.7,2.9-6.2c-3.4-4.1-8-6.1-12.8-7.4c-22.4-6.1-44.8-12-67.2-17.8c-3.6-1-8.5-2.4-9.9,2c-0.9,3,1.1,7.4,2.9,10.6
		c1.1,2,4,3.6,6.4,4.3c9.1,2.5,18.2,5,27.4,6.7c15.9,2.9,32,5.2,48,7.7C284.5,257.4,285.2,257.4,286,257.4z M259.7,283
		c5.9-0.9,12-1.5,17.8-2.9c0.4-0.1,0.7-0.2,1-0.4c3.2-1.8,3-6.8-0.6-7.9c-0.2-0.1-0.3-0.1-0.5-0.1c-22.7-4.5-45.4-8.8-68.2-12.8
		c-3.2-0.6-8.4-1.8-8.9,2.9c-0.3,2.7,3.6,5.8,5.9,8.5c0.8,0.9,2.3,1.2,3.5,1.8C225.5,279.5,242.2,282.6,259.7,283z M170.3,263.2
		c3.6-0.9,7.7-0.9,10.7-2.8c2.9-1.8,6.1-5.3,6.4-8.3c0.2-2.1-4-5.6-6.9-6.7c-7.2-2.7-14.8-4.4-22.2-6.5c-6.5-1.9-13-4-19.6-5.4
		c-2.3-0.5-5.9-0.2-7.1,1.2c-1.2,1.5-1.3,5.5-0.1,7.2c3.1,4.6,6.5,9.4,10.9,12.5C150.5,260.2,160.2,262.2,170.3,263.2z M221.7,287.4
		c-4.3,0.6-8.4,0.8-9.7,5.7c-1.2,4.7,0.9,8.4,4.7,11.2c0.9,0.6,1.9,1.1,3,1.5c14.9,4.6,29.4,2.5,43.6-2.6c0.3-0.1,0.6-0.3,0.9-0.5
		c2.5-2,1.9-6.2-1.1-7.2c-0.1,0-0.3-0.1-0.4-0.1C249,292.5,235.3,290,221.7,287.4z M194.7,288.4c0.6-0.1,1.1-0.3,1.6-0.5
		c4-1.6,3.7-7.5-0.4-8.5c0,0-0.1,0-0.1,0c-12.5-2.9-25-5.5-37.6-7.7c-4.2-0.7-8.7-0.5-12.9,0.1c-2,0.3-4.6,2.2-5.4,4
		c-0.5,1.1,1.6,4,3.2,5.2c2.6,1.8,5.6,3.3,8.6,4c9.3,2.2,17.3,1.5,26.7,3.4 M197.2,320.3c1.1-0.1,3.8-0.2,6.4-0.5
		c1.3-0.2,2.6-0.6,3.8-1c4.9-1.9,5.4-4.2,1.5-7.8c-11.2-10.3-24.6-15.1-39.8-14.8c-7.5,0.2-8.9,3.1-4.7,9.2
		C172,316.3,183,320.2,197.2,320.3z M274.7,232.8c0.6-1.2,0.5-1,1-2.3c-2.9-2.2-5.6-4.6-8.7-6.5c-14.1-8.7-30-12.9-45.6-17.9
		c-0.4-0.1-0.7-0.3-1.1-0.2c-0.6,0.1-1.1,0.1-1.7,0.2c-2.4,0.3-4,2.8-2.9,4.9c0.1,0.2,0.3,0.4,0.4,0.6c3.7,3.4,7.3,7.2,11.8,9.1
		c7.4,3.2,15.3,5.2,23.1,7.2C258.9,229.8,266.8,231.2,274.7,232.8z"/>
</g>
</svg>
