<?xml version="1.0" encoding="utf-8"?>
<!-- Generator: Adobe Illustrator 19.1.0, SVG Export Plug-In . SVG Version: 6.00 Build 0)  -->
<svg version="1.1" xmlns="http://www.w3.org/2000/svg" xmlns:xlink="http://www.w3.org/1999/xlink" x="0px" y="0px"
	 viewBox="0 0 400 400" style="enable-background:new 0 0 400 400;" xml:space="preserve">
<g id="Cirlce">
	<g>
		<path d="M200,20.1c48.1,0,93.2,18.7,127.2,52.7c34,34,52.7,79.2,52.7,127.2s-18.7,93.2-52.7,127.2c-34,34-79.2,52.7-127.2,52.7
			s-93.2-18.7-127.2-52.7c-34-34-52.7-79.2-52.7-127.2s18.7-93.2,52.7-127.2C106.8,38.8,151.9,20.1,200,20.1 M200,0.1
			C89.6,0.1,0.1,89.6,0.1,200S89.6,399.9,200,399.9S399.9,310.4,399.9,200S310.4,0.1,200,0.1L200,0.1z"/>
	</g>
</g>
<g id="PillPal">
	<path d="M275.2,305.2c-11.6-1.1-22.1,1.9-33.1,6.2c-42.1,16.4-82.4,11.6-118.5-15.8C70.4,255.2,62,180.5,99.7,129.3
		c24.6-33.4,58.3-49.7,99.4-49.6c60.4,0.2,111.8,48.8,117.2,108.9c2,22.1-2.1,42.8-10.7,63c-2,4.7-2.8,10.2-3.1,15.4
		c-0.5,8.9,0,17.9-0.2,26.9c-0.1,8.1-3.1,11-11.2,11.2C285.9,305.3,280.5,305.2,275.2,305.2z M273.8,244.7
		c-0.1-14.6-6.6-23.9-15.4-32.1c-27.2-25.6-54.4-51.2-81.4-77c-15.2-14.5-36.7-14.8-51.2-0.2c-13.9,13.9-13.6,36.5,0.9,50.8
		c15.2,15,30.5,29.9,45.9,44.7c13.2,12.7,26.5,25.3,40,37.6c11.8,10.8,25.5,13.7,40.2,7C266.6,269.2,273.1,257.7,273.8,244.7z"/>
	<path d="M152.5,133.4c6.8-0.5,13,2.6,18.5,7.8c12.6,12,25.2,23.9,37.9,35.7c3,2.8,3.4,4.8,0.3,8c-9.9,10.3-19.7,20.7-29.3,31.4
		c-3.3,3.7-6.1,4-9.5,0.6c-13.4-13-27.4-25.5-40.2-39c-7.6-8.1-8.7-18.5-3.9-28.9C131.4,138.4,139.7,133.1,152.5,133.4z"/>
</g>
</svg>
