<?xml version="1.0" encoding="utf-8"?>
<!-- Generator: Adobe Illustrator 21.1.0, SVG Export Plug-In . SVG Version: 6.00 Build 0)  -->
<svg version="1.1" xmlns="http://www.w3.org/2000/svg" xmlns:xlink="http://www.w3.org/1999/xlink" x="0px" y="0px"
	 viewBox="0 0 400 400" style="enable-background:new 0 0 400 400;" xml:space="preserve">
<g id="Cirlce">
	<g>
		<path d="M200,20.1c48.1,0,93.2,18.7,127.2,52.7c34,34,52.7,79.2,52.7,127.2s-18.7,93.2-52.7,127.2c-34,34-79.2,52.7-127.2,52.7
			s-93.2-18.7-127.2-52.7c-34-34-52.7-79.2-52.7-127.2s18.7-93.2,52.7-127.2C106.8,38.8,151.9,20.1,200,20.1 M200,0.1
			C89.6,0.1,0.1,89.6,0.1,200S89.6,399.9,200,399.9S399.9,310.4,399.9,200S310.4,0.1,200,0.1L200,0.1z"/>
	</g>
</g>
<g id="Stethescope">
	<path d="M145.3,159.9c1.6-2.6,3.3-5.2,4.8-7.8c0.8-1.4,0.8-3.2,1.8-4.3c1.7-2,3.6-3.7,5.7-5.2c1.9-1.3,3.5-0.1,4.8,1.4
		c1.7,1.9,2,4.2,0.6,5.6c-2.6,2.6-5.2,5.1-9.4,4.7c-2.4-0.2-5.5,5.4-4.4,8.2c0.8,2.1,2,4.3,3.5,6c6.2,6.8,13.4,12.5,21.4,17.2
		c4.9,2.9,10.4,4.1,16,4.4c6,0.4,12,0.2,17.8-1.8c7.5-2.6,11-7.9,9.9-15.8c-1.3-10-5.5-18.7-12.2-26.1c-5.5-6-11.1-12-18.3-16.2
		c-4-2.4-7.2-2.3-9.6,0.2c-0.6,0.6-1.1,1.7-1.1,2.6c0.2,4.4-2.4,7.1-5.5,9.5c-1.3,1-4.2,0-5.5-1.7c-1.2-1.5-1.9-3.1-0.3-4.9
		c2.3-2.6,4.3-5.3,8-6.4c2.6-0.7,4.7-3,7-4.6c1,0,2,0,3,0c9.4,3.3,16.4,9.8,22.5,17.3c6,7.2,11.7,14.6,17.6,21.8
		c0.8,1,2.3,1.4,3.3,2.2c7.7,7.1,11.3,22.4,7.4,32c-0.9,2.1-0.3,3.1,1.3,4.3c7.3,5.6,14.2,11.6,19.9,18.9c4.3,5.5,6.3,12.1,8.2,18.7
		c0,2.8,0,5.7,0,8.5c-3.9,14.6-18.6,20.1-29.9,18c-4.9-0.9-9.5-3.1-14.2-4.7c-2.9-1-5.7-2.4-8.7-3.1c-5.9-1.2-10.5,1.7-14.6,5.5
		c-3.7,3.5-7.8,6-12.8,6.8c-2.5,0-5,0-7.5,0c-0.7-0.2-1.4-0.4-2.1-0.7c-10.9-4.4-18.4-11.7-20-23.8c-0.6-5-0.2-10.1-0.3-15.2
		c0-0.8-0.3-2-0.8-2.3c-3.9-2.2-6.1-5.5-7.4-9.6c0-1.2,0-2.3,0-3.5c1.1-2.1,2-4.2,3.3-6.1c2.7-3.7,7.9-5.3,12.3-3.9
		c5.5,1.8,8.7,5.8,9,10.7c0.3,5.6-2.1,9.4-6.7,12.2c-0.8,0.5-1.7,1.7-1.8,2.6c-1,6.8-0.7,13.7,1.4,20.3c3.4,10.5,17.3,15.2,26.3,9
		c1.6-1.1,3.1-2.3,4.6-3.5c7.7-6.7,16.3-7.9,25.6-4c3.1,1.3,6.2,2.8,9.4,4.2c7.8,3.4,15.1,1.8,21.9-2.3c4.6-2.8,6.8-9.4,5.5-15.1
		c-1.5-6.3-4.2-12.1-8.7-16.7c-5.7-5.9-11.9-11.2-17.8-16.8c-1-0.9-1.8-1.1-3.1-0.3c-7.2,4.1-14.9,4.3-22.4,1.3
		c-4.3-1.7-8.3-4.2-12.4-6.4c-0.6-0.4-1-1.2-1.5-1.8c-0.6-0.7-1-1.7-1.7-2.1c-11.7-6-22.8-12.8-32.9-21.3
		c-4.5-3.7-8.1-8.1-10.2-13.7C145.3,161.5,145.3,160.7,145.3,159.9z M220.8,165.9c-0.3,0.1-0.6,0.2-0.9,0.3c0.2,0.8,0.5,1.7,0.6,2.5
		c1.4,6.3,1.8,12.4-2.7,17.8c-3.5,4.2-8.1,6.4-13.4,6.8c-4.9,0.4-9.9,0.1-15.6,0.1c1.3,0.7,2,1.2,2.8,1.6c1.7,0.8,3.5,1.2,5.1,2.2
		c4.1,2.6,8.5,4.6,13.3,5.4c13.6,2.5,22.7-7.8,18.2-20.8c-1.4-3.9-3.7-7.4-5.6-11.1c-0.4-0.7-0.7-1.5-0.9-2.2
		C221.3,167.6,221.1,166.8,220.8,165.9z M151.8,217.7c0,3.5,2.6,6.2,5.8,6.2c3.3,0,6.3-2.9,6.2-6.2c-0.1-3.2-2.9-6.1-6.1-6.1
		C154.5,211.5,151.7,214.3,151.8,217.7z"/>
	<path d="M323.4,167.1c-1.1,0-2,0-3.1,0c0,0.7-0.1,1.4-0.1,2.1c0,33.7,0,67.5,0,101.2c0,2.2-0.1,4.3-1.6,6.1
		c-2.1,2.5-4.8,3.3-7.9,2.6c-3.1-0.6-5-2.6-5.8-5.5c-0.3-1-0.3-2-0.3-3.1c0-19.2,0-38.3,0-57.5c0-0.6,0-1.2,0-1.9
		c-1.2,0-2.2,0-3.4,0c0,0.7,0,1.3,0,2c0,19.3,0,38.6,0,58c0,6.1-5,9.7-10.7,7.8c-2.9-1-5.2-4-5.3-7.3c0-0.8,0-1.5,0-2.3
		c0-33.5,0-67,0-100.4c0-1,0.2-1.9-1.4-1.9c-1.4,0-1.7,0.5-1.7,1.8c0,12,0,23.9,0,35.9c0,3.6-1.8,5.7-5,6.1
		c-3.2,0.4-6.1-1.8-6.6-4.9c-0.1-0.7-0.1-1.4-0.1-2.2c0-13.2,0-26.5,0-39.7c0-6.5,2.4-11.7,7.6-15.6c2.9-2.2,6.3-3.1,10-3.1
		c9.9,0,19.8,0,29.7,0c10.3-0.1,17.7,8.5,17.7,17.8c-0.1,13.9,0,27.7,0,41.6c0,2.3-0.8,4.3-2.9,5.4c-2.2,1.2-4.5,1-6.6-0.4
		c-1.7-1.2-2.3-2.9-2.3-5c0-11.8,0-23.7,0-35.5C323.4,168.5,323.4,167.9,323.4,167.1z"/>
	<path d="M302.8,141.7c-7.7,0-13.4-5.6-13.4-13.3c0-7.6,5.9-13.6,13.4-13.6c7.3,0,13.5,6.1,13.5,13.4
		C316.4,135.9,310.6,141.7,302.8,141.7z"/>
	<path d="M114.3,167.1c-1.1,0-2,0-3.1,0c0,0.7-0.1,1.4-0.1,2.1c0,33.7,0,67.5,0,101.2c0,2.2-0.1,4.3-1.6,6.1
		c-2.1,2.5-4.8,3.3-7.9,2.6c-3.1-0.6-5-2.6-5.8-5.5c-0.3-1-0.3-2-0.3-3.1c0-19.2,0-38.3,0-57.5c0-0.6,0-1.2,0-1.9
		c-1.2,0-2.2,0-3.4,0c0,0.7,0,1.3,0,2c0,19.3,0,38.6,0,58c0,6.1-5,9.7-10.7,7.8c-2.9-1-5.2-4-5.3-7.3c0-0.8,0-1.5,0-2.3
		c0-33.5,0-67,0-100.4c0-1,0.2-1.9-1.4-1.9c-1.4,0-1.7,0.5-1.7,1.8c0,12,0,23.9,0,35.9c0,3.6-1.8,5.7-5,6.1
		c-3.2,0.4-6.1-1.8-6.6-4.9c-0.1-0.7-0.1-1.4-0.1-2.2c0-13.2,0-26.5,0-39.7c0-6.5,2.4-11.7,7.6-15.6c2.9-2.2,6.3-3.1,10-3.1
		c9.9,0,19.8,0,29.7,0c10.3-0.1,17.7,8.5,17.7,17.8c-0.1,13.9,0,27.7,0,41.6c0,2.3-0.8,4.3-2.9,5.4c-2.2,1.2-4.5,1-6.6-0.4
		c-1.7-1.2-2.3-2.9-2.3-5c0-11.8,0-23.7,0-35.5C114.3,168.5,114.3,167.9,114.3,167.1z"/>
	<path d="M93.8,141.7c-7.7,0-13.4-5.6-13.4-13.3c0-7.6,5.9-13.6,13.4-13.6c7.3,0,13.5,6.1,13.5,13.4
		C107.3,135.9,101.5,141.7,93.8,141.7z"/>
</g>
</svg>
