<?xml version="1.0" encoding="utf-8"?>
<!-- Generator: Adobe Illustrator 21.1.0, SVG Export Plug-In . SVG Version: 6.00 Build 0)  -->
<svg version="1.1" xmlns="http://www.w3.org/2000/svg" xmlns:xlink="http://www.w3.org/1999/xlink" x="0px" y="0px"
	 viewBox="0 0 400 400" style="enable-background:new 0 0 400 400;" xml:space="preserve">
<g id="Cirlce">
	<g>
		<path d="M200,20.1c48.1,0,93.2,18.7,127.2,52.7c34,34,52.7,79.2,52.7,127.2s-18.7,93.2-52.7,127.2c-34,34-79.2,52.7-127.2,52.7
			s-93.2-18.7-127.2-52.7c-34-34-52.7-79.2-52.7-127.2s18.7-93.2,52.7-127.2C106.8,38.8,151.9,20.1,200,20.1 M200,0.1
			C89.6,0.1,0.1,89.6,0.1,200S89.6,399.9,200,399.9S399.9,310.4,399.9,200S310.4,0.1,200,0.1L200,0.1z"/>
	</g>
</g>
<g id="Train">
	<path d="M130.7,324.8c-7.9,0-15.8,0-23.7,0c13.9-20.5,27.8-41,41.8-61.7c-19.4-7.1-27.7-17.4-27.8-34.7c-0.1-39.7-0.1-79.4,0-119.1
		c0.1-16.9,9-28.3,25.5-33.2c0.6-0.2,1.1-0.6,1.6-0.9c34.9,0,69.9,0,104.8,0c16.5,5.1,26.9,15.6,27.1,33.5
		c0.3,40.1,0.2,80.1,0,120.2c-0.1,16.2-8.7,27.4-24,32.6c-1.1,0.4-2.3,0.9-3.8,1.5c12.5,18.6,25,37,37.3,55.4c1.3,2,2.2,4.3,3.3,6.4
		c-7.5,0-15,0-22.5,0c-2.3-5.2-6.4-6.3-12-6.3c-38.6,0.2-77.3,0.2-115.9,0C137.1,318.5,133.1,319.5,130.7,324.8z M200.6,165.3
		c14.1,0,28.2,0.1,42.4,0c11.5-0.1,17.3-5.9,17.4-17.2c0.1-11.6,0.1-23.3,0-34.9c-0.1-11.3-5.9-17.6-17.1-17.7
		c-28.4-0.2-56.9-0.2-85.3,0c-10.8,0.1-16.2,5.9-16.4,16.8c-0.1,12-0.1,24.1,0,36.1c0.1,11.7,5.1,16.8,16.7,16.8
		C172.4,165.3,186.5,165.3,200.6,165.3z M148.8,298.1c34.9,0,68.9,0,103.6,0c-3-4.4-5.2-8.5-8.1-11.9c-1.6-1.9-4.5-3.7-6.9-3.7
		c-24.7-0.3-49.4-0.2-74.1-0.1c-1.7,0-4.1,0.4-4.9,1.6C155.1,288.3,152.2,293,148.8,298.1z M170.8,231.2c0-8.9-6.4-15.4-15.1-15.4
		c-8.8,0.1-15.1,6.4-15.1,15.4c0,9.1,6,15.2,15.1,15.2C164.7,246.4,170.8,240.3,170.8,231.2z M245.1,246.4
		c9.1,0.1,15.4-5.9,15.5-14.8c0.1-9-6-15.5-14.7-15.7c-8.7-0.2-15.3,6.1-15.4,15C230.3,240,236.2,246.3,245.1,246.4z"/>
</g>
</svg>
