<?xml version="1.0" encoding="utf-8"?>
<!-- Generator: Adobe Illustrator 19.1.0, SVG Export Plug-In . SVG Version: 6.00 Build 0)  -->
<svg version="1.1" xmlns="http://www.w3.org/2000/svg" xmlns:xlink="http://www.w3.org/1999/xlink" x="0px" y="0px"
	 viewBox="0 0 400 400" style="enable-background:new 0 0 400 400;" xml:space="preserve">
<g id="Cirlce">
	<g>
		<path d="M200,20.1c48.1,0,93.2,18.7,127.2,52.7c34,34,52.7,79.2,52.7,127.2s-18.7,93.2-52.7,127.2c-34,34-79.2,52.7-127.2,52.7
			s-93.2-18.7-127.2-52.7c-34-34-52.7-79.2-52.7-127.2s18.7-93.2,52.7-127.2C106.8,38.8,151.9,20.1,200,20.1 M200,0.1
			C89.6,0.1,0.1,89.6,0.1,200S89.6,399.9,200,399.9S399.9,310.4,399.9,200S310.4,0.1,200,0.1L200,0.1z"/>
	</g>
</g>
<g id="Utah_Teapot">
	<path d="M342.2,149.1c0,0-14.6-1.1-22.1,6.4c-7.4,7.4-9.4,25.6-15.7,33.5c-6.3,8-17.6,11.6-21.4,11.2c-1.3-3.6-17.2-46.9-24.4-53.5
		c-7.2-6.7-41.6-11.6-60.6-11.2c-0.1-2.1,3.8-4.8,5.4-7.1c1.6-2.3,4.7-4.2,3.9-7.8c-0.7-3.6-12.5-4.9-17.9-4.7
		c-5.4,0.2-17.7,0.8-17.3,6c0.4,5.2,6.4,8,8,11.1c1.6,3.2,0.8,3,0.8,3s-42.8-1.1-60.5,10.5c-3,1.6-8.6,14.4-8.6,14.4
		s-42.7-0.5-51.6,2.8c-8.9,3.3-19,5.5-17.9,21.7c1.1,16.2,12.3,38.7,52.5,56.5c2.3,5.2,14.5,19.5,21.3,22.7c0.2,0.8,1.4,3.4,5,4.8
		c3.6,1.4,24.8,9.2,59.1,9c34.2-0.2,69-0.7,82.9-12.9c12-8.2,21.2-21.2,22.3-26c0,0,24.6-3.2,34.6-33.7c10-30.5,10.9-37.1,20.6-45
		c9.6-7.8,16.5-7.3,17.5-10.4C358.3,149,342.2,149.1,342.2,149.1z M91.6,226.9c-21.6-10.1-30.7-27.4-32.5-33.1
		c-1.8-5.7-5.3-14.7,5.2-18.2c11.8-3.9,42.2-2.8,42.2-2.8S88.7,213.3,91.6,226.9z"/>
</g>
</svg>
