<?xml version="1.0" encoding="utf-8"?>
<!-- Generator: Adobe Illustrator 21.1.0, SVG Export Plug-In . SVG Version: 6.00 Build 0)  -->
<svg version="1.1" xmlns="http://www.w3.org/2000/svg" xmlns:xlink="http://www.w3.org/1999/xlink" x="0px" y="0px"
	 viewBox="0 0 400 400" style="enable-background:new 0 0 400 400;" xml:space="preserve">
<g id="Cirlce">
	<g>
		<path d="M200,20.1c48.1,0,93.2,18.7,127.2,52.7c34,34,52.7,79.2,52.7,127.2s-18.7,93.2-52.7,127.2c-34,34-79.2,52.7-127.2,52.7
			s-93.2-18.7-127.2-52.7c-34-34-52.7-79.2-52.7-127.2s18.7-93.2,52.7-127.2C106.8,38.8,151.9,20.1,200,20.1 M200,0.1
			C89.6,0.1,0.1,89.6,0.1,200S89.6,399.9,200,399.9S399.9,310.4,399.9,200S310.4,0.1,200,0.1L200,0.1z"/>
	</g>
</g>
<g id="Apple">
	<path d="M282.6,146.1C252.8,108.3,181.9,125,181.9,125s-3-2.5,2.1-4.7c5-2.3,2.4-4.2,8.5-3.3c6.1,1,27.9,3.9,50-10.5
		c22.1-14.4,27.2-33.9,31.1-35.1c-3.5-2.5-20.1-9.8-37.9-6c-17.8,3.9-41.6,18.7-46,33.2c-4.4,14.5-7.5,21.3-13.6,24.3l-2.7-3.5
		c0,0-12.8-18.9-14.6-20.1c-1.8-1.3-7,1.3-7,1.3s-5.2,2.2-2.7,4.3c2.4,2.1,2.8,2.5,7,3.2s14,16.7,14,16.7s-32.8,3.8-46.5,12.8
		C110,146.7,93,172.8,92,196.7c-1,23.8,6.4,65.5,30.7,95.3c24.3,29.7,33,30.5,38.2,29.6c5.2-0.8,7.7-1.7,10.9-2.1
		c3.2-0.3,6.6,7.3,18.6,7c12-0.3,16.3-10.4,25.1-10.6c8.8-0.2,3.6,6.8,16.7,6c13.1-0.7,50.4-25.6,63.1-68.7
		C307.8,210,312.3,183.9,282.6,146.1z M226.4,135.6c-0.1,0.1-0.1,0.2-0.2,0.3c-0.2,0.2-0.3,0.3-0.5,0.4c-0.4,0.2-0.7,0.4-1.1,0.6
		c-0.7,0.3-1.5,0.6-2.2,0.9c-3,1-6.1,1.6-9.2,2.2c-6.2,1.2-12.4,2-18.6,2.7c-6.3,0.6-12.6,0.8-18.9,0.3c-3.1-0.2-6.3-0.6-9.4-1.3
		c-0.8-0.2-1.5-0.4-2.3-0.6c-0.4-0.1-0.8-0.2-1.1-0.4c-0.2-0.1-0.4-0.2-0.6-0.3c-0.2-0.1-0.4-0.2-0.5-0.4c-0.2-0.2-0.3-0.4-0.3-0.7
		c0-0.3,0.2-0.5,0.4-0.6c0.3-0.3,0.7-0.4,1.1-0.6c0.7-0.3,1.5-0.5,2.3-0.6c-0.7,0.2-1.5,0.5-2.2,0.9c-0.3,0.2-0.7,0.4-0.9,0.6
		c-0.3,0.3-0.3,0.5,0,0.7c0.5,0.4,1.3,0.6,2.1,0.7c0.7,0.2,1.5,0.3,2.3,0.4c3.1,0.4,6.2,0.6,9.3,0.7c3.1,0.1,6.2,0.1,9.3,0
		c3.1-0.1,6.2-0.3,9.3-0.7c3.1-0.3,6.2-0.7,9.3-1.1c3.1-0.4,6.2-0.8,9.3-1.2c3.1-0.5,6.2-0.9,9.2-1.6c0.8-0.2,1.5-0.4,2.2-0.6
		c0.4-0.1,0.7-0.3,1-0.4c0.3-0.2,0.6-0.4,0.6-0.6c0.1-0.7-0.5-1.2-1.3-1.4c-0.7-0.2-1.5-0.3-2.3-0.3c0.8-0.1,1.6-0.1,2.4,0
		c0.4,0.1,0.8,0.2,1.1,0.5c0.4,0.3,0.6,0.8,0.6,1.2C226.5,135.3,226.4,135.5,226.4,135.6z"/>
</g>
</svg>
