<?xml version="1.0" encoding="utf-8"?>
<!-- Generator: Adobe Illustrator 21.1.0, SVG Export Plug-In . SVG Version: 6.00 Build 0)  -->
<svg version="1.1" id="Blocks" xmlns="http://www.w3.org/2000/svg" xmlns:xlink="http://www.w3.org/1999/xlink" x="0px" y="0px"
	 viewBox="0 0 400 400" style="enable-background:new 0 0 400 400;" xml:space="preserve">
<path d="M192.9,400H0V207.1h192.9V400z M13,387h166.9V220.1H13V387z"/>
<path d="M400.4,400H207.5V207.1h192.9V400z M220.5,387h166.9V220.1H220.5V387z"/>
<path d="M296.6,208.2H103.6V15.2h192.9V208.2z M116.7,195.2h166.9V28.3H116.7V195.2z"/>
<path d="M210.2,158.2h-11.9V82.7c-2.9,2.7-6.6,5.4-11.2,8.2c-4.6,2.7-8.8,4.8-12.5,6.1V85.5c6.6-3.1,12.4-6.9,17.4-11.3
	c5-4.4,8.5-8.7,10.5-12.9h7.6V158.2z"/>
<path d="M274.5,322.1l11.9-1.6c1.4,6.7,3.7,11.6,6.9,14.5c3.3,3,7.3,4.4,12,4.4c5.6,0,10.3-1.9,14.1-5.8s5.8-8.7,5.8-14.4
	c0-5.4-1.8-9.9-5.3-13.5c-3.6-3.5-8.1-5.3-13.6-5.3c-2.2,0-5,0.4-8.4,1.3l1.3-10.4c0.8,0.1,1.4,0.1,1.9,0.1c5,0,9.6-1.3,13.6-4
	s6.1-6.7,6.1-12.2c0-4.3-1.5-7.9-4.4-10.8c-2.9-2.9-6.7-4.3-11.4-4.3c-4.6,0-8.5,1.4-11.5,4.3c-3.1,2.9-5.1,7.2-5.9,13l-11.9-2.1
	c1.4-7.9,4.7-14.1,9.9-18.5c5.1-4.4,11.5-6.6,19.2-6.6c5.3,0,10.1,1.1,14.6,3.4c4.4,2.3,7.8,5.3,10.2,9.3c2.3,3.9,3.5,8.1,3.5,12.4
	c0,4.2-1.1,8-3.4,11.4c-2.2,3.4-5.6,6.1-9.9,8.2c5.7,1.3,10.1,4.1,13.3,8.2c3.2,4.1,4.7,9.3,4.7,15.6c0,8.4-3.1,15.6-9.2,21.4
	c-6.1,5.9-13.9,8.8-23.3,8.8c-8.5,0-15.5-2.5-21.1-7.6S275.3,330.1,274.5,322.1z"/>
<path d="M125.8,336.2v11.4H61.9c-0.1-2.9,0.4-5.6,1.4-8.2c1.6-4.3,4.2-8.6,7.8-12.8c3.6-4.2,8.7-9.1,15.5-14.6
	c10.5-8.6,17.6-15.4,21.3-20.5c3.7-5,5.5-9.8,5.5-14.3c0-4.7-1.7-8.7-5-11.9s-7.7-4.8-13.1-4.8c-5.7,0-10.3,1.7-13.7,5.1
	c-3.4,3.4-5.2,8.2-5.2,14.2l-12.2-1.3c0.8-9.1,4-16,9.4-20.8c5.4-4.8,12.8-7.1,21.9-7.1c9.3,0,16.6,2.6,22,7.7s8.1,11.5,8.1,19.1
	c0,3.9-0.8,7.7-2.4,11.4c-1.6,3.7-4.2,7.7-7.9,11.8c-3.7,4.1-9.8,9.8-18.3,17c-7.1,6-11.7,10-13.7,12.2c-2,2.1-3.7,4.3-5,6.4H125.8z
	"/>
</svg>
