<?xml version="1.0" encoding="utf-8"?>
<!-- Generator: Adobe Illustrator 21.1.0, SVG Export Plug-In . SVG Version: 6.00 Build 0)  -->
<svg version="1.1" xmlns="http://www.w3.org/2000/svg" xmlns:xlink="http://www.w3.org/1999/xlink" x="0px" y="0px"
	 viewBox="0 0 400 400" style="enable-background:new 0 0 400 400;" xml:space="preserve">
<g id="Cirlce">
	<g>
		<path d="M200,20.1c48.1,0,93.2,18.7,127.2,52.7c34,34,52.7,79.2,52.7,127.2s-18.7,93.2-52.7,127.2c-34,34-79.2,52.7-127.2,52.7
			s-93.2-18.7-127.2-52.7c-34-34-52.7-79.2-52.7-127.2s18.7-93.2,52.7-127.2C106.8,38.8,151.9,20.1,200,20.1 M200,0.1
			C89.6,0.1,0.1,89.6,0.1,200S89.6,399.9,200,399.9S399.9,310.4,399.9,200S310.4,0.1,200,0.1L200,0.1z"/>
	</g>
</g>
<g id="Calculator">
	<path d="M282.9,64.8H117.1c-7,0-12.7,5.7-12.7,12.7v244.9c0,7,5.7,12.7,12.7,12.7h165.9c7,0,12.7-5.7,12.7-12.7V77.5
		C295.6,70.6,289.9,64.8,282.9,64.8z M183.6,292.5c0,7-5.7,12.7-12.7,12.7h-29c-7,0-12.7-5.7-12.7-12.7v-29c0-7,5.7-12.7,12.7-12.7
		h29c7,0,12.7,5.7,12.7,12.7V292.5z M183.6,212.7c0,7-5.7,12.7-12.7,12.7h-29c-7,0-12.7-5.7-12.7-12.7v-29c0-7,5.7-12.7,12.7-12.7
		h29c7,0,12.7,5.7,12.7,12.7V212.7z M270.8,292.5c0,7-5.7,12.7-12.7,12.7h-29c-7,0-12.7-5.7-12.7-12.7v-29c0-7,5.7-12.7,12.7-12.7
		h29c7,0,12.7,5.7,12.7,12.7V292.5z M270.8,212.7c0,7-5.7,12.7-12.7,12.7h-29c-7,0-12.7-5.7-12.7-12.7v-29c0-7,5.7-12.7,12.7-12.7
		h29c7,0,12.7,5.7,12.7,12.7V212.7z M271.6,129.8c0,7-5.7,12.7-12.7,12.7H141.1c-7,0-12.7-5.7-12.7-12.7v-28.9
		c0-7,5.7-12.7,12.7-12.7h117.9c7,0,12.7,5.7,12.7,12.7V129.8z"/>
	<rect x="151.4" y="181.9" width="10.6" height="33.1"/>
	<rect x="138.6" y="193.1" width="36.3" height="10.6"/>
	<rect x="225.8" y="193.1" width="36.3" height="10.6"/>
	<rect x="138.4" y="272" width="36.3" height="10.6"/>
	<rect x="225.8" y="264.6" width="36.3" height="10.6"/>
	<rect x="225.8" y="280.2" width="36.3" height="10.6"/>
	<circle cx="156.5" cy="264.1" r="6.4"/>
	<circle cx="156.5" cy="291.1" r="6.4"/>
</g>
</svg>
