<?xml version="1.0" encoding="utf-8"?>
<!-- Generator: Adobe Illustrator 19.1.0, SVG Export Plug-In . SVG Version: 6.00 Build 0)  -->
<svg version="1.1" xmlns="http://www.w3.org/2000/svg" xmlns:xlink="http://www.w3.org/1999/xlink" x="0px" y="0px"
	 viewBox="0 0 400 400" style="enable-background:new 0 0 400 400;" xml:space="preserve">
<g id="Cirlce">
	<g>
		<path d="M200,20.1c48.1,0,93.2,18.7,127.2,52.7c34,34,52.7,79.2,52.7,127.2s-18.7,93.2-52.7,127.2c-34,34-79.2,52.7-127.2,52.7
			s-93.2-18.7-127.2-52.7c-34-34-52.7-79.2-52.7-127.2s18.7-93.2,52.7-127.2C106.8,38.8,151.9,20.1,200,20.1 M200,0.1
			C89.6,0.1,0.1,89.6,0.1,200S89.6,399.9,200,399.9S399.9,310.4,399.9,200S310.4,0.1,200,0.1L200,0.1z"/>
	</g>
</g>
<g id="Fuerza">
	<path d="M95.5,200.7c10.9,10.8,20.6,20.2,31,30.4c-8.1,0-15.5,0.1-22.9-0.1c-1.4,0-3.1-0.9-4.1-1.9C90,220,80.7,210.7,70.9,201
		c10.2-10.3,19.9-20.4,30-30.1c1.4-1.4,4.7-1,7.1-1.1c6-0.1,12.1,0,18.7,0C116.4,180,106.6,189.7,95.5,200.7z"/>
	<path d="M273.3,229.2c9.8-9.2,19.6-18.3,30.3-28.4c-10.7-10.1-20.6-19.5-30.6-28.9c0.4-0.7,0.8-1.4,1.1-2c7.6,0,15.2-0.1,22.8,0.1
		c1,0,2.2,0.7,2.9,1.5c9.7,9.6,19.3,19.2,29.2,29.2c-10,10.1-19.5,19.8-29.2,29.3c-1,0.9-2.9,1.3-4.3,1.3c-7,0.1-14,0.1-21,0.1
		C274.1,230.5,273.7,229.8,273.3,229.2z"/>
	<path d="M199.8,70.7c10.1,10,19.6,19.4,28.9,28.9c1.1,1.2,2,3.1,2.1,4.7c0.2,7,0.1,14,0.1,21.6c-10.1-10.4-19.6-20.2-29.4-30.3
		c-11,11.3-20.5,21-29.9,30.7c-0.6-0.3-1.3-0.6-1.9-0.8c0-7.8-0.1-15.5,0.1-23.3c0-1.1,1.2-2.4,2.1-3.3
		C180.9,89.7,190.1,80.5,199.8,70.7z"/>
	<path d="M199.9,329.3c-9.9-10.1-19.1-19.2-28.1-28.6c-1.1-1.2-2.1-3.1-2.2-4.7c-0.2-7.2-0.1-14.4-0.1-22.5
		c10.1,10.4,19.4,20,29.3,30.3c10.9-11.1,20.5-21,30.1-30.8c0.6,0.3,1.3,0.5,1.9,0.8c0,7.6,0.1,15.2-0.1,22.8c0,1.2-1,2.5-1.9,3.4
		C219.5,309.6,210.1,319.1,199.9,329.3z"/>
	<path d="M215.8,225.4c-10.7,0-20.6,0-31.8,0c3.4-11.9-3.3-19.4-9.7-28c-9.7-13.2-5.1-32.1,8.1-41.6c13-9.4,31.1-7.2,41.9,5
		c10.6,12.1,10.8,31.2-1.2,41.8c-5.9,5.3-7.7,10.4-6.9,17.5C216.3,221.6,216,223.2,215.8,225.4z M209.3,218.5
		c1.3-11.7,1.3-11.7,9-19.1c9.9-9.6,10.2-25.7,0.7-35.6c-9.6-10-25.5-10.4-35.5-0.7c-10.2,9.8-11.5,26.3-0.7,35.1
		c6.8,5.6,8.3,11.4,8,19c0,0.4,0.5,0.7,0.9,1.3C197.2,218.5,203,218.5,209.3,218.5z"/>
	<path d="M294.6,200.7c-9,8.6-16.6,16.8-25.2,23.8c-3,2.5-8.2,2.2-12.4,3.2c-0.4-0.7-0.8-1.4-1.2-2.1c6.1-6.1,12.2-12.3,18.3-18.4
		c6.6-6.6,6.6-6.6-0.2-13.3c-6.1-6-12.2-11.8-19.4-18.7c8.2-1.5,13.4-1.1,18.2,4.3C279.2,186.7,286.5,192.9,294.6,200.7z"/>
	<path d="M106.8,199.9c7.9-7.7,15.3-15.8,23.7-22.7c3.1-2.5,8.3-2.4,12.6-3.5c0.5,1,1,1.9,1.5,2.9c-5.2,4.7-10.5,9.3-15.5,14.2
		c-10,9.8-10.1,10,0.2,20c5,4.8,10.4,9.1,15,14.5c-7.2,2.2-12.6,1.9-17.2-3.7c-5.9-6.9-12.7-13-19.1-19.5
		C107.7,201.8,107.5,201.3,106.8,199.9z"/>
	<path d="M174.9,144.8c-2.3-8.9,0-14.1,5.5-19c6.7-6,12.6-13,19.2-20c8.9,9,17.3,16.7,24.7,25.2c2.3,2.7,1.7,7.9,2.5,11.9
		c-0.7,0.4-1.3,0.8-2,1.2c-6.1-6.2-12.1-12.5-18.2-18.7c-5.4-5.5-7.5-5.5-12.9,0C187.5,131.5,181.6,137.7,174.9,144.8z"/>
	<path d="M225.4,254.9c1.3,7.8,1,13-4.5,17.8c-7.1,6.3-13.4,13.5-20.6,20.9c-8.7-8.7-17.3-16.5-24.8-25.2c-2.2-2.6-1.5-7.8-2.1-11.8
		c0.6-0.3,1.3-0.6,1.9-0.9c6.1,6.3,12.4,12.5,18.3,18.9c4.3,4.7,8.1,4.8,12.5,0C212.2,268.2,218.5,262,225.4,254.9z"/>
	<path d="M213,227.1c0,3.9,0,6.9,0,10.8c-3.6,0.6-7.8,1.4-11.9,2.1c-4.2,0.7-8.5,1.4-13.4,2.2c-0.2-3.7-0.4-6.9-0.6-10.8
		c4.2-0.8,8.4-1.6,12.6-2.3C203.9,228.4,208.2,227.8,213,227.1z"/>
	<path d="M198.7,254.2c-1.8-3.1-3.7-6.2-6.1-10.4c5.6,0,9.1,0,14.8,0c-2.5,4.2-4.3,7.3-6.2,10.4
		C200.4,254.2,199.5,254.2,198.7,254.2z"/>
</g>
</svg>
