<?xml version="1.0" encoding="utf-8"?>
<!-- Generator: Adobe Illustrator 21.1.0, SVG Export Plug-In . SVG Version: 6.00 Build 0)  -->
<svg version="1.1" xmlns="http://www.w3.org/2000/svg" xmlns:xlink="http://www.w3.org/1999/xlink" x="0px" y="0px"
	 viewBox="0 0 400 400" style="enable-background:new 0 0 400 400;" xml:space="preserve">
<g id="Cirlce">
	<g>
		<path d="M200,20.1c48.1,0,93.2,18.7,127.2,52.7c34,34,52.7,79.2,52.7,127.2s-18.7,93.2-52.7,127.2c-34,34-79.2,52.7-127.2,52.7
			s-93.2-18.7-127.2-52.7c-34-34-52.7-79.2-52.7-127.2s18.7-93.2,52.7-127.2C106.8,38.8,151.9,20.1,200,20.1 M200,0.1
			C89.6,0.1,0.1,89.6,0.1,200S89.6,399.9,200,399.9S399.9,310.4,399.9,200S310.4,0.1,200,0.1L200,0.1z"/>
	</g>
</g>
<g id="Pencil__x26__Paper">
	<path d="M104,282.7c0.1,0.1,3.3,1.7,8.9,4c15.1,5.5,32.4,5.1,49.5-1.3c20.3-7.6,36.6-22.2,42.5-38.2l0.7-1.8l1.9,0.6
		c48.2,14.3,133.5,4.2,134.3,4.1l6.9-0.8l-5.3,4.5c-0.5,0.4-45.8,38.5-112.1,51.7c-11.4,2.3-22.7,3.2-33.5,3.2
		c-38,0-70.8-11.5-86.3-18 M135.2,294.7c24,7.3,59,13.8,95.3,6.6C282.3,291,321,265.3,335,255c-21.6,2.1-86.1,6.9-126.9-4.5
		c-6.8,16.4-23.6,31.2-44.3,38.9C154.2,292.9,144.5,294.7,135.2,294.7z"/>
	<path d="M131.6,252.5c0.7,1.1,1.8,2.1,2.9,2.7c14.8,8.1,29.7,16.3,44.5,24.4c9-5.6,16.7-12.8,22.1-20.6c0-0.2,0-0.5,0-0.7
		c-0.8-14.9-1.5-29.8-2.3-44.6c0-0.7-0.4-1.4-0.8-2c-11.9-18.9-23.8-37.9-35.7-56.8c-9.9-15.7-19.7-31.3-29.6-47
		c-3.4-5.5-8.5-8.3-14.7-9.1c-10.8-1.4-20.5,2.1-29.6,7.4c-8.7,5.1-16.2,11.5-21.1,20.5c-3.1,5.6-4.5,11.6-2.7,17.9
		c0.5,1.8,1.4,3.5,2.4,5c18.5,29.5,37.1,59.1,55.7,88.6C125.6,243,128.5,247.8,131.6,252.5z M190,261.4c-3.7,0.5-6.9,1.7-9,4.8
		c-0.8,1.2-1.3,1.2-2.4,0.6c-8.4-4.6-16.8-9.2-25.2-13.8c-3.8-2.1-7.6-4.2-11.6-6.3c7.3-8.7,12.6-18.2,12.4-30.1
		c11.1,5.6,22.2,4.5,33.5,1.6C188.5,232.6,189.3,246.9,190,261.4z M74.8,138.2c0.5-3.8,2.3-7.1,4.6-10c5.7-7.3,13.1-12.3,21.6-15.8
		c4.5-1.8,9.2-3,14.2-2.7c2.8,0.1,5.1,1,6,2.3c-20,2.4-35.3,12.1-46.4,29.5C74.8,140.1,74.7,139.1,74.8,138.2z M88.8,163.7
		c-1.5-2.4-2.8-4.6-4.2-6.7c-1.3-2-1.5-4.1-1-6.3c0.4-1.5,0.9-3.1,1.7-4.4c8.2-13.4,20.3-20.9,35.8-23c3-0.4,6.2-0.1,8.7,1.9
		c2.8,2.3,4,5.7,6.1,8.8c-10.3,0.2-19.1,3.6-27.4,8.8C100.4,148,93.4,154.5,88.8,163.7z M114.4,149.2c5-2.9,10-5,15.4-6.1
		c3.4-0.6,6.8-1,10.2,0c1.4,0.4,2.3,1,3.1,2.3c14.1,22.6,28.3,45.1,42.4,67.7c0.3,0.4,0.5,0.9,0.8,1.5c-3,0.6-5.8,1.2-8.5,1.6
		c-7.9,1.3-15.5,0.3-22.6-3.6c-0.8-0.4-1.6-1.1-2.1-1.9c-10.9-17.3-21.8-34.6-32.8-52C118.5,155.7,116.5,152.5,114.4,149.2z"/>
</g>
</svg>
