<?xml version="1.0" encoding="utf-8"?>
<!-- Generator: Adobe Illustrator 21.1.0, SVG Export Plug-In . SVG Version: 6.00 Build 0)  -->
<svg version="1.1" xmlns="http://www.w3.org/2000/svg" xmlns:xlink="http://www.w3.org/1999/xlink" x="0px" y="0px"
	 viewBox="0 0 400 400" style="enable-background:new 0 0 400 400;" xml:space="preserve">
<g id="Cirlce">
	<g>
		<path d="M200,20.1c48.1,0,93.2,18.7,127.2,52.7c34,34,52.7,79.2,52.7,127.2s-18.7,93.2-52.7,127.2c-34,34-79.2,52.7-127.2,52.7
			s-93.2-18.7-127.2-52.7c-34-34-52.7-79.2-52.7-127.2s18.7-93.2,52.7-127.2C106.8,38.8,151.9,20.1,200,20.1 M200,0.1
			C89.6,0.1,0.1,89.6,0.1,200S89.6,399.9,200,399.9S399.9,310.4,399.9,200S310.4,0.1,200,0.1L200,0.1z"/>
	</g>
</g>
<g id="Plus">
	<polygon points="229.5,170.5 229.5,72.6 170.5,72.6 170.5,170.5 72.6,170.5 72.6,229.5 170.5,229.5 170.5,327.4 229.5,327.4 
		229.5,229.5 327.4,229.5 327.4,170.5 	"/>
</g>
</svg>
