<?xml version="1.0" encoding="utf-8"?>
<!-- Generator: Adobe Illustrator 21.1.0, SVG Export Plug-In . SVG Version: 6.00 Build 0)  -->
<svg version="1.1" xmlns="http://www.w3.org/2000/svg" xmlns:xlink="http://www.w3.org/1999/xlink" x="0px" y="0px"
	 viewBox="0 0 400 400" style="enable-background:new 0 0 400 400;" xml:space="preserve">
<g id="Cirlce">
	<g>
		<path d="M200,20.1c48.1,0,93.2,18.7,127.2,52.7c34,34,52.7,79.2,52.7,127.2s-18.7,93.2-52.7,127.2c-34,34-79.2,52.7-127.2,52.7
			s-93.2-18.7-127.2-52.7c-34-34-52.7-79.2-52.7-127.2s18.7-93.2,52.7-127.2C106.8,38.8,151.9,20.1,200,20.1 M200,0.1
			C89.6,0.1,0.1,89.6,0.1,200S89.6,399.9,200,399.9S399.9,310.4,399.9,200S310.4,0.1,200,0.1L200,0.1z"/>
	</g>
</g>
<g id="Two_People">
	<g>
		<path d="M187.1,188.5h-75.9c-8.2,0-11.3,7.7-14.9,17.8l-24.9,67.8c0,9.8,6.7,17.8,14.9,17.8h63.4l20.8-56.7
			c3.6-10,8.1-22.5,21.5-22.5h20.2C201.6,207.3,192.8,198.9,187.1,188.5z"/>
	</g>
	<g>
		<path d="M179.8,160.1c0-20.7,10.7-38.9,26.9-49.4c-7.4-19.7-26.4-33.8-48.7-33.8c-28.7,0-52,23.3-52,52s23.3,52,52,52
			c8.6,0,16.6-2.1,23.8-5.8C180.5,170.3,179.8,165.2,179.8,160.1z"/>
	</g>
	<g>
		<path d="M313.7,323.2H167.2c-8.2,0-14.9-8-14.9-17.8l24.9-67.8c3.7-10.2,6.7-17.8,14.9-17.8h96.8c8.2,0,11.5,8.2,14.9,17.8
			l24.9,67.8C328.6,315.1,321.9,323.2,313.7,323.2z"/>
	</g>
	<g>
		<circle cx="238.8" cy="160.1" r="52"/>
	</g>
</g>
</svg>
